<?xml version="1.0" encoding="utf-8"?>
<!-- Generator: Adobe Illustrator 22.1.0, SVG Export Plug-In . SVG Version: 6.00 Build 0)  -->
<svg version="1.1" xmlns="http://www.w3.org/2000/svg" xmlns:xlink="http://www.w3.org/1999/xlink" x="0px" y="0px"
	 viewBox="0 0 997.6 374.6" style="enable-background:new 0 0 997.6 374.6;" xml:space="preserve">
<style type="text/css">
	.st0{fill:none;stroke:#B2C5DE;stroke-width:0.6149;stroke-miterlimit:10;}
	.st1{fill:#261E2D;}
	.st2{font-family:'Georgia-Italic';}
	.st3{font-size:18.9538px;}
	.st4{fill:none;stroke:#DCDCE5;stroke-width:4.7904;stroke-linecap:round;stroke-linejoin:round;}
	.st5{fill:none;stroke:#89D8D7;stroke-width:4.7904;stroke-linecap:round;stroke-linejoin:round;}
	.st6{fill:none;stroke:#C1C1EA;stroke-width:4.7904;stroke-linecap:round;stroke-linejoin:round;}
	.st7{fill:#DCDCE5;}
	.st8{fill:#89D8D7;}
	.st9{fill:#C1C1EA;}
	.st10{fill:#4F4C51;}
	.st11{font-size:13.4256px;}
	.st12{fill:none;stroke:#E0C1E6;stroke-width:11.8461;stroke-linecap:round;stroke-linejoin:round;}
	.st13{fill:none;stroke:#81D9D7;stroke-width:11.8461;stroke-linecap:round;stroke-linejoin:round;}
	.st14{fill:#FCFBFD;}
	.st15{fill:none;stroke:#51515B;stroke-width:0.7897;stroke-linecap:round;stroke-linejoin:round;stroke-opacity:0.33;}
</style>
<g id="图层_1">
	<path class="st0" d="M858.5,334.9H139.1c-18.7,0-33.9-15.2-33.9-33.9V73.6c0-18.7,15.2-33.9,33.9-33.9h719.4
		c18.7,0,33.9,15.2,33.9,33.9V301C892.4,319.8,877.2,334.9,858.5,334.9z"/>
	<g id="legend">
		<g id="legend_1_">
			<g>
				<g>
					<text transform="matrix(1 0 0 1 426.4879 122.508)" class="st1 st2 st3">The founder’s Education Backrgound</text>
				</g>
				<circle class="st4" cx="448.4" cy="260.5" r="7.9"/>
				<circle class="st5" cx="718.4" cy="260.5" r="7.9"/>
				<circle class="st6" cx="793.3" cy="260.5" r="7.9"/>
				<circle class="st7" cx="448.4" cy="231.9" r="6.6"/>
				<circle class="st8" cx="718.4" cy="233.5" r="6.6"/>
				<circle class="st9" cx="793.3" cy="233.5" r="6.6"/>
				<circle class="st7" cx="448.4" cy="206.8" r="9.8"/>
				<circle class="st7" cx="448.4" cy="180" r="9.8"/>
				<g>
					<g>
						<text transform="matrix(1 0 0 1 736.9805 209.4467)" class="st10 st2 st11">false</text>
					</g>
				</g>
				<circle class="st8" cx="718.4" cy="206.8" r="9.8"/>
				<g>
					<g>
						<text transform="matrix(1 0 0 1 811.918 209.4467)" class="st10 st2 st11">true</text>
					</g>
				</g>
				<g>
					<g>
						<text transform="matrix(1 0 0 1 736.9805 237.2519)" class="st10 st2 st11">false</text>
					</g>
				</g>
				<g>
					<g>
						<text transform="matrix(1 0 0 1 811.918 237.2519)" class="st10 st2 st11">true</text>
					</g>
				</g>
				<g>
					<g>
						<text transform="matrix(1 0 0 1 736.9805 264.2245)" class="st10 st2 st11">false</text>
					</g>
				</g>
				<g>
					<g>
						<text transform="matrix(1 0 0 1 811.918 264.2245)" class="st10 st2 st11">true</text>
					</g>
				</g>
				<circle class="st9" cx="793.3" cy="206.8" r="9.8"/>
				<g>
					<g>
						<text transform="matrix(1 0 0 1 736.9805 179.0839)" class="st10 st2 st11">false</text>
					</g>
				</g>
				<circle class="st8" cx="718.4" cy="176.5" r="9.8"/>
				<g>
					<g>
						<text transform="matrix(1 0 0 1 811.918 179.0839)" class="st10 st2 st11">true</text>
					</g>
				</g>
				<circle class="st9" cx="793.3" cy="176.5" r="9.8"/>
				<g>
					<g>
						<text transform="matrix(1 0 0 1 468.5816 182.6066)" class="st10 st2 st11">computer education</text>
					</g>
				</g>
				<g>
					<g>
						<text transform="matrix(1 0 0 1 468.5816 209.078)" class="st10 st2 st11">financial/management education</text>
					</g>
				</g>
				<g>
					<g>
						<text transform="matrix(1 0 0 1 468.5816 239.2758)" class="st10 st2 st11">higher education besides bachelar</text>
					</g>
				</g>
				<g>
					<g>
						<text transform="matrix(1 0 0 1 468.5816 267.3476)" class="st10 st2 st11">high education in university</text>
					</g>
				</g>
			</g>
			<g>
				<line class="st12" x1="154.5" y1="215.7" x2="154.5" y2="273"/>
				<line class="st13" x1="154.5" y1="164" x2="154.5" y2="215.7"/>
				<g>
					<g>
						<g>
							<text transform="matrix(1 0 0 1 177.2457 217.0529)" class="st10 st2 st11">when the company stock</text>
							<text transform="matrix(1 0 0 1 263.8013 235.2167)" class="st10 st2 st11">was listed </text>
						</g>
					</g>
					<g>
						<g>
							<text transform="matrix(1 0 0 1 213.107 273.0224)" class="st10 st2 st11">when the company</text>
							<text transform="matrix(1 0 0 1 251.1724 291.1864)" class="st10 st2 st11">was founded</text>
						</g>
					</g>
					<g>
						<g>
							<text transform="matrix(1 0 0 1 223.0137 169.4408)" class="st10 st2 st11">the founder’s age</text>
							<text transform="matrix(1 0 0 1 284.2974 187.6049)" class="st10 st2 st11">in 2019</text>
						</g>
					</g>
					<g>
						<text transform="matrix(1 0 0 1 136.5523 117.2121)" class="st1 st2 st3">The founder’s Age</text>
					</g>
					<path class="st14" d="M154.5,210.2L154.5,210.2c3.9,0,7,3.2,7,7l0,0c0,3.9-3.2,7-7,7l0,0c-3.9,0-7-3.2-7-7l0,0
						C147.4,213.4,150.6,210.2,154.5,210.2z"/>
					<line class="st15" x1="215" y1="164" x2="154.5" y2="164"/>
					<line class="st15" x1="169.5" y1="217.3" x2="154.5" y2="217.3"/>
					<line class="st15" x1="208.5" y1="273" x2="154.5" y2="273"/>
				</g>
			</g>
		</g>
	</g>
</g>
<g id="图层_2">
</g>
</svg>
