<?xml version="1.0" encoding="utf-8"?>
<!-- Generator: Adobe Illustrator 22.1.0, SVG Export Plug-In . SVG Version: 6.00 Build 0)  -->
<svg version="1.1" xmlns="http://www.w3.org/2000/svg" xmlns:xlink="http://www.w3.org/1999/xlink" x="0px" y="0px"
	 viewBox="0 0 1356.4 1286" style="enable-background:new 0 0 1356.4 1286;" xml:space="preserve">
<style type="text/css">
	.st0{fill:none;stroke:#B2C5DE;stroke-width:5;stroke-miterlimit:10;}
	.st1{fill:#99979B;}
	.st2{font-family:'Georgia-Italic';}
	.st3{font-size:14px;}
	.st4{fill:#4F4C51;}
	.st5{font-size:18px;}
	.st6{fill:#6B98AA;}
	.st7{fill:none;stroke:#020202;stroke-width:0.5;stroke-miterlimit:10;}
	.st8{fill:#020202;}
	.st9{fill:#E2CAE8;}
	.st10{font-size:16px;}
	.st11{fill:#A7CADC;}
	.st12{fill:none;stroke:#F9F9F9;stroke-width:1.3;stroke-linecap:round;stroke-miterlimit:10;}
	.st13{font-size:17px;}
	.st14{fill:#FFFFFF;}
</style>
<g id="图层_1">
	<g>
		<g>
			<line class="st0" x1="4" y1="53.8" x2="4" y2="131.3"/>
			<line class="st0" x1="4" y1="150.1" x2="4" y2="507"/>
			<line class="st0" x1="4" y1="528.5" x2="4" y2="759.8"/>
			<line class="st0" x1="4" y1="782" x2="4" y2="1245.9"/>
		</g>
		<g>
			<text transform="matrix(0 1 -1 0 27.3171 253.6755)" class="st1 st2 st3">Data collection</text>
		</g>
		<g>
			<text transform="matrix(0 1 -1 0 25.5143 598.3654)" class="st1 st2 st3">Data Process</text>
		</g>
		<g>
			<text transform="matrix(0 1 -1 0 26.2174 1026.0929)" class="st1 st2 st3">Data Visualization</text>
		</g>
		<g>
			<text transform="matrix(0 1 -1 0 27.4694 89.1869)" class="st1 st2 st3">Query</text>
		</g>
	</g>
	<g>
		<text transform="matrix(1 0 0 1 92.0929 76.1859)"><tspan x="0" y="0" class="st4 st2 st5">How about the China&apos;s leading Internet </tspan><tspan x="0" y="23" class="st4 st2 st5">companies  of Tencent and</tspan><tspan x="0" y="46" class="st4 st2 st5">Alibaba Group?</tspan></text>
	</g>
	<g>
		<text transform="matrix(1 0 0 1 464.0861 194.747)"><tspan x="0" y="0" class="st1 st2 st3">use Python to implement a crawler to extract the webpage Network </tspan><tspan x="472.8" y="0" class="st6 st2 st3">topology </tspan></text>
	</g>
	<g>
		<text transform="matrix(1 0 0 1 464.0861 294.8412)" class="st1 st2 st3">assign the root wikipidia page</text>
	</g>
	<g>
		<g>
			<path class="st7" d="M375.4,93.2H423c22.6,0,40.8,18.3,40.8,40.8v44.4"/>
			<g>
				<polygon class="st8" points="461.8,176.9 462.1,176.5 463.8,178.3 465.5,176.5 465.8,176.9 463.8,179.1 				"/>
			</g>
		</g>
	</g>
	<g>
		<text transform="matrix(1 0 0 1 463.9206 317.3665)" class="st6 st2 st5" style="text-decoration: underline;">en.wikipedia.org</text>
	</g>
	<g>
		<text transform="matrix(1 0 0 1 463.9206 218.1176)" class="st6 st2 st5" style="text-decoration: underline;">Python</text>
	</g>
	<g>
		<g>
			<line class="st7" x1="464.7" y1="227.1" x2="464.7" y2="279.7"/>
			<g>
				<polygon class="st8" points="462.6,278 463,277.7 464.7,279.5 466.4,277.7 466.7,278 464.7,280.2 				"/>
			</g>
		</g>
	</g>
	<g>
		<g>
			<line class="st7" x1="464.7" y1="415.9" x2="464.7" y2="460.7"/>
			<g>
				<polygon class="st8" points="462.6,459.1 463,458.7 464.7,460.5 466.4,458.7 466.7,459.1 464.7,461.3 				"/>
			</g>
		</g>
	</g>
	<g>
		<g>
			<line class="st7" x1="464.7" y1="327.1" x2="464.7" y2="380.8"/>
			<g>
				<polygon class="st8" points="462.6,379.2 463,378.8 464.7,380.6 466.4,378.8 466.7,379.2 464.7,381.4 				"/>
			</g>
		</g>
	</g>
	<g>
		<text transform="matrix(1 0 0 1 464.0861 478.7401)"><tspan x="0" y="0" class="st1 st2 st3">visit the links on the root page</tspan><tspan x="0" y="16.8" class="st1 st2 st3">record the title of each pages, pointer to relation and the distance to the root page</tspan><tspan x="0" y="33.6" class="st1 st2 st3">by</tspan></text>
	</g>
	<g>
		<text transform="matrix(1 0 0 1 464.0861 393.8008)"><tspan x="0" y="0" class="st1 st2 st3">analyzing the raw HTML data to extract links</tspan><tspan x="0" y="16.8" class="st1 st2 st3">removing the irrelevant links like login, edit,ect.</tspan></text>
	</g>
	<g>
		<text transform="matrix(1 0 0 1 464.0861 623.1737)"><tspan x="0" y="0" class="st1 st2 st3">Stop at the</tspan><tspan x="75" y="0" class="st6 st2 st3"> distance of 2</tspan></text>
	</g>
	<g>
		<text transform="matrix(1 0 0 1 463.9206 537.2953)" class="st6 st2 st5" style="text-decoration: underline;">Breadth-first search (BFS) </text>
	</g>
	<g>
		<g>
			<line class="st7" x1="464.7" y1="548.9" x2="464.7" y2="604.1"/>
			<g>
				<polygon class="st8" points="462.6,602.4 463,602.1 464.7,603.9 466.4,602.1 466.7,602.4 464.7,604.6 				"/>
			</g>
		</g>
	</g>
	<line class="st7" x1="464.7" y1="632.6" x2="464.7" y2="695.4"/>
	<path class="st9" d="M875.1,84.2H472.8c-5,0-9,4-9,9v0c0,5,4,9,9,9h402.2c5,0,9-4,9-9v0C884.1,88.3,880,84.2,875.1,84.2z"/>
	<g>
		<text transform="matrix(1 0 0 1 601.7844 98.0221)" class="st4 st2 st10">Tencent &amp; Alibaba</text>
	</g>
	<g>
		<g>
			<line class="st7" x1="464.6" y1="789.3" x2="464.6" y2="872.8"/>
			<g>
				<polygon class="st8" points="462.6,871.2 463,870.8 464.6,872.7 466.3,870.8 466.7,871.2 464.6,873.4 				"/>
			</g>
		</g>
	</g>
	<g>
		<g>
			<g>
				<path class="st4" d="M476.9,754.4c-0.2,0.8-0.4,2-0.5,2.9l-0.5,0c0-0.3,0-0.6-0.1-0.9c-0.1-0.7-0.3-1-1.8-1h-1l-1.6,8.3
					c-0.3,1.4-0.1,1.5,1.4,1.6l-0.1,0.5H468l0.1-0.5c1.4-0.1,1.6-0.2,1.8-1.6l1.6-8.3h-1c-1.4,0-1.6,0.2-2,0.7
					c-0.2,0.3-0.5,0.7-0.8,1.3l-0.5-0.1c0.3-1,0.5-2,0.7-2.9h0.4c0.2,0.4,0.4,0.4,0.8,0.4h6.5c0.4,0,0.6-0.1,0.9-0.4H476.9z"/>
				<path class="st4" d="M479.5,766c-0.8,0-1.9-0.5-1.9-2.5c0-1.6,0.7-3.5,2-4.5c0.8-0.5,1.6-0.9,2.3-0.9c1,0,1.5,0.6,1.5,1.4
					c0,1.7-2.5,2.5-4.4,2.8c0,0.2,0,0.5,0,0.7c0,1,0.3,1.9,1.3,1.9c0.8,0,1.7-0.5,2.5-1.3l0.3,0.4C481.7,765.7,480.3,766,479.5,766z
					 M479.1,761.8c2.5-0.4,3-1.2,3.1-2c0-0.6-0.3-0.9-0.9-0.9C480.7,758.9,479.6,759.3,479.1,761.8z"/>
				<path class="st4" d="M493,764.3c-0.9,1.2-1.9,1.7-2.4,1.7c-0.5,0-0.7-0.4-0.4-1.8c0.3-1.2,0.6-2.4,0.8-3.5
					c0.3-1.1,0.2-1.5-0.2-1.5c-0.6,0-1.9,1-3,2.7c-0.3,0.5-0.4,0.9-0.6,1.4c-0.2,0.7-0.4,1.6-0.5,2.3c-0.4,0.1-0.9,0.2-1.2,0.3
					l-0.1-0.1c0.5-1.9,1-3.9,1.4-5.8c0.1-0.5,0.1-0.7-0.1-0.7c-0.2,0-0.6,0.4-1,0.8l-0.2-0.4c0.8-1,1.7-1.6,2.2-1.6
					c0.5,0,0.6,0.6,0.3,2.1l-0.2,1c1.5-2,3-3.1,4.1-3.1c0.6,0,1.1,0.4,0.5,2.7c-0.2,0.9-0.5,2.2-0.8,3.3c-0.1,0.5-0.1,0.7,0,0.7
					c0.2,0,0.6-0.3,1.3-0.9L493,764.3z"/>
				<path class="st4" d="M500.5,764.2c-1,1.2-2.3,1.9-3.4,1.9c-1.1,0-1.9-0.9-1.9-2.5c0-1.4,0.6-3,1.7-4.1c0.8-0.7,1.9-1.3,2.7-1.3
					c0.7,0,1.3,0.4,1.3,0.8c0,0.3-0.2,0.8-0.6,0.9c-0.2,0.1-0.3,0.1-0.4-0.1c-0.4-0.5-0.8-0.7-1.3-0.7c-1.3,0-2.1,2.1-2.1,4.1
					c0,1.2,0.5,1.9,1.3,1.9c0.9,0,1.9-0.8,2.4-1.3L500.5,764.2z"/>
				<path class="st4" d="M504.6,766c-0.8,0-1.9-0.5-1.9-2.5c0-1.6,0.7-3.5,2-4.5c0.8-0.5,1.6-0.9,2.3-0.9c1,0,1.5,0.6,1.5,1.4
					c0,1.7-2.5,2.5-4.4,2.8c0,0.2,0,0.5,0,0.7c0,1,0.3,1.9,1.3,1.9c0.8,0,1.7-0.5,2.5-1.3l0.3,0.4C506.8,765.7,505.5,766,504.6,766z
					 M504.2,761.8c2.5-0.4,3-1.2,3.1-2c0-0.6-0.3-0.9-0.9-0.9C505.9,758.9,504.7,759.3,504.2,761.8z"/>
				<path class="st4" d="M518.1,764.3c-0.9,1.2-1.9,1.7-2.4,1.7c-0.5,0-0.7-0.4-0.4-1.8c0.3-1.2,0.6-2.4,0.8-3.5
					c0.3-1.1,0.2-1.5-0.2-1.5c-0.6,0-1.9,1-3,2.7c-0.3,0.5-0.4,0.9-0.6,1.4c-0.2,0.7-0.4,1.6-0.5,2.3c-0.4,0.1-0.9,0.2-1.2,0.3
					l-0.1-0.1c0.5-1.9,1-3.9,1.4-5.8c0.1-0.5,0.1-0.7-0.1-0.7c-0.2,0-0.6,0.4-1,0.8l-0.2-0.4c0.8-1,1.7-1.6,2.2-1.6
					c0.5,0,0.6,0.6,0.3,2.1l-0.2,1c1.5-2,3-3.1,4.1-3.1c0.6,0,1.1,0.4,0.5,2.7c-0.2,0.9-0.5,2.2-0.8,3.3c-0.1,0.5-0.1,0.7,0,0.7
					c0.2,0,0.6-0.3,1.3-0.9L518.1,764.3z"/>
				<path class="st4" d="M525,759c-0.3,0-1.2,0.1-1.7,0.1c-0.8,3.5-1,4.6-1.1,5.1c-0.1,0.5,0,0.7,0.2,0.7c0.3,0,0.9-0.4,1.5-1.1
					l0.2,0.4c-0.5,0.8-1.9,1.8-2.6,1.8c-0.6,0-0.9-0.5-0.4-2.5l1-4.5h-1.4v-0.2l0.5-0.5h1l0.4-1.8c0.3-0.2,1-0.6,1.3-0.9l0.2,0.1
					c-0.2,0.7-0.5,1.8-0.7,2.7h1.9L525,759z"/>
				<path class="st4" d="M526.7,766c-0.5,0-0.9-0.4-0.9-0.9c0-0.6,0.5-1.1,1.1-1.1c0.5,0,0.9,0.4,0.9,1
					C527.7,765.6,527.2,766,526.7,766z"/>
				<path class="st4" d="M534.6,759c-0.3,0-1.2,0.1-1.7,0.1c-0.8,3.5-1,4.6-1.1,5.1c-0.1,0.5,0,0.7,0.2,0.7c0.3,0,0.9-0.4,1.5-1.1
					l0.2,0.4c-0.5,0.8-1.9,1.8-2.6,1.8c-0.6,0-0.9-0.5-0.4-2.5l1-4.5h-1.4v-0.2l0.5-0.5h1l0.4-1.8c0.3-0.2,1-0.6,1.3-0.9l0.2,0.1
					c-0.2,0.7-0.5,1.8-0.7,2.7h1.9L534.6,759z"/>
				<path class="st4" d="M540.7,759.1c0,0.3-0.2,0.7-0.5,0.8c-0.2,0.1-0.3,0-0.4-0.1c-0.5-0.5-0.9-0.8-1.3-0.8c-0.4,0-0.9,0.4-0.9,1
					c0,0.6,0.5,1,1.1,1.4c1,0.8,1.5,1.2,1.5,2c0,1.4-1.8,2.6-3.1,2.6c-0.8,0-1.6-0.6-1.6-1.2c0-0.4,0.4-0.8,0.7-0.9
					c0.1,0,0.2,0.1,0.3,0.2c0.4,0.6,0.9,1,1.5,1c0.7,0,1.1-0.5,1.1-1.1c0-0.4-0.2-0.8-1-1.5c-0.8-0.6-1.5-1.1-1.5-2
					c0-0.5,0.2-1.1,0.9-1.6c0.5-0.5,1.3-0.8,1.9-0.8C540.1,758.2,540.7,758.6,540.7,759.1z"/>
				<path class="st4" d="M542.2,759.8c0.6-0.9,1.5-1.6,2.1-1.6c0.4,0,0.7,0.5,0.7,1.9c0.1,1.7,0.1,3.3,0.2,4.4
					c0.8-0.9,2.7-3.2,2.7-4.4c0-0.3-0.2-0.6-0.3-0.8c-0.1-0.1-0.1-0.2,0-0.4c0.1-0.3,0.6-0.7,1-0.7c0.4,0,0.6,0.4,0.6,1
					c0,0.5-0.2,1.3-1,2.4c-1,1.4-2.7,3.3-3.7,4.5H544c-0.1-1.7-0.2-4.1-0.3-5.6c-0.1-0.9-0.2-1.1-0.3-1.1c-0.1,0-0.4,0.2-1,0.8
					L542.2,759.8z"/>
			</g>
		</g>
	</g>
	<g>
		<g>
			<g>
				<path class="st4" d="M988.6,765.8h-4.1l0.1-0.5c1.2-0.1,1.4-0.3,1.3-1c-0.1-0.7-0.2-1.5-0.4-2.5h-3.6c-0.3,0.5-0.9,1.5-1.3,2.3
					c-0.5,1-0.3,1.1,1,1.3l-0.1,0.5h-3.9l0.1-0.5c1.1-0.1,1.3-0.2,2.1-1.6l5.2-9.1l0.6-0.1c0.7,5,1.1,7.3,1.5,9.3
					c0.2,1.2,0.3,1.3,1.6,1.5L988.6,765.8z M984.7,756.7L984.7,756.7c-0.9,1.6-1.8,3.1-2.5,4.4h3.1L984.7,756.7z"/>
				<path class="st4" d="M993.2,764.3c-0.9,1.1-2,1.8-2.5,1.8c-0.4,0-0.7-0.3-0.3-2c0.6-2.9,1.3-6,1.8-8.6c0.1-0.7,0.1-0.7-0.5-0.8
					c-0.2,0-0.5-0.1-0.6-0.1l0.1-0.4c0.7-0.1,1.6-0.3,2.1-0.4c0.3-0.1,0.4-0.1,0.5-0.1c0.1,0,0.2,0.2,0.1,0.5
					c-0.8,3.3-1.6,7.1-2.2,10c-0.1,0.5-0.1,0.6,0.1,0.6c0.2,0,0.6-0.2,1.2-0.9L993.2,764.3z"/>
				<path class="st4" d="M998.5,764.4c-0.9,1.1-1.9,1.7-2.4,1.7c-0.4,0-0.6-0.4-0.3-1.8c0.3-1.1,0.7-2.9,1.1-4.3
					c0.1-0.3,0.1-0.5-0.1-0.5c-0.2,0-0.7,0.3-1.1,0.8l-0.2-0.4c0.8-0.9,2-1.6,2.5-1.6c0.4,0,0.4,0.6,0.1,1.8c-0.3,1.2-0.7,2.9-1,4.1
					c-0.1,0.5-0.1,0.6,0,0.6c0.2,0,0.6-0.2,1.2-0.9L998.5,764.4z M998.9,755.4c0,0.5-0.4,1-0.9,1c-0.4,0-0.7-0.3-0.7-0.8
					c0-0.4,0.3-1,1-1C998.7,754.7,998.9,755,998.9,755.4z"/>
				<path class="st4" d="M1001.7,754.2c0.8-0.1,1.6-0.3,2.1-0.4c0.3-0.1,0.4-0.1,0.5-0.1c0.2,0,0.2,0.2,0.1,0.5
					c-0.6,2.3-1,4.4-1.5,6.5c1.3-1.6,2.7-2.5,3.7-2.5s1.2,1.1,1.2,1.9c0,2-1.2,4.1-2.7,5.1c-1,0.7-1.9,0.9-2.5,0.9
					c-0.4,0-0.8-0.1-1.1-0.5c-0.4-0.4-0.6-1-0.3-2.7c0.5-2.4,1-4.8,1.6-7.4c0.1-0.7,0-0.7-0.5-0.8c-0.2,0-0.5,0-0.7,0L1001.7,754.2z
					 M1006.4,760.3c0-0.6-0.2-1.1-0.7-1.1c-0.6,0-1.4,0.5-2.5,1.9c-0.4,0.6-0.7,1.2-0.8,2c-0.3,1.6,0.2,2.2,1,2.2
					C1005.2,765.3,1006.4,762.1,1006.4,760.3z"/>
				<path class="st4" d="M1017.3,764.3c-0.8,1.1-1.9,1.7-2.4,1.7c-0.5,0-0.7-0.4-0.4-1.9l0.2-1.2c-0.6,1-1.5,1.9-2,2.3
					c-0.5,0.4-1.2,0.8-1.8,0.8c-0.6,0-1.1-0.7-1.1-2.1c0-1.6,0.7-3.4,1.9-4.4c0.9-0.8,2.1-1.3,3.2-1.3c0.9,0,1.6,0.3,2,0.3
					c-0.3,1.1-0.9,3.7-1.2,5.7c-0.1,0.5-0.1,0.7,0.1,0.7c0.2,0,0.6-0.3,1.2-0.9L1017.3,764.3z M1014.2,762.9c0.4-0.5,0.8-1.3,1-2
					c0.2-0.6,0.3-1.3,0.4-1.7c-0.2-0.1-0.8-0.3-1.3-0.3c-2,0-2.9,2.6-2.9,4.8c0,0.7,0.2,1.2,0.5,1.2
					C1012.4,764.9,1013.1,764.3,1014.2,762.9z"/>
				<path class="st4" d="M1020.3,754.2c0.8-0.1,1.6-0.3,2.1-0.4c0.3-0.1,0.4-0.1,0.5-0.1c0.2,0,0.2,0.2,0.1,0.5
					c-0.6,2.3-1,4.4-1.5,6.5c1.3-1.6,2.7-2.5,3.7-2.5s1.2,1.1,1.2,1.9c0,2-1.2,4.1-2.7,5.1c-1,0.7-1.9,0.9-2.5,0.9
					c-0.4,0-0.8-0.1-1.1-0.5c-0.4-0.4-0.6-1-0.3-2.7c0.5-2.4,1-4.8,1.6-7.4c0.1-0.7,0-0.7-0.5-0.8c-0.2,0-0.5,0-0.7,0L1020.3,754.2z
					 M1025,760.3c0-0.6-0.2-1.1-0.7-1.1c-0.6,0-1.4,0.5-2.5,1.9c-0.4,0.6-0.7,1.2-0.8,2c-0.3,1.6,0.2,2.2,1,2.2
					C1023.8,765.3,1025,762.1,1025,760.3z"/>
				<path class="st4" d="M1035.9,764.3c-0.8,1.1-1.9,1.7-2.4,1.7c-0.5,0-0.7-0.4-0.4-1.9l0.2-1.2c-0.6,1-1.5,1.9-2,2.3
					c-0.5,0.4-1.2,0.8-1.8,0.8c-0.6,0-1.1-0.7-1.1-2.1c0-1.6,0.7-3.4,1.9-4.4c0.9-0.8,2.1-1.3,3.2-1.3c0.9,0,1.6,0.3,2,0.3
					c-0.3,1.1-0.9,3.7-1.2,5.7c-0.1,0.5-0.1,0.7,0.1,0.7c0.2,0,0.6-0.3,1.2-0.9L1035.9,764.3z M1032.8,762.9c0.4-0.5,0.8-1.3,1-2
					c0.2-0.6,0.3-1.3,0.4-1.7c-0.2-0.1-0.8-0.3-1.3-0.3c-2,0-2.9,2.6-2.9,4.8c0,0.7,0.2,1.2,0.5,1.2
					C1031,764.9,1031.7,764.3,1032.8,762.9z"/>
				<path class="st4" d="M1038.3,766c-0.5,0-0.9-0.4-0.9-0.9c0-0.6,0.5-1.1,1.1-1.1c0.5,0,0.9,0.4,0.9,1
					C1039.3,765.6,1038.8,766,1038.3,766z"/>
				<path class="st4" d="M1046.3,759c-0.3,0-1.2,0.1-1.7,0.1c-0.8,3.5-1,4.6-1.1,5.1c-0.1,0.5,0,0.7,0.2,0.7c0.3,0,0.9-0.4,1.5-1.1
					l0.2,0.4c-0.5,0.8-1.9,1.8-2.6,1.8c-0.6,0-0.9-0.5-0.4-2.5l1-4.5h-1.4v-0.2l0.5-0.5h1l0.4-1.8c0.3-0.2,1-0.6,1.3-0.9l0.2,0.1
					c-0.2,0.7-0.5,1.8-0.7,2.7h1.9L1046.3,759z"/>
				<path class="st4" d="M1052.3,759.1c0,0.3-0.2,0.7-0.5,0.8c-0.2,0.1-0.3,0-0.4-0.1c-0.5-0.5-0.9-0.8-1.3-0.8
					c-0.4,0-0.9,0.4-0.9,1c0,0.6,0.5,1,1.1,1.4c1,0.8,1.5,1.2,1.5,2c0,1.4-1.8,2.6-3.1,2.6c-0.8,0-1.6-0.6-1.6-1.2
					c0-0.4,0.4-0.8,0.7-0.9c0.1,0,0.2,0.1,0.3,0.2c0.4,0.6,0.9,1,1.5,1c0.7,0,1.1-0.5,1.1-1.1c0-0.4-0.2-0.8-1-1.5
					c-0.8-0.6-1.5-1.1-1.5-2c0-0.5,0.2-1.1,0.9-1.6c0.5-0.5,1.3-0.8,1.9-0.8C1051.7,758.2,1052.3,758.6,1052.3,759.1z"/>
				<path class="st4" d="M1053.8,759.8c0.6-0.9,1.5-1.6,2.1-1.6c0.4,0,0.7,0.5,0.7,1.9c0.1,1.7,0.1,3.3,0.2,4.4
					c0.8-0.9,2.7-3.2,2.7-4.4c0-0.3-0.2-0.6-0.3-0.8c-0.1-0.1-0.1-0.2,0-0.4c0.1-0.3,0.6-0.7,1-0.7c0.4,0,0.6,0.4,0.6,1
					c0,0.5-0.2,1.3-1,2.4c-1,1.4-2.7,3.3-3.7,4.5h-0.5c-0.1-1.7-0.2-4.1-0.3-5.6c-0.1-0.9-0.2-1.1-0.3-1.1c-0.1,0-0.4,0.2-1,0.8
					L1053.8,759.8z"/>
			</g>
		</g>
	</g>
	<g>
		<g>
			<g>
				<path class="st6" d="M629.6,794.7v0.5l-6.6,3.4V798l5.9-3v0l-5.9-3v-0.6L629.6,794.7z"/>
				<path class="st6" d="M639.7,793.1c0,0.2-0.2,0.6-0.4,0.7c-0.1,0.1-0.2,0-0.3-0.1c-0.4-0.4-0.7-0.6-1.1-0.6
					c-0.4,0-0.8,0.3-0.8,0.8c0,0.5,0.4,0.8,0.9,1.2c0.8,0.7,1.2,1,1.2,1.6c0,1.1-1.5,2.2-2.6,2.2c-0.7,0-1.3-0.5-1.3-1
					c0-0.3,0.3-0.7,0.6-0.7c0.1,0,0.2,0,0.2,0.1c0.4,0.5,0.8,0.8,1.2,0.8c0.6,0,0.9-0.4,0.9-0.9c0-0.3-0.2-0.7-0.8-1.2
					c-0.7-0.5-1.2-0.9-1.2-1.6c0-0.4,0.2-0.9,0.7-1.4c0.4-0.4,1.1-0.7,1.6-0.7C639.3,792.3,639.7,792.7,639.7,793.1z"/>
				<path class="st6" d="M646.8,794.5c0,1.5-0.7,3-2,3.7c-0.5,0.3-1.1,0.6-1.7,0.6c-1.3,0-1.9-1.1-1.9-2.2c0-1.9,1-3.3,2.3-3.9
					c0.4-0.2,1-0.4,1.4-0.4C646.1,792.3,646.8,793.1,646.8,794.5z M642.4,796.5c0,1.1,0.4,1.8,1.2,1.8c1.3,0,2-2.1,2-3.7
					c0-1.2-0.5-1.7-1.2-1.7C643,792.9,642.4,795,642.4,796.5z"/>
				<path class="st6" d="M655,797.3c-0.7,1-1.6,1.4-2,1.4c-0.4,0-0.5-0.3-0.3-1.5c0.1-0.5,0.2-0.8,0.3-1.1c-0.6,0.8-1.2,1.5-1.9,2.1
					c-0.4,0.3-0.9,0.6-1.4,0.6c-0.4,0-1-0.3-0.6-2c0.2-0.9,0.5-1.9,0.7-2.9c0.1-0.4,0.1-0.5,0-0.5c-0.2,0-0.6,0.3-0.9,0.6l-0.2-0.3
					c0.7-0.7,1.6-1.3,2-1.3c0.4,0,0.4,0.4,0.2,1.5c-0.2,0.9-0.5,1.9-0.7,2.8c-0.2,1-0.1,1.2,0.2,1.2c0.5,0,1.3-0.7,2-1.6
					c0.4-0.5,0.8-1.2,1-2c0.1-0.3,0.2-0.9,0.3-1.5c0.3-0.1,0.7-0.2,1-0.4h0.2c-0.4,1.6-0.9,3.8-1.1,5c0,0.3,0,0.5,0.1,0.5
					c0.1,0,0.5-0.2,1-0.7L655,797.3z"/>
				<path class="st6" d="M656.8,793.6c0.7-0.8,1.4-1.3,1.8-1.3c0.5,0,0.4,0.7,0.2,1.9l-0.1,0.4c0.8-1.3,1.7-2.3,2.3-2.3
					c0.3,0,0.6,0.3,0.6,0.6c0,0.3-0.3,0.7-0.5,0.9c-0.1,0.1-0.2,0.1-0.3,0c-0.2-0.2-0.3-0.4-0.5-0.4c-0.3,0-1,1-1.3,1.6
					c-0.5,0.9-0.7,2.2-1,3.5c-0.3,0.1-0.7,0.2-1,0.3l-0.1-0.1c0.3-1.3,0.8-3.4,1-4.4c0.2-0.8,0.1-0.9,0-0.9c-0.1,0-0.5,0.2-0.9,0.6
					L656.8,793.6z"/>
				<path class="st6" d="M667,797.3c-0.9,1-1.9,1.5-2.8,1.5c-0.9,0-1.6-0.7-1.6-2.1c0-1.2,0.5-2.5,1.4-3.4c0.7-0.6,1.6-1.1,2.2-1.1
					c0.6,0,1.1,0.3,1.1,0.6c0,0.3-0.2,0.6-0.5,0.7c-0.1,0.1-0.2,0-0.3-0.1c-0.3-0.4-0.6-0.6-1.1-0.6c-1.1,0-1.7,1.8-1.7,3.4
					c0,1,0.4,1.5,1,1.5c0.7,0,1.6-0.6,2-1.1L667,797.3z"/>
				<path class="st6" d="M670.4,798.8c-0.7,0-1.6-0.4-1.6-2.1c0-1.3,0.6-2.9,1.7-3.7c0.6-0.4,1.3-0.7,1.9-0.7c0.8,0,1.2,0.5,1.2,1.1
					c0,1.4-2.1,2.1-3.6,2.3c0,0.2,0,0.4,0,0.6c0,0.8,0.2,1.6,1.1,1.6c0.6,0,1.4-0.4,2.1-1.1l0.2,0.3
					C672.2,798.5,671.1,798.8,670.4,798.8z M670,795.3c2-0.4,2.5-1,2.5-1.7c0-0.5-0.3-0.7-0.7-0.7
					C671.4,792.9,670.4,793.2,670,795.3z"/>
				<path class="st6" d="M629.6,811.5v0.5l-6.6,3.4v-0.6l5.9-3v0l-5.9-3V808L629.6,811.5z"/>
				<path class="st6" d="M639.7,809.8c-0.3,0-1,0.1-1.4,0.1c-0.6,2.9-0.8,3.8-0.9,4.2c-0.1,0.4,0,0.6,0.1,0.6c0.3,0,0.7-0.4,1.3-0.9
					l0.2,0.4c-0.4,0.7-1.5,1.5-2.1,1.5c-0.5,0-0.7-0.4-0.4-2l0.8-3.7h-1.1v-0.1l0.4-0.4h0.8l0.3-1.5c0.2-0.1,0.8-0.5,1.1-0.8
					l0.1,0.1c-0.2,0.6-0.4,1.5-0.5,2.2h1.6L639.7,809.8z"/>
				<path class="st6" d="M646.8,814.2c-0.7,0.9-1.6,1.4-1.9,1.4s-0.6-0.3-0.3-1.6l0.2-1c-0.5,0.9-1.3,1.6-1.7,1.9
					c-0.4,0.4-1,0.7-1.4,0.7c-0.5,0-0.9-0.6-0.9-1.7c0-1.3,0.6-2.8,1.6-3.6c0.7-0.7,1.7-1.1,2.7-1.1c0.7,0,1.4,0.2,1.6,0.2
					c-0.3,0.9-0.8,3.1-1,4.7c-0.1,0.4,0,0.5,0.1,0.5c0.2,0,0.5-0.2,1-0.7L646.8,814.2z M644.3,813c0.3-0.4,0.7-1.1,0.8-1.7
					c0.1-0.5,0.3-1,0.3-1.4c-0.2-0.1-0.7-0.2-1.1-0.2c-1.7,0-2.4,2.1-2.4,4c0,0.6,0.2,1,0.4,1C642.8,814.6,643.4,814.2,644.3,813z"
					/>
				<path class="st6" d="M648.6,810.4c0.7-0.8,1.4-1.3,1.8-1.3c0.5,0,0.4,0.7,0.2,1.9l-0.1,0.4c0.8-1.3,1.7-2.3,2.3-2.3
					c0.3,0,0.6,0.3,0.6,0.6c0,0.3-0.3,0.7-0.5,0.9c-0.1,0.1-0.2,0.1-0.3,0c-0.2-0.2-0.3-0.4-0.5-0.4c-0.3,0-1,1-1.3,1.6
					c-0.5,0.9-0.7,2.2-1,3.5c-0.3,0.1-0.7,0.2-1,0.3l-0.1-0.1c0.3-1.3,0.8-3.4,1-4.4c0.2-0.8,0.1-0.9,0-0.9c-0.1,0-0.5,0.2-0.9,0.6
					L648.6,810.4z"/>
				<path class="st6" d="M656.3,813.7c-0.2,0.2-0.4,0.3-0.4,0.5c0,0.2,0.3,0.5,1.1,0.9c1.5,0.7,2,1.2,2,1.8c0,1.2-2,2.2-3.4,2.2
					c-1.4,0-2.6-0.7-2.6-1.6c0-0.6,0.8-1.2,2.4-2.1c-0.4-0.2-0.5-0.5-0.5-0.7c0-0.2,0.3-0.6,1-1L656.3,813.7z M658,817.4
					c0-0.3-0.1-0.6-0.7-1c-0.5-0.3-1.2-0.7-1.5-0.8c-1.1,0.6-1.6,1.1-1.6,1.6c0,0.7,0.9,1.2,2,1.2C657.3,818.5,658,818,658,817.4z
					 M654.6,812.1c0-1.1,0.6-2.1,1.4-2.5c0.5-0.3,1.1-0.5,1.5-0.5c0.4,0,0.9,0.1,1.2,0.4c0.8,0,1.3-0.2,1.6-0.3l0.1,0.3
					c-0.4,0.5-0.9,0.6-1.3,0.7c0,0.2,0.1,0.4,0.1,0.6c0,1-0.5,1.8-1,2.2c-0.6,0.5-1.4,0.8-2.1,0.8
					C655.1,813.8,654.6,813,654.6,812.1z M658.1,811c0-0.9-0.4-1.4-1-1.4c-0.8,0-1.5,1.1-1.5,2.3c0,0.8,0.4,1.3,0.9,1.3
					C657.4,813.2,658.1,812.2,658.1,811z"/>
				<path class="st6" d="M662.7,815.6c-0.7,0-1.6-0.4-1.6-2.1c0-1.3,0.6-2.9,1.7-3.7c0.6-0.4,1.3-0.7,1.9-0.7c0.8,0,1.2,0.5,1.2,1.1
					c0,1.4-2.1,2.1-3.6,2.3c0,0.2,0,0.4,0,0.6c0,0.8,0.2,1.6,1.1,1.6c0.6,0,1.4-0.4,2.1-1.1l0.2,0.3
					C664.5,815.3,663.4,815.6,662.7,815.6z M662.3,812.1c2-0.4,2.5-1,2.5-1.7c0-0.5-0.3-0.7-0.7-0.7
					C663.7,809.7,662.7,810,662.3,812.1z"/>
				<path class="st6" d="M671.2,809.8c-0.3,0-1,0.1-1.4,0.1c-0.6,2.9-0.8,3.8-0.9,4.2c-0.1,0.4,0,0.6,0.1,0.6c0.3,0,0.7-0.4,1.3-0.9
					l0.2,0.4c-0.4,0.7-1.5,1.5-2.1,1.5c-0.5,0-0.7-0.4-0.4-2l0.8-3.7h-1.1v-0.1l0.4-0.4h0.8l0.3-1.5c0.2-0.1,0.8-0.5,1.1-0.8
					l0.1,0.1c-0.2,0.6-0.4,1.5-0.5,2.2h1.6L671.2,809.8z"/>
				<path class="st6" d="M629.6,828.3v0.5l-6.6,3.4v-0.6l5.9-3v0l-5.9-3v-0.6L629.6,828.3z"/>
				<path class="st6" d="M642.2,831c-0.7,0.9-1.6,1.4-2,1.4c-0.4,0-0.6-0.3-0.3-1.7l0.2-0.8c-0.8,1.2-2.1,2.5-3.1,2.5
					c-0.5,0-1.1-0.5-1.1-1.8c0-1.2,0.6-2.8,1.6-3.7c0.6-0.5,1.7-1,2.3-1c0.3,0,0.7,0,1,0.2l0.5-2.4c0.1-0.6,0-0.6-0.5-0.7
					c-0.1,0-0.4,0-0.5,0l0.1-0.4c0.7-0.1,1.4-0.2,1.8-0.4c0.2-0.1,0.3-0.1,0.4-0.1c0.1,0,0.1,0.1,0.1,0.4c-0.6,2.8-1.3,5.7-1.8,8.3
					c-0.1,0.4,0,0.5,0.1,0.5c0.2,0,0.5-0.2,1-0.7L642.2,831z M639.8,829.7c0.3-0.4,0.5-0.8,0.7-1.5l0.3-1.2
					c-0.2-0.2-0.7-0.4-1.3-0.4c-1.6,0-2.3,2.3-2.3,3.8c0,0.8,0.2,1.2,0.6,1.2C638.3,831.5,639.1,830.7,639.8,829.7z"/>
				<path class="st6" d="M645.6,832.4c-0.7,0-1.6-0.4-1.6-2.1c0-1.3,0.6-2.9,1.7-3.7c0.6-0.4,1.3-0.7,1.9-0.7c0.8,0,1.2,0.5,1.2,1.1
					c0,1.4-2.1,2.1-3.6,2.3c0,0.2,0,0.4,0,0.6c0,0.8,0.2,1.6,1.1,1.6c0.6,0,1.4-0.4,2.1-1.1l0.2,0.4
					C647.4,832.1,646.3,832.4,645.6,832.4z M645.2,828.9c2-0.4,2.5-1,2.5-1.7c0-0.5-0.3-0.7-0.7-0.7
					C646.6,826.5,645.6,826.8,645.2,828.9z"/>
				<path class="st6" d="M652.8,826.1c0.4-0.1,0.9-0.2,1.3-0.2c1.5,0,2,0.7,2,1.9c0,1-0.4,2-1.2,2.9c-0.7,0.8-1.7,1.4-2.6,1.6
					c-0.2,0-0.5,0-0.8-0.1l-0.4,2c-0.2,0.8-0.1,0.9,0.6,1l0.4,0l-0.1,0.4l-3.3,0.2l0.1-0.4c1-0.2,1.1-0.3,1.2-1.1
					c0.5-2.5,1.1-4.9,1.6-7.3c-0.4,0.2-0.8,0.3-1.1,0.5l-0.1-0.4c0.4-0.3,0.9-0.5,1.4-0.7l0.2-0.6c0.3-0.3,0.7-0.6,1-0.8l0.1,0.1
					L652.8,826.1z M651.7,831.3c0.2,0.2,0.5,0.5,0.9,0.5c1,0,2.4-1.9,2.4-3.7c0-1.2-0.7-1.6-1.5-1.6c-0.2,0-0.5,0-0.8,0.1
					C652.4,828,652,829.9,651.7,831.3z"/>
				<path class="st6" d="M661.7,826.6c-0.3,0-1,0.1-1.4,0.1c-0.6,2.9-0.8,3.8-0.9,4.2c-0.1,0.4,0,0.6,0.1,0.6c0.3,0,0.7-0.4,1.3-0.9
					l0.2,0.3c-0.4,0.7-1.5,1.5-2.1,1.5c-0.5,0-0.7-0.4-0.4-2l0.8-3.7h-1.1v-0.1l0.4-0.4h0.8l0.3-1.5c0.2-0.1,0.8-0.5,1.1-0.8
					l0.1,0.1c-0.2,0.6-0.4,1.5-0.5,2.2h1.6L661.7,826.6z"/>
				<path class="st6" d="M663.6,822.6c0.7-0.1,1.3-0.2,1.7-0.4c0.2-0.1,0.3-0.1,0.4-0.1c0.1,0,0.1,0.1,0.1,0.5
					c-0.4,1.8-0.9,4-1.3,5.8c1.1-1.6,2.5-2.5,3.4-2.5c0.5,0,0.9,0.2,0.5,2c-0.2,0.9-0.5,2-0.7,2.9c-0.1,0.4-0.1,0.5,0,0.5
					c0.1,0,0.5-0.2,1-0.7l0.2,0.3c-0.7,0.9-1.6,1.4-2,1.4c-0.4,0-0.5-0.4-0.3-1.4c0.3-1,0.5-2.2,0.8-3.2c0.2-0.8,0.1-1-0.2-1
					c-0.5,0-1.6,0.7-2.5,2.2c-0.3,0.4-0.4,0.7-0.5,1.2c-0.1,0.6-0.3,1.4-0.4,1.9c-0.3,0.1-0.7,0.2-1,0.3l-0.1-0.1
					c0.6-2.7,1.3-6.1,1.8-8.6c0.1-0.6,0-0.6-0.4-0.6c-0.2,0-0.5,0-0.6,0L663.6,822.6z"/>
			</g>
		</g>
	</g>
	<g>
		<text transform="matrix(1 0 0 1 622.1237 761.2294)"><tspan x="0" y="0" class="st1 st2 st3">the file includes </tspan><tspan x="0" y="16.8" class="st1 st2 st3">the below elements</tspan></text>
	</g>
	<g>
		<g>
			<g>
				<path class="st6" d="M1139.8,794.7v0.5l-6.6,3.4V798l5.9-3v0l-5.9-3v-0.6L1139.8,794.7z"/>
				<path class="st6" d="M1150,793.1c0,0.2-0.2,0.6-0.4,0.7c-0.1,0.1-0.2,0-0.3-0.1c-0.4-0.4-0.7-0.6-1.1-0.6
					c-0.4,0-0.8,0.3-0.8,0.8c0,0.5,0.4,0.8,0.9,1.2c0.8,0.7,1.2,1,1.2,1.6c0,1.1-1.5,2.2-2.6,2.2c-0.7,0-1.3-0.5-1.3-1
					c0-0.3,0.3-0.7,0.6-0.7c0.1,0,0.2,0,0.2,0.1c0.4,0.5,0.8,0.8,1.2,0.8c0.6,0,0.9-0.4,0.9-0.9c0-0.3-0.2-0.7-0.8-1.2
					c-0.7-0.5-1.2-0.9-1.2-1.6c0-0.4,0.2-0.9,0.7-1.4c0.4-0.4,1.1-0.7,1.6-0.7C1149.5,792.3,1150,792.7,1150,793.1z"/>
				<path class="st6" d="M1157,794.5c0,1.5-0.7,3-2,3.7c-0.5,0.3-1.1,0.6-1.7,0.6c-1.3,0-1.9-1.1-1.9-2.2c0-1.9,1-3.3,2.3-3.9
					c0.4-0.2,1-0.4,1.4-0.4C1156.3,792.3,1157,793.1,1157,794.5z M1152.6,796.5c0,1.1,0.4,1.8,1.2,1.8c1.3,0,2-2.1,2-3.7
					c0-1.2-0.5-1.7-1.2-1.7C1153.2,792.9,1152.6,795,1152.6,796.5z"/>
				<path class="st6" d="M1165.2,797.3c-0.7,1-1.6,1.4-2,1.4c-0.4,0-0.5-0.3-0.3-1.5c0.1-0.5,0.2-0.8,0.3-1.1
					c-0.6,0.8-1.2,1.5-1.9,2.1c-0.4,0.3-0.9,0.6-1.4,0.6c-0.4,0-1-0.3-0.6-2c0.2-0.9,0.5-1.9,0.7-2.9c0.1-0.4,0.1-0.5,0-0.5
					c-0.2,0-0.6,0.3-0.9,0.6l-0.2-0.3c0.7-0.7,1.6-1.3,2-1.3c0.4,0,0.4,0.4,0.2,1.5c-0.2,0.9-0.5,1.9-0.7,2.8
					c-0.2,1-0.1,1.2,0.2,1.2c0.5,0,1.3-0.7,2-1.6c0.4-0.5,0.8-1.2,1-2c0.1-0.3,0.2-0.9,0.3-1.5c0.3-0.1,0.7-0.2,1-0.4h0.2
					c-0.4,1.6-0.9,3.8-1.1,5c0,0.3,0,0.5,0.1,0.5c0.1,0,0.5-0.2,1-0.7L1165.2,797.3z"/>
				<path class="st6" d="M1167,793.6c0.7-0.8,1.4-1.3,1.8-1.3c0.5,0,0.4,0.7,0.2,1.9l-0.1,0.4c0.8-1.3,1.7-2.3,2.3-2.3
					c0.3,0,0.6,0.3,0.6,0.6c0,0.3-0.3,0.7-0.5,0.9c-0.1,0.1-0.2,0.1-0.3,0c-0.2-0.2-0.3-0.4-0.5-0.4c-0.3,0-1,1-1.3,1.6
					c-0.5,0.9-0.7,2.2-1,3.5c-0.3,0.1-0.7,0.2-1,0.3l-0.1-0.1c0.3-1.3,0.8-3.4,1-4.4c0.2-0.8,0.1-0.9,0-0.9c-0.1,0-0.5,0.2-0.9,0.6
					L1167,793.6z"/>
				<path class="st6" d="M1177.2,797.3c-0.9,1-1.9,1.5-2.8,1.5c-0.9,0-1.6-0.7-1.6-2.1c0-1.2,0.5-2.5,1.4-3.4
					c0.7-0.6,1.6-1.1,2.2-1.1c0.6,0,1.1,0.3,1.1,0.6c0,0.3-0.2,0.6-0.5,0.7c-0.1,0.1-0.2,0-0.3-0.1c-0.3-0.4-0.6-0.6-1.1-0.6
					c-1.1,0-1.7,1.8-1.7,3.4c0,1,0.4,1.5,1,1.5c0.7,0,1.6-0.6,2-1.1L1177.2,797.3z"/>
				<path class="st6" d="M1180.6,798.8c-0.7,0-1.6-0.4-1.6-2.1c0-1.3,0.6-2.9,1.7-3.7c0.6-0.4,1.3-0.7,1.9-0.7
					c0.8,0,1.2,0.5,1.2,1.1c0,1.4-2.1,2.1-3.6,2.3c0,0.2,0,0.4,0,0.6c0,0.8,0.2,1.6,1.1,1.6c0.6,0,1.4-0.4,2.1-1.1l0.2,0.3
					C1182.4,798.5,1181.3,798.8,1180.6,798.8z M1180.2,795.3c2-0.4,2.5-1,2.5-1.7c0-0.5-0.3-0.7-0.7-0.7
					C1181.6,792.9,1180.6,793.2,1180.2,795.3z"/>
				<path class="st6" d="M1139.8,811.5v0.5l-6.6,3.4v-0.6l5.9-3v0l-5.9-3V808L1139.8,811.5z"/>
				<path class="st6" d="M1149.9,809.8c-0.3,0-1,0.1-1.4,0.1c-0.6,2.9-0.8,3.8-0.9,4.2c-0.1,0.4,0,0.6,0.1,0.6
					c0.3,0,0.7-0.4,1.3-0.9l0.2,0.4c-0.4,0.7-1.5,1.5-2.1,1.5c-0.5,0-0.7-0.4-0.4-2l0.8-3.7h-1.1v-0.1l0.4-0.4h0.8l0.3-1.5
					c0.2-0.1,0.8-0.5,1.1-0.8l0.1,0.1c-0.2,0.6-0.4,1.5-0.5,2.2h1.6L1149.9,809.8z"/>
				<path class="st6" d="M1157.1,814.2c-0.7,0.9-1.6,1.4-1.9,1.4s-0.6-0.3-0.3-1.6l0.2-1c-0.5,0.9-1.3,1.6-1.7,1.9
					c-0.4,0.4-1,0.7-1.4,0.7c-0.5,0-0.9-0.6-0.9-1.7c0-1.3,0.6-2.8,1.6-3.6c0.7-0.7,1.7-1.1,2.7-1.1c0.7,0,1.4,0.2,1.6,0.2
					c-0.3,0.9-0.8,3.1-1,4.7c-0.1,0.4,0,0.5,0.1,0.5c0.2,0,0.5-0.2,1-0.7L1157.1,814.2z M1154.5,813c0.3-0.4,0.7-1.1,0.8-1.7
					c0.1-0.5,0.3-1,0.3-1.4c-0.2-0.1-0.7-0.2-1.1-0.2c-1.7,0-2.4,2.1-2.4,4c0,0.6,0.2,1,0.4,1C1153,814.6,1153.6,814.2,1154.5,813z"
					/>
				<path class="st6" d="M1158.8,810.4c0.7-0.8,1.4-1.3,1.8-1.3c0.5,0,0.4,0.7,0.2,1.9l-0.1,0.4c0.8-1.3,1.7-2.3,2.3-2.3
					c0.3,0,0.6,0.3,0.6,0.6c0,0.3-0.3,0.7-0.5,0.9c-0.1,0.1-0.2,0.1-0.3,0c-0.2-0.2-0.3-0.4-0.5-0.4c-0.3,0-1,1-1.3,1.6
					c-0.5,0.9-0.7,2.2-1,3.5c-0.3,0.1-0.7,0.2-1,0.3l-0.1-0.1c0.3-1.3,0.8-3.4,1-4.4c0.2-0.8,0.1-0.9,0-0.9c-0.1,0-0.5,0.2-0.9,0.6
					L1158.8,810.4z"/>
				<path class="st6" d="M1166.5,813.7c-0.2,0.2-0.4,0.3-0.4,0.5c0,0.2,0.3,0.5,1.1,0.9c1.5,0.7,2,1.2,2,1.8c0,1.2-2,2.2-3.4,2.2
					c-1.4,0-2.6-0.7-2.6-1.6c0-0.6,0.8-1.2,2.4-2.1c-0.4-0.2-0.5-0.5-0.5-0.7c0-0.2,0.3-0.6,1-1L1166.5,813.7z M1168.2,817.4
					c0-0.3-0.1-0.6-0.7-1c-0.5-0.3-1.2-0.7-1.5-0.8c-1.1,0.6-1.6,1.1-1.6,1.6c0,0.7,0.9,1.2,2,1.2
					C1167.5,818.5,1168.2,818,1168.2,817.4z M1164.8,812.1c0-1.1,0.6-2.1,1.4-2.5c0.5-0.3,1.1-0.5,1.5-0.5c0.4,0,0.9,0.1,1.2,0.4
					c0.8,0,1.3-0.2,1.6-0.3l0.1,0.3c-0.4,0.5-0.9,0.6-1.3,0.7c0,0.2,0.1,0.4,0.1,0.6c0,1-0.5,1.8-1,2.2c-0.6,0.5-1.4,0.8-2.1,0.8
					C1165.3,813.8,1164.8,813,1164.8,812.1z M1168.3,811c0-0.9-0.4-1.4-1-1.4c-0.8,0-1.5,1.1-1.5,2.3c0,0.8,0.4,1.3,0.9,1.3
					C1167.6,813.2,1168.3,812.2,1168.3,811z"/>
				<path class="st6" d="M1172.9,815.6c-0.7,0-1.6-0.4-1.6-2.1c0-1.3,0.6-2.9,1.7-3.7c0.6-0.4,1.3-0.7,1.9-0.7
					c0.8,0,1.2,0.5,1.2,1.1c0,1.4-2.1,2.1-3.6,2.3c0,0.2,0,0.4,0,0.6c0,0.8,0.2,1.6,1.1,1.6c0.6,0,1.4-0.4,2.1-1.1l0.2,0.3
					C1174.7,815.3,1173.6,815.6,1172.9,815.6z M1172.5,812.1c2-0.4,2.5-1,2.5-1.7c0-0.5-0.3-0.7-0.7-0.7
					C1173.9,809.7,1173,810,1172.5,812.1z"/>
				<path class="st6" d="M1181.4,809.8c-0.3,0-1,0.1-1.4,0.1c-0.6,2.9-0.8,3.8-0.9,4.2c-0.1,0.4,0,0.6,0.1,0.6
					c0.3,0,0.7-0.4,1.3-0.9l0.2,0.4c-0.4,0.7-1.5,1.5-2.1,1.5c-0.5,0-0.7-0.4-0.4-2l0.8-3.7h-1.1v-0.1l0.4-0.4h0.8l0.3-1.5
					c0.2-0.1,0.8-0.5,1.1-0.8l0.1,0.1c-0.2,0.6-0.4,1.5-0.5,2.2h1.6L1181.4,809.8z"/>
				<path class="st6" d="M1139.8,828.3v0.5l-6.6,3.4v-0.6l5.9-3v0l-5.9-3v-0.6L1139.8,828.3z"/>
				<path class="st6" d="M1152.4,831c-0.7,0.9-1.6,1.4-2,1.4c-0.4,0-0.6-0.3-0.3-1.7l0.2-0.8c-0.8,1.2-2.1,2.5-3.1,2.5
					c-0.5,0-1.1-0.5-1.1-1.8c0-1.2,0.6-2.8,1.6-3.7c0.6-0.5,1.7-1,2.3-1c0.3,0,0.7,0,1,0.2l0.5-2.4c0.1-0.6,0-0.6-0.5-0.7
					c-0.1,0-0.4,0-0.5,0l0.1-0.4c0.7-0.1,1.4-0.2,1.8-0.4c0.2-0.1,0.3-0.1,0.4-0.1c0.1,0,0.1,0.1,0.1,0.4c-0.6,2.8-1.3,5.7-1.8,8.3
					c-0.1,0.4,0,0.5,0.1,0.5c0.2,0,0.5-0.2,1-0.7L1152.4,831z M1150,829.7c0.3-0.4,0.5-0.8,0.7-1.5l0.3-1.2
					c-0.2-0.2-0.7-0.4-1.3-0.4c-1.6,0-2.3,2.3-2.3,3.8c0,0.8,0.2,1.2,0.6,1.2C1148.5,831.5,1149.3,830.7,1150,829.7z"/>
				<path class="st6" d="M1155.8,832.4c-0.7,0-1.6-0.4-1.6-2.1c0-1.3,0.6-2.9,1.7-3.7c0.6-0.4,1.3-0.7,1.9-0.7
					c0.8,0,1.2,0.5,1.2,1.1c0,1.4-2.1,2.1-3.6,2.3c0,0.2,0,0.4,0,0.6c0,0.8,0.2,1.6,1.1,1.6c0.6,0,1.4-0.4,2.1-1.1l0.2,0.4
					C1157.6,832.1,1156.5,832.4,1155.8,832.4z M1155.4,828.9c2-0.4,2.5-1,2.5-1.7c0-0.5-0.3-0.7-0.7-0.7
					C1156.8,826.5,1155.8,826.8,1155.4,828.9z"/>
				<path class="st6" d="M1163,826.1c0.4-0.1,0.9-0.2,1.3-0.2c1.5,0,2,0.7,2,1.9c0,1-0.4,2-1.2,2.9c-0.7,0.8-1.7,1.4-2.6,1.6
					c-0.2,0-0.5,0-0.8-0.1l-0.4,2c-0.2,0.8-0.1,0.9,0.6,1l0.4,0l-0.1,0.4l-3.3,0.2l0.1-0.4c1-0.2,1.1-0.3,1.2-1.1
					c0.5-2.5,1.1-4.9,1.6-7.3c-0.4,0.2-0.8,0.3-1.1,0.5l-0.1-0.4c0.4-0.3,0.9-0.5,1.4-0.7l0.2-0.6c0.3-0.3,0.7-0.6,1-0.8l0.1,0.1
					L1163,826.1z M1161.9,831.3c0.2,0.2,0.5,0.5,0.9,0.5c1,0,2.4-1.9,2.4-3.7c0-1.2-0.7-1.6-1.5-1.6c-0.2,0-0.5,0-0.8,0.1
					C1162.6,828,1162.2,829.9,1161.9,831.3z"/>
				<path class="st6" d="M1171.9,826.6c-0.3,0-1,0.1-1.4,0.1c-0.6,2.9-0.8,3.8-0.9,4.2c-0.1,0.4,0,0.6,0.1,0.6
					c0.3,0,0.7-0.4,1.3-0.9l0.2,0.3c-0.4,0.7-1.5,1.5-2.1,1.5c-0.5,0-0.7-0.4-0.4-2l0.8-3.7h-1.1v-0.1l0.4-0.4h0.8l0.3-1.5
					c0.2-0.1,0.8-0.5,1.1-0.8l0.1,0.1c-0.2,0.6-0.4,1.5-0.5,2.2h1.6L1171.9,826.6z"/>
				<path class="st6" d="M1173.8,822.6c0.7-0.1,1.3-0.2,1.7-0.4c0.2-0.1,0.3-0.1,0.4-0.1c0.1,0,0.1,0.1,0.1,0.5
					c-0.4,1.8-0.9,4-1.3,5.8c1.1-1.6,2.5-2.5,3.4-2.5c0.5,0,0.9,0.2,0.5,2c-0.2,0.9-0.5,2-0.7,2.9c-0.1,0.4-0.1,0.5,0,0.5
					c0.1,0,0.5-0.2,1-0.7l0.2,0.3c-0.7,0.9-1.6,1.4-2,1.4c-0.4,0-0.5-0.4-0.3-1.4c0.3-1,0.5-2.2,0.8-3.2c0.2-0.8,0.1-1-0.2-1
					c-0.5,0-1.6,0.7-2.5,2.2c-0.3,0.4-0.4,0.7-0.5,1.2c-0.1,0.6-0.3,1.4-0.4,1.9c-0.3,0.1-0.7,0.2-1,0.3l-0.1-0.1
					c0.6-2.7,1.3-6.1,1.8-8.6c0.1-0.6,0-0.6-0.4-0.6c-0.2,0-0.5,0-0.6,0L1173.8,822.6z"/>
			</g>
		</g>
	</g>
	<g>
		<text transform="matrix(1 0 0 1 1132.3278 761.2294)"><tspan x="0" y="0" class="st1 st2 st3">the file includes </tspan><tspan x="0" y="16.8" class="st1 st2 st3">the below elements</tspan></text>
	</g>
	<path class="st11" d="M597.8,753.6c0-4.1,0-4.1-3.5-4.1H580c-1.8,0-3.3,1.5-3.3,3.3V768c0,4.1,0,4.1,3.5,4.1h14.3
		c1.8,0,3.3-1.5,3.3-3.3V753.6z"/>
	<line class="st12" x1="581.7" y1="761.3" x2="592.8" y2="761.3"/>
	<line class="st12" x1="581.7" y1="757" x2="592.8" y2="757"/>
	<line class="st12" x1="581.7" y1="765.6" x2="592.8" y2="765.6"/>
	<path class="st11" d="M1106.4,753.6c0-4.1,0-4.1-3.5-4.1h-14.3c-1.8,0-3.3,1.5-3.3,3.3V768c0,4.1,0,4.1,3.5,4.1h14.3
		c1.8,0,3.3-1.5,3.3-3.3V753.6z"/>
	<line class="st12" x1="1090.4" y1="761.3" x2="1101.4" y2="761.3"/>
	<line class="st12" x1="1090.4" y1="757" x2="1101.4" y2="757"/>
	<line class="st12" x1="1090.4" y1="765.6" x2="1101.4" y2="765.6"/>
	<g>
		<text transform="matrix(1 0 0 1 450.7233 1134.5236)"><tspan x="0" y="0" class="st4 st2 st13">vis.</tspan><tspan x="-55.7" y="22.8" class="st4 st2 st13">Tencent network</tspan></text>
	</g>
	<g>
		<text transform="matrix(1 0 0 1 963.5881 1134.5236)"><tspan x="0" y="0" class="st4 st2 st13">vis.</tspan><tspan x="-55.4" y="22.8" class="st4 st2 st13">Alibaba network</tspan></text>
	</g>
	<g>
		<g>
			<path class="st7" d="M978.7,735.1c-0.3-22-18.2-39.7-40.2-39.7H464.7v39.7"/>
			<g>
				<polygon class="st8" points="980.6,733.4 980.3,733 978.7,734.9 976.9,733.2 976.6,733.6 978.7,735.7 				"/>
			</g>
			<g>
				<polygon class="st8" points="462.7,733.5 463.1,733.1 464.7,734.9 466.4,733.1 466.8,733.5 464.7,735.7 				"/>
			</g>
		</g>
	</g>
	<g>
		<g>
			<line class="st7" x1="465.4" y1="937.5" x2="465.4" y2="994.2"/>
			<g>
				<polygon class="st8" points="463.3,992.5 463.7,992.2 465.4,994 467.1,992.2 467.4,992.5 465.4,994.7 				"/>
			</g>
		</g>
	</g>
	<g>
		<text transform="matrix(1 0 0 1 388.7018 1026.7413)" class="st6 st2 st5" style="text-decoration: underline;">Adobe Illustrator</text>
	</g>
	<g>
		<text transform="matrix(1 0 0 1 439.5993 895.033)" class="st6 st2 st5" style="text-decoration: underline;">Gephi</text>
	</g>
	<g>
		<path class="st9" d="M484.1,1180.4c-4.6-8.5-12.3-13.6-20.6-13.6c-8.3,0-16,5.1-20.6,13.6l-0.2,0.5l0.2,0.5
			c4.6,8.5,12.3,13.6,20.6,13.6c8.3,0,16-5.1,20.6-13.6l0.2-0.5L484.1,1180.4z"/>
		<path class="st14" d="M472.8,1180.8c0-5.1-4.2-9.3-9.3-9.3c-5.1,0-9.3,4.2-9.3,9.3c0,5.1,4.2,9.3,9.3,9.3
			C468.6,1190.1,472.8,1185.9,472.8,1180.8z M457.3,1180.8c0-3.4,2.8-6.3,6.3-6.3c3.5,0,6.3,2.8,6.3,6.3s-2.8,6.3-6.3,6.3
			C460.1,1187.1,457.3,1184.3,457.3,1180.8z"/>
	</g>
	<g>
		<path class="st9" d="M998.8,1180.4c-4.6-8.5-12.3-13.6-20.6-13.6c-8.3,0-16,5.1-20.6,13.6l-0.2,0.5l0.2,0.5
			c4.6,8.5,12.3,13.6,20.6,13.6c8.3,0,16-5.1,20.6-13.6l0.2-0.5L998.8,1180.4z"/>
		<path class="st14" d="M987.5,1180.8c0-5.1-4.2-9.3-9.3-9.3c-5.1,0-9.3,4.2-9.3,9.3c0,5.1,4.2,9.3,9.3,9.3
			C983.4,1190.1,987.5,1185.9,987.5,1180.8z M972,1180.8c0-3.4,2.8-6.3,6.3-6.3c3.5,0,6.3,2.8,6.3,6.3s-2.8,6.3-6.3,6.3
			C974.8,1187.1,972,1184.3,972,1180.8z"/>
	</g>
	<g>
		<g>
			<line class="st7" x1="464.7" y1="1045.3" x2="464.7" y2="1107.4"/>
			<g>
				<polygon class="st8" points="462.7,1105.8 463.1,1105.4 464.7,1107.2 466.4,1105.4 466.8,1105.8 464.7,1108 				"/>
			</g>
		</g>
	</g>
	<g>
		<g>
			<line class="st7" x1="978.2" y1="789.3" x2="978.2" y2="872.8"/>
			<g>
				<polygon class="st8" points="976.2,871.2 976.6,870.8 978.2,872.7 979.9,870.8 980.3,871.2 978.2,873.4 				"/>
			</g>
		</g>
	</g>
	<g>
		<g>
			<line class="st7" x1="979" y1="937.5" x2="979" y2="994.2"/>
			<g>
				<polygon class="st8" points="976.9,992.5 977.3,992.2 979,994 980.7,992.2 981,992.5 979,994.7 				"/>
			</g>
		</g>
	</g>
	<g>
		<text transform="matrix(1 0 0 1 902.3034 1026.7413)" class="st6 st2 st5" style="text-decoration: underline;">Adobe Illustrator</text>
	</g>
	<g>
		<text transform="matrix(1 0 0 1 953.2009 895.033)" class="st6 st2 st5" style="text-decoration: underline;">Gephi</text>
	</g>
	<g>
		<g>
			<line class="st7" x1="978.3" y1="1045.3" x2="978.3" y2="1107.4"/>
			<g>
				<polygon class="st8" points="976.3,1105.8 976.7,1105.4 978.3,1107.2 980,1105.4 980.4,1105.8 978.3,1108 				"/>
			</g>
		</g>
	</g>
	<g>
		<text transform="matrix(1 0 0 1 427.4406 921.2063)" class="st1 st2 st3">ForceAtlas</text>
	</g>
	<g>
		<text transform="matrix(1 0 0 1 942.2316 921.2063)" class="st1 st2 st3">ForceAtlas</text>
	</g>
</g>
<g id="图层_2">
</g>
</svg>
