<?xml version="1.0" encoding="utf-8"?>
<!-- Generator: Adobe Illustrator 22.1.0, SVG Export Plug-In . SVG Version: 6.00 Build 0)  -->
<svg version="1.1" id="图层_1" xmlns="http://www.w3.org/2000/svg" xmlns:xlink="http://www.w3.org/1999/xlink" x="0px" y="0px"
	 viewBox="0 0 1356.4 1286" style="enable-background:new 0 0 1356.4 1286;" xml:space="preserve">
<style type="text/css">
	.st0{fill:#A7CADC;}
	.st1{fill:none;stroke:#F9F9F9;stroke-width:1.3;stroke-linecap:round;stroke-miterlimit:10;}
	.st2{opacity:0.5;}
	.st3{fill:#99979B;}
	.st4{font-family:'Georgia-Italic';}
	.st5{font-size:14px;}
	.st6{fill:#4F4C51;}
	.st7{font-size:18px;}
	.st8{fill:#6B98AA;}
	.st9{fill:none;stroke:#020202;stroke-width:0.5;stroke-miterlimit:10;}
	.st10{fill:#020202;}
	.st11{fill:none;stroke:#B2C5DE;stroke-width:5;stroke-miterlimit:10;}
	.st12{fill:#E2CAE8;}
	.st13{font-size:16px;}
	.st14{font-size:17px;}
	.st15{fill:#FFFFFF;}
	.st16{font-size:15px;}
</style>
<g>
	<path class="st0" d="M695.5,364.1c0-4.1,0-4.1-3.5-4.1h-14.3c-1.8,0-3.3,1.5-3.3,3.3v15.2c0,4.1,0,4.1,3.5,4.1h14.3
		c1.8,0,3.3-1.5,3.3-3.3V364.1z"/>
	<line class="st1" x1="679.4" y1="371.7" x2="690.5" y2="371.7"/>
	<line class="st1" x1="679.4" y1="367.5" x2="690.5" y2="367.5"/>
	<line class="st1" x1="679.4" y1="376" x2="690.5" y2="376"/>
</g>
<g class="st2">
	<path class="st0" d="M705.5,359.2c0-4.1,0-4.1-3.5-4.1h-14.3c-1.8,0-3.3,1.5-3.3,3.3v15.2c0,4.1,0,4.1,3.5,4.1h14.3
		c1.8,0,3.3-1.5,3.3-3.3V359.2z"/>
	<line class="st1" x1="689.5" y1="366.8" x2="700.5" y2="366.8"/>
	<line class="st1" x1="689.5" y1="362.5" x2="700.5" y2="362.5"/>
	<line class="st1" x1="689.5" y1="371.1" x2="700.5" y2="371.1"/>
	<path class="st0" d="M700.5,361.6c0-4.1,0-4.1-3.5-4.1h-14.3c-1.8,0-3.3,1.5-3.3,3.3V376c0,4.1,0,4.1,3.5,4.1h14.3
		c1.8,0,3.3-1.5,3.3-3.3V361.6z"/>
	<line class="st1" x1="684.5" y1="369.3" x2="695.5" y2="369.3"/>
	<line class="st1" x1="684.5" y1="365" x2="695.5" y2="365"/>
	<line class="st1" x1="684.5" y1="373.6" x2="695.5" y2="373.6"/>
</g>
<g>
	<text transform="matrix(1 0 0 1 465.0851 320.4053)" class="st3 st4 st5">mannually collect the websites’ ranking </text>
	<text transform="matrix(1 0 0 1 465.0851 337.2053)" class="st3 st4 st5">data in the lists</text>
</g>
<g>
	<text transform="matrix(1 0 0 1 92.0929 76.1876)" class="st6 st4 st7">How is the Internet companies developed </text>
	<text transform="matrix(1 0 0 1 92.0929 99.1876)" class="st6 st4 st7">globally for recent ten years?</text>
</g>
<g>
	<text transform="matrix(1 0 0 1 464.8947 522.3834)" class="st3 st4 st5">input the excel files into</text>
</g>
<g>
	<text transform="matrix(1 0 0 1 464.0861 234.9561)" class="st3 st4 st5">retain the</text>
	<text transform="matrix(1 0 0 1 464.0861 251.7561)" class="st8 st4 st5">top 50 </text>
	<text transform="matrix(1 0 0 1 512.1861 251.7561)" class="st3 st4 st5">popular websites and the rankings</text>
	<text transform="matrix(1 0 0 1 464.0861 268.5562)" class="st3 st4 st5">during 2012-2019</text>
</g>
<g>
	<g>
		<line class="st9" x1="463.8" y1="273.7" x2="463.8" y2="305.5"/>
		<g>
			<polygon class="st10" points="461.8,303.9 462.1,303.5 463.8,305.4 465.5,303.5 465.8,303.9 463.8,306.1 			"/>
		</g>
	</g>
</g>
<g>
	<g>
		<path class="st9" d="M375.4,93.2H423c22.6,0,40.8,18.3,40.8,40.8v23.4"/>
		<g>
			<polygon class="st10" points="461.8,155.9 462.1,155.5 463.8,157.3 465.5,155.5 465.8,155.9 463.8,158.1 			"/>
		</g>
	</g>
</g>
<g>
	<g>
		<line class="st9" x1="463.8" y1="558.1" x2="463.8" y2="589"/>
		<g>
			<polygon class="st10" points="461.8,587.3 462.1,587 463.8,588.8 465.5,587 465.8,587.3 463.8,589.5 			"/>
		</g>
	</g>
</g>
<line class="st9" x1="463.9" y1="625.8" x2="463.9" y2="765.2"/>
<g>
	<g>
		<line class="st9" x1="463.8" y1="468.8" x2="463.8" y2="500.6"/>
		<g>
			<polygon class="st10" points="461.8,499 462.1,498.6 463.8,500.4 465.5,498.6 465.8,499 463.8,501.2 			"/>
		</g>
	</g>
</g>
<g>
	<text transform="matrix(1 0 0 1 463.9206 178.8961)" class="st8 st4 st7" style="text-decoration: underline;">en.wikipedia.org</text>
</g>
<g>
	<text transform="matrix(1 0 0 1 463.1457 542.7344)" class="st8 st4 st7" style="text-decoration: underline;">Tableau Prep Builder</text>
</g>
<g>
	<g>
		<g>
			<path class="st6" d="M467.5,355.1c0.3-1.6,0.9-2.8,1.9-3.7c0.7-0.6,1.5-1.1,2.5-1.1c1.6,0,2,1,2,1.3c0,0.4-0.3,0.8-0.6,0.8
				c-0.3,0.1-0.6-0.1-0.6-0.3c-0.2-0.7-0.5-1.2-1.3-1.2c-1.4,0-2,1.7-2.4,4.1h2c1.1,0,2-0.1,2.4-0.2l0.1,0.1
				c-0.3,1.2-1.1,4.6-1.4,5.8c-0.1,0.5-0.1,0.6,0,0.6c0.2,0,0.6-0.2,1.2-0.9l0.2,0.4c-0.9,1.1-1.9,1.7-2.4,1.7s-0.6-0.4-0.3-1.8
				c0.3-1.1,0.7-2.7,1-4.1c0.2-0.9,0.2-1.1-0.5-1.1h-2.5c-0.3,1.9-0.5,3-0.9,5c-0.6,3-1.2,4.2-2.1,5.1c-0.8,0.8-1.6,1.1-2,1.1
				c-0.6,0-1.1-0.3-1.1-0.7c0-0.3,0.2-0.7,0.5-0.9c0.1-0.1,0.3-0.1,0.3,0c0.3,0.3,0.7,0.6,1.1,0.6c0.9,0,1.2-1.1,1.8-4.6
				c0.5-2.6,0.7-4.2,1-5.6H466c0-0.1-0.1-0.1-0.1-0.2l0.5-0.5h1.1V355.1z"/>
			<path class="st6" d="M478.9,361c-0.9,1.1-2,1.8-2.5,1.8c-0.4,0-0.7-0.3-0.3-2c0.6-2.9,1.3-6,1.8-8.6c0.1-0.7,0.1-0.7-0.5-0.8
				c-0.2,0-0.5-0.1-0.6-0.1l0.1-0.4c0.7-0.1,1.6-0.3,2.1-0.4c0.3-0.1,0.4-0.1,0.5-0.1s0.2,0.2,0.1,0.5c-0.8,3.3-1.6,7.1-2.2,10
				c-0.1,0.5-0.1,0.6,0.1,0.6s0.6-0.2,1.2-0.9L478.9,361z"/>
			<path class="st6" d="M483,362.7c-0.8,0-1.9-0.5-1.9-2.5c0-1.6,0.7-3.5,2-4.5c0.8-0.5,1.6-0.9,2.3-0.9c1,0,1.5,0.6,1.5,1.4
				c0,1.7-2.5,2.5-4.4,2.8c0,0.2,0,0.5,0,0.7c0,1,0.3,1.9,1.3,1.9c0.8,0,1.7-0.5,2.5-1.3l0.3,0.4C485.2,362.4,483.8,362.7,483,362.7
				z M482.6,358.5c2.5-0.4,3-1.2,3.1-2c0-0.6-0.3-0.9-0.9-0.9S483.1,356,482.6,358.5z"/>
			<path class="st6" d="M490.6,352.7c0.6-0.6,1.4-0.9,2.3-0.9c1.6,0,2.7,1.2,2.7,2.7c0,1.7-1.1,3-3.1,4.6l-2.7,2.3h3.1
				c0.9,0,1.2-0.1,2.1-1.4l0.4,0.2c-0.4,0.7-0.8,1.7-1.1,2.4h-6.4c0-0.1,0-0.3,0-0.4c3.9-3.4,6.1-5.3,6.1-7.5c0-1-0.5-1.8-1.8-1.8
				c-1.1,0-1.9,0.9-2.4,1.5l-0.4-0.4L490.6,352.7z"/>
			<path class="st6" d="M500.3,362.7c-2,0-2.6-1.6-2.6-3.5c0-3,1.5-7.5,4.6-7.5c2,0,2.6,1.8,2.6,3.6
				C504.9,358.2,503.4,362.7,500.3,362.7z M502.2,352.3c-2.1,0-3.1,4.9-3.1,7.3c0,1.4,0.2,2.5,1.3,2.5c2,0,3-5.1,3-7.3
				C503.5,353.5,503.4,352.3,502.2,352.3z"/>
			<path class="st6" d="M510.4,360.5c-0.2,1-0.3,1.4,0.8,1.5c0.2,0,0.6,0.1,0.8,0.1l-0.1,0.5h-5.2l0.1-0.5c0.1,0,0.6,0,0.7-0.1
				c1.1-0.1,1.2-0.3,1.5-1.5l1.2-6.3c0.2-1,0.1-1-0.9-1.1c-0.2,0-0.5,0-0.7,0c0-0.1,0.1-0.3,0.1-0.5c1.1-0.2,2.2-0.5,3.2-0.9
				L510.4,360.5z"/>
			<path class="st6" d="M517.5,352.7c0.6-0.6,1.4-0.9,2.3-0.9c1.6,0,2.7,1.2,2.7,2.7c0,1.7-1.1,3-3.1,4.6l-2.7,2.3h3.1
				c0.9,0,1.2-0.1,2.1-1.4l0.4,0.2c-0.4,0.7-0.8,1.7-1.1,2.4h-6.4c0-0.1,0-0.3,0-0.4c3.9-3.4,6.1-5.3,6.1-7.5c0-1-0.5-1.8-1.8-1.8
				c-1.1,0-1.9,0.9-2.4,1.5l-0.4-0.4L517.5,352.7z"/>
			<path class="st6" d="M524.9,362.7c-0.5,0-0.9-0.4-0.9-0.9c0-0.6,0.5-1.1,1.1-1.1c0.5,0,0.9,0.4,0.9,1
				C526,362.4,525.5,362.7,524.9,362.7z"/>
			<path class="st6" d="M528.5,356.6c0.7-1.1,1.5-1.8,2-1.8s0.8,0.5,1.2,1.9l0.3,0.9c1.5-2,2.2-2.8,3-2.8c0.5,0,0.7,0.4,0.7,0.7
				c0,0.2-0.2,0.7-0.4,0.8c-0.2,0.1-0.3,0.2-0.4,0.1c-0.2,0-0.4-0.5-0.6-0.5c-0.4,0-1,0.7-2.1,2.2l0.6,1.7c0.3,1,0.6,1.5,0.9,1.5
				c0.3,0,0.6-0.2,1.2-1l0.3,0.4c-0.7,1.2-1.6,1.8-2.2,1.8c-0.5,0-0.8-0.6-1.2-1.8l-0.5-1.5c-1.7,2.4-2.4,3.3-3.2,3.3
				c-0.4,0-0.7-0.3-0.7-0.8s0.4-1,0.7-1c0.2,0,0.4,0.5,0.6,0.5c0.3,0,0.9-0.5,2.3-2.6l-0.5-1.5c-0.3-0.9-0.4-1.2-0.7-1.2
				c-0.2,0-0.5,0.2-1.1,1L528.5,356.6z"/>
			<path class="st6" d="M540.2,361c-0.9,1.1-2,1.8-2.5,1.8c-0.4,0-0.7-0.3-0.3-2c0.6-2.9,1.3-6,1.8-8.6c0.1-0.7,0.1-0.7-0.5-0.8
				c-0.2,0-0.5-0.1-0.6-0.1l0.1-0.4c0.7-0.1,1.6-0.3,2.1-0.4c0.3-0.1,0.4-0.1,0.5-0.1s0.2,0.2,0.1,0.5c-0.8,3.3-1.6,7.1-2.2,10
				c-0.1,0.5-0.1,0.6,0.1,0.6c0.2,0,0.6-0.2,1.2-0.9L540.2,361z"/>
			<path class="st6" d="M546.9,355.8c0,0.3-0.2,0.7-0.5,0.8c-0.2,0.1-0.3,0-0.4-0.1c-0.5-0.5-0.9-0.8-1.3-0.8c-0.4,0-0.9,0.4-0.9,1
				s0.5,1,1.1,1.4c1,0.8,1.5,1.2,1.5,2c0,1.4-1.8,2.6-3.1,2.6c-0.8,0-1.6-0.6-1.6-1.2c0-0.4,0.4-0.8,0.7-0.9c0.1,0,0.2,0.1,0.3,0.2
				c0.4,0.6,0.9,1,1.5,1c0.7,0,1.1-0.5,1.1-1.1c0-0.4-0.2-0.8-1-1.5c-0.8-0.6-1.5-1.1-1.5-2c0-0.5,0.2-1.1,0.9-1.6
				c0.5-0.5,1.3-0.8,1.9-0.8C546.3,354.9,546.9,355.3,546.9,355.8z"/>
			<path class="st6" d="M548.9,356.6c0.7-1.1,1.5-1.8,2-1.8s0.8,0.5,1.2,1.9l0.3,0.9c1.5-2,2.2-2.8,3-2.8c0.5,0,0.7,0.4,0.7,0.7
				c0,0.2-0.2,0.7-0.4,0.8c-0.2,0.1-0.3,0.2-0.4,0.1c-0.2,0-0.4-0.5-0.6-0.5c-0.4,0-1,0.7-2.1,2.2l0.6,1.7c0.3,1,0.6,1.5,0.9,1.5
				c0.3,0,0.6-0.2,1.2-1l0.3,0.4c-0.7,1.2-1.6,1.8-2.2,1.8c-0.5,0-0.8-0.6-1.2-1.8l-0.5-1.5c-1.7,2.4-2.4,3.3-3.2,3.3
				c-0.4,0-0.7-0.3-0.7-0.8s0.4-1,0.7-1c0.2,0,0.4,0.5,0.6,0.5c0.3,0,0.9-0.5,2.3-2.6l-0.5-1.5c-0.3-0.9-0.4-1.2-0.7-1.2
				c-0.2,0-0.5,0.2-1.1,1L548.9,356.6z"/>
			<path class="st6" d="M467.5,377.9c0.3-1.6,0.9-2.8,1.9-3.7c0.7-0.6,1.5-1.1,2.5-1.1c1.6,0,2,1,2,1.3c0,0.4-0.3,0.8-0.6,0.8
				c-0.3,0.1-0.6-0.1-0.6-0.3c-0.2-0.7-0.5-1.2-1.3-1.2c-1.4,0-2,1.7-2.4,4.1h2c1.1,0,2-0.1,2.4-0.2l0.1,0.1
				c-0.3,1.2-1.1,4.6-1.4,5.8c-0.1,0.5-0.1,0.6,0,0.6c0.2,0,0.6-0.2,1.2-0.9l0.2,0.4c-0.9,1.1-1.9,1.7-2.4,1.7s-0.6-0.4-0.3-1.8
				c0.3-1.1,0.7-2.7,1-4.1c0.2-0.9,0.2-1.1-0.5-1.1h-2.5c-0.3,1.9-0.5,3-0.9,5c-0.6,3-1.2,4.2-2.1,5.1c-0.8,0.8-1.6,1.1-2,1.1
				c-0.6,0-1.1-0.3-1.1-0.7c0-0.3,0.2-0.7,0.5-0.9c0.1-0.1,0.3-0.1,0.3,0c0.3,0.3,0.7,0.6,1.1,0.6c0.9,0,1.2-1.1,1.8-4.6
				c0.5-2.6,0.7-4.2,1-5.6H466c0-0.1-0.1-0.1-0.1-0.2l0.5-0.5h1.1V377.9z"/>
			<path class="st6" d="M478.9,383.8c-0.9,1.1-2,1.8-2.5,1.8c-0.4,0-0.7-0.3-0.3-2c0.6-2.9,1.3-6,1.8-8.6c0.1-0.7,0.1-0.7-0.5-0.8
				c-0.2,0-0.5-0.1-0.6-0.1l0.1-0.4c0.7-0.1,1.6-0.3,2.1-0.4c0.3-0.1,0.4-0.1,0.5-0.1s0.2,0.2,0.1,0.5c-0.8,3.3-1.6,7.1-2.2,10
				c-0.1,0.5-0.1,0.6,0.1,0.6s0.6-0.2,1.2-0.9L478.9,383.8z"/>
			<path class="st6" d="M483,385.5c-0.8,0-1.9-0.5-1.9-2.5c0-1.6,0.7-3.5,2-4.5c0.8-0.5,1.6-0.9,2.3-0.9c1,0,1.5,0.6,1.5,1.4
				c0,1.7-2.5,2.5-4.4,2.8c0,0.2,0,0.5,0,0.7c0,1,0.3,1.9,1.3,1.9c0.8,0,1.7-0.5,2.5-1.3l0.3,0.4C485.2,385.2,483.8,385.5,483,385.5
				z M482.6,381.3c2.5-0.4,3-1.2,3.1-2c0-0.6-0.3-0.9-0.9-0.9S483.1,378.8,482.6,381.3z"/>
			<path class="st6" d="M490.6,375.5c0.6-0.6,1.4-0.9,2.3-0.9c1.6,0,2.7,1.2,2.7,2.7c0,1.7-1.1,3-3.1,4.6l-2.7,2.3h3.1
				c0.9,0,1.2-0.1,2.1-1.4l0.4,0.2c-0.4,0.7-0.8,1.7-1.1,2.4h-6.4c0-0.1,0-0.3,0-0.4c3.9-3.4,6.1-5.3,6.1-7.5c0-1-0.5-1.8-1.8-1.8
				c-1.1,0-1.9,0.9-2.4,1.5l-0.4-0.4L490.6,375.5z"/>
			<path class="st6" d="M500.3,385.5c-2,0-2.6-1.6-2.6-3.5c0-3,1.5-7.5,4.6-7.5c2,0,2.6,1.8,2.6,3.6
				C504.9,381,503.4,385.5,500.3,385.5z M502.2,375.1c-2.1,0-3.1,4.9-3.1,7.3c0,1.4,0.2,2.5,1.3,2.5c2,0,3-5.1,3-7.3
				C503.5,376.3,503.4,375.1,502.2,375.1z"/>
			<path class="st6" d="M510.4,383.3c-0.2,1-0.3,1.4,0.8,1.5c0.2,0,0.6,0.1,0.8,0.1l-0.1,0.5h-5.2l0.1-0.5c0.1,0,0.6,0,0.7-0.1
				c1.1-0.1,1.2-0.3,1.5-1.5l1.2-6.3c0.2-1,0.1-1-0.9-1.1c-0.2,0-0.5,0-0.7,0c0-0.1,0.1-0.3,0.1-0.5c1.1-0.2,2.2-0.5,3.2-0.9
				L510.4,383.3z"/>
			<path class="st6" d="M517.7,375.5c0.5-0.5,1.2-0.9,2.2-0.9c1.5,0,2.3,1.1,2.3,2.1c0,1.3-0.9,1.9-2,2.5c1.1,0.3,2,1.2,2,2.4
				c0,2.3-2.7,4-4.8,4c-1.2,0-2-0.7-2-1.2c0-0.4,0.4-0.8,0.6-0.8c0.1,0,0.3,0.1,0.5,0.3c0.6,0.6,1.1,0.9,1.9,0.9
				c1.4,0,2.4-0.9,2.4-2.7c0-1.5-0.9-2.1-1.9-2.1c-0.4,0-0.8,0.1-1,0.2l-0.1-0.5c2-0.5,3.1-1.3,3.1-2.6c0-0.9-0.5-1.4-1.4-1.4
				c-1,0-1.7,0.6-2.2,1.3l-0.4-0.4L517.7,375.5z"/>
			<path class="st6" d="M524.9,385.5c-0.5,0-0.9-0.4-0.9-0.9c0-0.6,0.5-1.1,1.1-1.1c0.5,0,0.9,0.4,0.9,1
				C526,385.2,525.5,385.5,524.9,385.5z"/>
			<path class="st6" d="M528.5,379.4c0.7-1.1,1.5-1.8,2-1.8s0.8,0.5,1.2,1.9l0.3,0.9c1.5-2,2.2-2.8,3-2.8c0.5,0,0.7,0.4,0.7,0.7
				c0,0.2-0.2,0.7-0.4,0.8c-0.2,0.1-0.3,0.2-0.4,0.1c-0.2,0-0.4-0.5-0.6-0.5c-0.4,0-1,0.7-2.1,2.2l0.6,1.7c0.3,1,0.6,1.5,0.9,1.5
				c0.3,0,0.6-0.2,1.2-1l0.3,0.4c-0.7,1.2-1.6,1.8-2.2,1.8c-0.5,0-0.8-0.6-1.2-1.8l-0.5-1.5c-1.7,2.4-2.4,3.3-3.2,3.3
				c-0.4,0-0.7-0.3-0.7-0.8s0.4-1,0.7-1c0.2,0,0.4,0.5,0.6,0.5c0.3,0,0.9-0.5,2.3-2.6l-0.5-1.5c-0.3-0.9-0.4-1.2-0.7-1.2
				c-0.2,0-0.5,0.2-1.1,1L528.5,379.4z"/>
			<path class="st6" d="M540.2,383.8c-0.9,1.1-2,1.8-2.5,1.8c-0.4,0-0.7-0.3-0.3-2c0.6-2.9,1.3-6,1.8-8.6c0.1-0.7,0.1-0.7-0.5-0.8
				c-0.2,0-0.5-0.1-0.6-0.1l0.1-0.4c0.7-0.1,1.6-0.3,2.1-0.4c0.3-0.1,0.4-0.1,0.5-0.1s0.2,0.2,0.1,0.5c-0.8,3.3-1.6,7.1-2.2,10
				c-0.1,0.5-0.1,0.6,0.1,0.6c0.2,0,0.6-0.2,1.2-0.9L540.2,383.8z"/>
			<path class="st6" d="M546.9,378.6c0,0.3-0.2,0.7-0.5,0.8c-0.2,0.1-0.3,0-0.4-0.1c-0.5-0.5-0.9-0.8-1.3-0.8c-0.4,0-0.9,0.4-0.9,1
				s0.5,1,1.1,1.4c1,0.8,1.5,1.2,1.5,2c0,1.4-1.8,2.6-3.1,2.6c-0.8,0-1.6-0.6-1.6-1.2c0-0.4,0.4-0.8,0.7-0.9c0.1,0,0.2,0.1,0.3,0.2
				c0.4,0.6,0.9,1,1.5,1c0.7,0,1.1-0.5,1.1-1.1c0-0.4-0.2-0.8-1-1.5c-0.8-0.6-1.5-1.1-1.5-2c0-0.5,0.2-1.1,0.9-1.6
				c0.5-0.5,1.3-0.8,1.9-0.8C546.3,377.7,546.9,378.1,546.9,378.6z"/>
			<path class="st6" d="M548.9,379.4c0.7-1.1,1.5-1.8,2-1.8s0.8,0.5,1.2,1.9l0.3,0.9c1.5-2,2.2-2.8,3-2.8c0.5,0,0.7,0.4,0.7,0.7
				c0,0.2-0.2,0.7-0.4,0.8c-0.2,0.1-0.3,0.2-0.4,0.1c-0.2,0-0.4-0.5-0.6-0.5c-0.4,0-1,0.7-2.1,2.2l0.6,1.7c0.3,1,0.6,1.5,0.9,1.5
				c0.3,0,0.6-0.2,1.2-1l0.3,0.4c-0.7,1.2-1.6,1.8-2.2,1.8c-0.5,0-0.8-0.6-1.2-1.8l-0.5-1.5c-1.7,2.4-2.4,3.3-3.2,3.3
				c-0.4,0-0.7-0.3-0.7-0.8s0.4-1,0.7-1c0.2,0,0.4,0.5,0.6,0.5c0.3,0,0.9-0.5,2.3-2.6l-0.5-1.5c-0.3-0.9-0.4-1.2-0.7-1.2
				c-0.2,0-0.5,0.2-1.1,1L548.9,379.4z"/>
			<path class="st6" d="M468.4,407.2c0,0.3-0.1,0.6-0.3,0.8c-0.2,0.2-0.5,0.3-0.8,0.3s-0.5-0.1-0.8-0.3s-0.3-0.5-0.3-0.8
				s0.1-0.5,0.3-0.8c0.2-0.2,0.5-0.3,0.8-0.3s0.5,0.1,0.8,0.3S468.4,406.9,468.4,407.2z M472.9,407.2c0,0.3-0.1,0.6-0.3,0.8
				c-0.2,0.2-0.5,0.3-0.8,0.3s-0.5-0.1-0.8-0.3s-0.3-0.5-0.3-0.8s0.1-0.5,0.3-0.8c0.2-0.2,0.5-0.3,0.8-0.3s0.5,0.1,0.8,0.3
				S472.9,406.9,472.9,407.2z M477.5,407.2c0,0.3-0.1,0.5-0.3,0.8s-0.5,0.3-0.8,0.3s-0.5-0.1-0.8-0.3s-0.3-0.5-0.3-0.8
				s0.1-0.5,0.3-0.8c0.2-0.2,0.5-0.3,0.8-0.3s0.6,0.1,0.8,0.3C477.4,406.7,477.5,406.9,477.5,407.2z"/>
			<path class="st6" d="M482.9,407.2c0,0.3-0.1,0.6-0.3,0.8c-0.2,0.2-0.5,0.3-0.8,0.3s-0.5-0.1-0.8-0.3s-0.3-0.5-0.3-0.8
				s0.1-0.5,0.3-0.8c0.2-0.2,0.5-0.3,0.8-0.3s0.5,0.1,0.8,0.3S482.9,406.9,482.9,407.2z M487.5,407.2c0,0.3-0.1,0.6-0.3,0.8
				c-0.2,0.2-0.5,0.3-0.8,0.3s-0.5-0.1-0.8-0.3s-0.3-0.5-0.3-0.8s0.1-0.5,0.3-0.8c0.2-0.2,0.5-0.3,0.8-0.3s0.5,0.1,0.8,0.3
				S487.5,406.9,487.5,407.2z M492.1,407.2c0,0.3-0.1,0.5-0.3,0.8s-0.5,0.3-0.8,0.3s-0.5-0.1-0.8-0.3s-0.3-0.5-0.3-0.8
				s0.1-0.5,0.3-0.8c0.2-0.2,0.5-0.3,0.8-0.3s0.6,0.1,0.8,0.3C492,406.7,492.1,406.9,492.1,407.2z"/>
			<path class="st6" d="M467.5,423.5c0.3-1.6,0.9-2.8,1.9-3.7c0.7-0.6,1.5-1.1,2.5-1.1c1.6,0,2,1,2,1.3c0,0.4-0.3,0.8-0.6,0.8
				c-0.3,0.1-0.6-0.1-0.6-0.3c-0.2-0.7-0.5-1.2-1.3-1.2c-1.4,0-2,1.7-2.4,4.1h2c1.1,0,2-0.1,2.4-0.2l0.1,0.1
				c-0.3,1.2-1.1,4.6-1.4,5.8c-0.1,0.5-0.1,0.6,0,0.6c0.2,0,0.6-0.2,1.2-0.9l0.2,0.4c-0.9,1.1-1.9,1.7-2.4,1.7s-0.6-0.4-0.3-1.8
				c0.3-1.1,0.7-2.7,1-4.1c0.2-0.9,0.2-1.1-0.5-1.1h-2.5c-0.3,1.9-0.5,3-0.9,5c-0.6,3-1.2,4.2-2.1,5.1c-0.8,0.8-1.6,1.1-2,1.1
				c-0.6,0-1.1-0.3-1.1-0.7c0-0.3,0.2-0.7,0.5-0.9c0.1-0.1,0.3-0.1,0.3,0c0.3,0.3,0.7,0.6,1.1,0.6c0.9,0,1.2-1.1,1.8-4.6
				c0.5-2.6,0.7-4.2,1-5.6H466c0-0.1-0.1-0.1-0.1-0.2l0.5-0.5h1.1V423.5z"/>
			<path class="st6" d="M478.9,429.4c-0.9,1.1-2,1.8-2.5,1.8c-0.4,0-0.7-0.3-0.3-2c0.6-2.9,1.3-6,1.8-8.6c0.1-0.7,0.1-0.7-0.5-0.8
				c-0.2,0-0.5-0.1-0.6-0.1l0.1-0.4c0.7-0.1,1.6-0.3,2.1-0.4c0.3-0.1,0.4-0.1,0.5-0.1s0.2,0.2,0.1,0.5c-0.8,3.3-1.6,7.1-2.2,10
				c-0.1,0.5-0.1,0.6,0.1,0.6s0.6-0.2,1.2-0.9L478.9,429.4z"/>
			<path class="st6" d="M483,431.1c-0.8,0-1.9-0.5-1.9-2.5c0-1.6,0.7-3.5,2-4.5c0.8-0.5,1.6-0.9,2.3-0.9c1,0,1.5,0.6,1.5,1.4
				c0,1.7-2.5,2.5-4.4,2.8c0,0.2,0,0.5,0,0.7c0,1,0.3,1.9,1.3,1.9c0.8,0,1.7-0.5,2.5-1.3l0.3,0.4C485.2,430.8,483.8,431.1,483,431.1
				z M482.6,426.9c2.5-0.4,3-1.2,3.1-2c0-0.6-0.3-0.9-0.9-0.9S483.1,424.4,482.6,426.9z"/>
			<path class="st6" d="M490.6,421.1c0.6-0.6,1.4-0.9,2.3-0.9c1.6,0,2.7,1.2,2.7,2.7c0,1.7-1.1,3-3.1,4.6l-2.7,2.3h3.1
				c0.9,0,1.2-0.1,2.1-1.4l0.4,0.2c-0.4,0.7-0.8,1.7-1.1,2.4h-6.4c0-0.1,0-0.3,0-0.4c3.9-3.4,6.1-5.3,6.1-7.5c0-1-0.5-1.8-1.8-1.8
				c-1.1,0-1.9,0.9-2.4,1.5l-0.4-0.4L490.6,421.1z"/>
			<path class="st6" d="M500.3,431.1c-2,0-2.6-1.6-2.6-3.5c0-3,1.5-7.5,4.6-7.5c2,0,2.6,1.8,2.6,3.6
				C504.9,426.6,503.4,431.1,500.3,431.1z M502.2,420.7c-2.1,0-3.1,4.9-3.1,7.3c0,1.4,0.2,2.5,1.3,2.5c2,0,3-5.1,3-7.3
				C503.5,421.9,503.4,420.7,502.2,420.7z"/>
			<path class="st6" d="M510.4,428.9c-0.2,1-0.3,1.4,0.8,1.5c0.2,0,0.6,0.1,0.8,0.1l-0.1,0.5h-5.2l0.1-0.5c0.1,0,0.6,0,0.7-0.1
				c1.1-0.1,1.2-0.3,1.5-1.5l1.2-6.3c0.2-1,0.1-1-0.9-1.1c-0.2,0-0.5,0-0.7,0c0-0.1,0.1-0.3,0.1-0.5c1.1-0.2,2.2-0.5,3.2-0.9
				L510.4,428.9z"/>
			<path class="st6" d="M522.7,422.5c0,0.6-0.3,1.2-0.8,1.6c-0.2,0.2-0.7,0.5-1.6,1.1c1.1,0.8,2,1.5,2,2.8c0,1.7-1.7,3.2-3.7,3.2
				c-1.7,0-3.1-1-3.1-2.6c0-0.9,0.4-1.5,1.3-2.1c0.4-0.3,0.9-0.6,1.5-0.9c-0.7-0.6-1.4-1.3-1.4-2.5c0-1.5,1.4-2.9,3.2-2.9
				C521.4,420.1,522.7,421,522.7,422.5z M520.8,428.4c0-1.1-0.9-1.8-2-2.6c-1.2,0.7-1.9,1.5-1.9,2.7s0.7,2,1.9,2
				C519.9,430.6,520.8,429.7,520.8,428.4z M518.2,422.6c0,1.1,0.9,1.7,1.7,2.3c1.1-0.7,1.5-1.4,1.5-2.4c0-1.1-0.6-1.8-1.5-1.8
				C518.8,420.7,518.2,421.6,518.2,422.6z"/>
			<path class="st6" d="M524.9,431.1c-0.5,0-0.9-0.4-0.9-0.9c0-0.6,0.5-1.1,1.1-1.1c0.5,0,0.9,0.4,0.9,1
				C526,430.8,525.5,431.1,524.9,431.1z"/>
			<path class="st6" d="M528.5,425c0.7-1.1,1.5-1.8,2-1.8s0.8,0.5,1.2,1.9l0.3,0.9c1.5-2,2.2-2.8,3-2.8c0.5,0,0.7,0.4,0.7,0.7
				c0,0.2-0.2,0.7-0.4,0.8c-0.2,0.1-0.3,0.2-0.4,0.1c-0.2,0-0.4-0.5-0.6-0.5c-0.4,0-1,0.7-2.1,2.2l0.6,1.7c0.3,1,0.6,1.5,0.9,1.5
				c0.3,0,0.6-0.2,1.2-1l0.3,0.4c-0.7,1.2-1.6,1.8-2.2,1.8c-0.5,0-0.8-0.6-1.2-1.8l-0.5-1.5c-1.7,2.4-2.4,3.3-3.2,3.3
				c-0.4,0-0.7-0.3-0.7-0.8s0.4-1,0.7-1c0.2,0,0.4,0.5,0.6,0.5c0.3,0,0.9-0.5,2.3-2.6l-0.5-1.5c-0.3-0.9-0.4-1.2-0.7-1.2
				c-0.2,0-0.5,0.2-1.1,1L528.5,425z"/>
			<path class="st6" d="M540.2,429.4c-0.9,1.1-2,1.8-2.5,1.8c-0.4,0-0.7-0.3-0.3-2c0.6-2.9,1.3-6,1.8-8.6c0.1-0.7,0.1-0.7-0.5-0.8
				c-0.2,0-0.5-0.1-0.6-0.1l0.1-0.4c0.7-0.1,1.6-0.3,2.1-0.4c0.3-0.1,0.4-0.1,0.5-0.1s0.2,0.2,0.1,0.5c-0.8,3.3-1.6,7.1-2.2,10
				c-0.1,0.5-0.1,0.6,0.1,0.6c0.2,0,0.6-0.2,1.2-0.9L540.2,429.4z"/>
			<path class="st6" d="M546.9,424.2c0,0.3-0.2,0.7-0.5,0.8c-0.2,0.1-0.3,0-0.4-0.1c-0.5-0.5-0.9-0.8-1.3-0.8c-0.4,0-0.9,0.4-0.9,1
				s0.5,1,1.1,1.4c1,0.8,1.5,1.2,1.5,2c0,1.4-1.8,2.6-3.1,2.6c-0.8,0-1.6-0.6-1.6-1.2c0-0.4,0.4-0.8,0.7-0.9c0.1,0,0.2,0.1,0.3,0.2
				c0.4,0.6,0.9,1,1.5,1c0.7,0,1.1-0.5,1.1-1.1c0-0.4-0.2-0.8-1-1.5c-0.8-0.6-1.5-1.1-1.5-2c0-0.5,0.2-1.1,0.9-1.6
				c0.5-0.5,1.3-0.8,1.9-0.8C546.3,423.3,546.9,423.7,546.9,424.2z"/>
			<path class="st6" d="M548.9,425c0.7-1.1,1.5-1.8,2-1.8s0.8,0.5,1.2,1.9l0.3,0.9c1.5-2,2.2-2.8,3-2.8c0.5,0,0.7,0.4,0.7,0.7
				c0,0.2-0.2,0.7-0.4,0.8c-0.2,0.1-0.3,0.2-0.4,0.1c-0.2,0-0.4-0.5-0.6-0.5c-0.4,0-1,0.7-2.1,2.2l0.6,1.7c0.3,1,0.6,1.5,0.9,1.5
				c0.3,0,0.6-0.2,1.2-1l0.3,0.4c-0.7,1.2-1.6,1.8-2.2,1.8c-0.5,0-0.8-0.6-1.2-1.8l-0.5-1.5c-1.7,2.4-2.4,3.3-3.2,3.3
				c-0.4,0-0.7-0.3-0.7-0.8s0.4-1,0.7-1c0.2,0,0.4,0.5,0.6,0.5c0.3,0,0.9-0.5,2.3-2.6l-0.5-1.5c-0.3-0.9-0.4-1.2-0.7-1.2
				c-0.2,0-0.5,0.2-1.1,1L548.9,425z"/>
			<path class="st6" d="M467.5,446.3c0.3-1.6,0.9-2.8,1.9-3.7c0.7-0.6,1.5-1.1,2.5-1.1c1.6,0,2,1,2,1.3c0,0.4-0.3,0.8-0.6,0.8
				c-0.3,0.1-0.6-0.1-0.6-0.3c-0.2-0.7-0.5-1.2-1.3-1.2c-1.4,0-2,1.7-2.4,4.1h2c1.1,0,2-0.1,2.4-0.2l0.1,0.1
				c-0.3,1.2-1.1,4.6-1.4,5.8c-0.1,0.5-0.1,0.6,0,0.6c0.2,0,0.6-0.2,1.2-0.9l0.2,0.4c-0.9,1.1-1.9,1.7-2.4,1.7s-0.6-0.4-0.3-1.8
				c0.3-1.1,0.7-2.7,1-4.1c0.2-0.9,0.2-1.1-0.5-1.1h-2.5c-0.3,1.9-0.5,3-0.9,5c-0.6,3-1.2,4.2-2.1,5.1c-0.8,0.8-1.6,1.1-2,1.1
				c-0.6,0-1.1-0.3-1.1-0.7c0-0.3,0.2-0.7,0.5-0.9c0.1-0.1,0.3-0.1,0.3,0c0.3,0.3,0.7,0.6,1.1,0.6c0.9,0,1.2-1.1,1.8-4.6
				c0.5-2.6,0.7-4.2,1-5.6H466c0-0.1-0.1-0.1-0.1-0.2l0.5-0.5h1.1V446.3z"/>
			<path class="st6" d="M478.9,452.2c-0.9,1.1-2,1.8-2.5,1.8c-0.4,0-0.7-0.3-0.3-2c0.6-2.9,1.3-6,1.8-8.6c0.1-0.7,0.1-0.7-0.5-0.8
				c-0.2,0-0.5-0.1-0.6-0.1l0.1-0.4c0.7-0.1,1.6-0.3,2.1-0.4c0.3-0.1,0.4-0.1,0.5-0.1s0.2,0.2,0.1,0.5c-0.8,3.3-1.6,7.1-2.2,10
				c-0.1,0.5-0.1,0.6,0.1,0.6s0.6-0.2,1.2-0.9L478.9,452.2z"/>
			<path class="st6" d="M483,453.9c-0.8,0-1.9-0.5-1.9-2.5c0-1.6,0.7-3.5,2-4.5c0.8-0.5,1.6-0.9,2.3-0.9c1,0,1.5,0.6,1.5,1.4
				c0,1.7-2.5,2.5-4.4,2.8c0,0.2,0,0.5,0,0.7c0,1,0.3,1.9,1.3,1.9c0.8,0,1.7-0.5,2.5-1.3l0.3,0.4C485.2,453.6,483.8,453.9,483,453.9
				z M482.6,449.7c2.5-0.4,3-1.2,3.1-2c0-0.6-0.3-0.9-0.9-0.9C484.2,446.8,483.1,447.2,482.6,449.7z"/>
			<path class="st6" d="M490.6,443.9c0.6-0.6,1.4-0.9,2.3-0.9c1.6,0,2.7,1.2,2.7,2.7c0,1.7-1.1,3-3.1,4.6l-2.7,2.3h3.1
				c0.9,0,1.2-0.1,2.1-1.4l0.4,0.2c-0.4,0.7-0.8,1.7-1.1,2.4h-6.4c0-0.1,0-0.3,0-0.4c3.9-3.4,6.1-5.3,6.1-7.5c0-1-0.5-1.8-1.8-1.8
				c-1.1,0-1.9,0.9-2.4,1.5l-0.4-0.4L490.6,443.9z"/>
			<path class="st6" d="M500.3,453.9c-2,0-2.6-1.6-2.6-3.5c0-3,1.5-7.5,4.6-7.5c2,0,2.6,1.8,2.6,3.6
				C504.9,449.4,503.4,453.9,500.3,453.9z M502.2,443.5c-2.1,0-3.1,4.9-3.1,7.3c0,1.4,0.2,2.5,1.3,2.5c2,0,3-5.1,3-7.3
				C503.5,444.7,503.4,443.5,502.2,443.5z"/>
			<path class="st6" d="M510.4,451.7c-0.2,1-0.3,1.4,0.8,1.5c0.2,0,0.6,0.1,0.8,0.1l-0.1,0.5h-5.2l0.1-0.5c0.1,0,0.6,0,0.7-0.1
				c1.1-0.1,1.2-0.3,1.5-1.5l1.2-6.3c0.2-1,0.1-1-0.9-1.1c-0.2,0-0.5,0-0.7,0c0-0.1,0.1-0.3,0.1-0.5c1.1-0.2,2.2-0.5,3.2-0.9
				L510.4,451.7z"/>
			<path class="st6" d="M522.8,446.6c0,3.3-2.4,5.9-5.1,7c-0.5,0.2-1.7,0.4-2.1,0.5l-0.1-0.5c2.3-0.5,4.5-2,5.5-4.7
				c-0.4,0.2-1,0.4-1.4,0.6s-0.7,0.2-1,0.2c-1.4,0-2.5-1.1-2.5-2.8c0-2.2,1.7-3.9,3.7-3.9C521.9,442.9,522.8,444.6,522.8,446.6z
				 M517.5,446.4c0,1.4,0.7,2.3,2,2.3c0.5,0,1.3-0.2,1.7-0.5c0.1-0.5,0.3-1.1,0.3-2s-0.2-2.7-1.8-2.7
				C518.4,443.5,517.5,444.8,517.5,446.4z"/>
			<path class="st6" d="M524.9,453.9c-0.5,0-0.9-0.4-0.9-0.9c0-0.6,0.5-1.1,1.1-1.1c0.5,0,0.9,0.4,0.9,1
				C526,453.6,525.5,453.9,524.9,453.9z"/>
			<path class="st6" d="M528.5,447.8c0.7-1.1,1.5-1.8,2-1.8s0.8,0.5,1.2,1.9l0.3,0.9c1.5-2,2.2-2.8,3-2.8c0.5,0,0.7,0.4,0.7,0.7
				c0,0.2-0.2,0.7-0.4,0.8c-0.2,0.1-0.3,0.2-0.4,0.1c-0.2,0-0.4-0.5-0.6-0.5c-0.4,0-1,0.7-2.1,2.2l0.6,1.7c0.3,1,0.6,1.5,0.9,1.5
				c0.3,0,0.6-0.2,1.2-1l0.3,0.4c-0.7,1.2-1.6,1.8-2.2,1.8c-0.5,0-0.8-0.6-1.2-1.8l-0.5-1.5c-1.7,2.4-2.4,3.3-3.2,3.3
				c-0.4,0-0.7-0.3-0.7-0.8s0.4-1,0.7-1c0.2,0,0.4,0.5,0.6,0.5c0.3,0,0.9-0.5,2.3-2.6l-0.5-1.5c-0.3-0.9-0.4-1.2-0.7-1.2
				c-0.2,0-0.5,0.2-1.1,1L528.5,447.8z"/>
			<path class="st6" d="M540.2,452.2c-0.9,1.1-2,1.8-2.5,1.8c-0.4,0-0.7-0.3-0.3-2c0.6-2.9,1.3-6,1.8-8.6c0.1-0.7,0.1-0.7-0.5-0.8
				c-0.2,0-0.5-0.1-0.6-0.1l0.1-0.4c0.7-0.1,1.6-0.3,2.1-0.4c0.3-0.1,0.4-0.1,0.5-0.1s0.2,0.2,0.1,0.5c-0.8,3.3-1.6,7.1-2.2,10
				c-0.1,0.5-0.1,0.6,0.1,0.6c0.2,0,0.6-0.2,1.2-0.9L540.2,452.2z"/>
			<path class="st6" d="M546.9,447c0,0.3-0.2,0.7-0.5,0.8c-0.2,0.1-0.3,0-0.4-0.1c-0.5-0.5-0.9-0.8-1.3-0.8c-0.4,0-0.9,0.4-0.9,1
				s0.5,1,1.1,1.4c1,0.8,1.5,1.2,1.5,2c0,1.4-1.8,2.6-3.1,2.6c-0.8,0-1.6-0.6-1.6-1.2c0-0.4,0.4-0.8,0.7-0.9c0.1,0,0.2,0.1,0.3,0.2
				c0.4,0.6,0.9,1,1.5,1c0.7,0,1.1-0.5,1.1-1.1c0-0.4-0.2-0.8-1-1.5c-0.8-0.6-1.5-1.1-1.5-2c0-0.5,0.2-1.1,0.9-1.6
				c0.5-0.5,1.3-0.8,1.9-0.8C546.3,446.1,546.9,446.5,546.9,447z"/>
			<path class="st6" d="M548.9,447.8c0.7-1.1,1.5-1.8,2-1.8s0.8,0.5,1.2,1.9l0.3,0.9c1.5-2,2.2-2.8,3-2.8c0.5,0,0.7,0.4,0.7,0.7
				c0,0.2-0.2,0.7-0.4,0.8c-0.2,0.1-0.3,0.2-0.4,0.1c-0.2,0-0.4-0.5-0.6-0.5c-0.4,0-1,0.7-2.1,2.2l0.6,1.7c0.3,1,0.6,1.5,0.9,1.5
				c0.3,0,0.6-0.2,1.2-1l0.3,0.4c-0.7,1.2-1.6,1.8-2.2,1.8c-0.5,0-0.8-0.6-1.2-1.8l-0.5-1.5c-1.7,2.4-2.4,3.3-3.2,3.3
				c-0.4,0-0.7-0.3-0.7-0.8s0.4-1,0.7-1c0.2,0,0.4,0.5,0.6,0.5c0.3,0,0.9-0.5,2.3-2.6l-0.5-1.5c-0.3-0.9-0.4-1.2-0.7-1.2
				c-0.2,0-0.5,0.2-1.1,1L548.9,447.8z"/>
		</g>
	</g>
</g>
<g>
	<line class="st11" x1="4" y1="53.8" x2="4" y2="131.3"/>
	<line class="st11" x1="4" y1="150.1" x2="4" y2="494"/>
	<line class="st11" x1="4" y1="515.5" x2="4" y2="759.8"/>
	<line class="st11" x1="4" y1="782" x2="4" y2="1245.9"/>
</g>
<g>
	<text transform="matrix(0 1 -1 0 27.3164 300.3887)" class="st3 st4 st5">Data collection</text>
</g>
<g>
	<text transform="matrix(0 1 -1 0 25.5137 638.5401)" class="st3 st4 st5">Data Process</text>
</g>
<g>
	<text transform="matrix(0 1 -1 0 26.2168 1026.0929)" class="st3 st4 st5">Data Visualization</text>
</g>
<g>
	<text transform="matrix(0 1 -1 0 27.4688 89.1871)" class="st3 st4 st5">Query</text>
</g>
<line class="st9" x1="464.7" y1="191.1" x2="464.7" y2="220.4"/>
<path class="st12" d="M875.1,84.2H472.8c-5,0-9,4-9,9l0,0c0,5,4,9,9,9H875c5,0,9-4,9-9l0,0C884.1,88.3,880,84.2,875.1,84.2z"/>
<g>
	<text transform="matrix(1 0 0 1 491.2023 98.0225)" class="st6 st4 st13">Alexa Ranking / List of most popular websites</text>
</g>
<g>
	<g>
		<g>
			<path class="st6" d="M467.5,601.9c0.3-1.6,0.9-2.8,1.9-3.7c0.7-0.6,1.5-1.1,2.5-1.1c1.6,0,2,1,2,1.3c0,0.4-0.3,0.8-0.6,0.8
				c-0.3,0.1-0.6-0.1-0.6-0.3c-0.2-0.7-0.5-1.2-1.3-1.2c-1.4,0-2,1.7-2.4,4.1h2c1.1,0,2-0.1,2.4-0.2l0.1,0.1
				c-0.3,1.2-1.1,4.6-1.4,5.8c-0.1,0.5-0.1,0.6,0,0.6c0.2,0,0.6-0.2,1.2-0.9l0.2,0.4c-0.9,1.1-1.9,1.7-2.4,1.7s-0.6-0.4-0.3-1.8
				c0.3-1.1,0.7-2.7,1-4.1c0.2-0.9,0.2-1.1-0.5-1.1h-2.5c-0.3,1.9-0.5,3-0.9,5c-0.6,3-1.2,4.2-2.1,5.1c-0.8,0.8-1.6,1.1-2,1.1
				c-0.6,0-1.1-0.3-1.1-0.7c0-0.3,0.2-0.7,0.5-0.9c0.1-0.1,0.3-0.1,0.3,0c0.3,0.3,0.7,0.6,1.1,0.6c0.9,0,1.2-1.1,1.8-4.6
				c0.5-2.6,0.7-4.2,1-5.6H466c0-0.1-0.1-0.1-0.1-0.2l0.5-0.5h1.1V601.9z"/>
			<path class="st6" d="M478.9,607.8c-0.9,1.1-2,1.8-2.5,1.8c-0.4,0-0.7-0.3-0.3-2c0.6-2.9,1.3-6,1.8-8.6c0.1-0.7,0.1-0.7-0.5-0.8
				c-0.2,0-0.5-0.1-0.6-0.1l0.1-0.4c0.7-0.1,1.6-0.3,2.1-0.4c0.3-0.1,0.4-0.1,0.5-0.1s0.2,0.2,0.1,0.5c-0.8,3.3-1.6,7.1-2.2,10
				c-0.1,0.5-0.1,0.6,0.1,0.6s0.6-0.2,1.2-0.9L478.9,607.8z"/>
			<path class="st6" d="M483,609.6c-0.8,0-1.9-0.5-1.9-2.5c0-1.6,0.7-3.5,2-4.5c0.8-0.5,1.6-0.9,2.3-0.9c1,0,1.5,0.6,1.5,1.4
				c0,1.7-2.5,2.5-4.4,2.8c0,0.2,0,0.5,0,0.7c0,1,0.3,1.9,1.3,1.9c0.8,0,1.7-0.5,2.5-1.3l0.3,0.4C485.2,609.2,483.8,609.6,483,609.6
				z M482.6,605.4c2.5-0.4,3-1.2,3.1-2c0-0.6-0.3-0.9-0.9-0.9C484.2,602.4,483.1,602.8,482.6,605.4z"/>
			<path class="st6" d="M496.1,607.9c-0.8,1.1-1.9,1.7-2.4,1.7s-0.7-0.4-0.4-1.9l0.2-1.2c-0.6,1-1.5,1.9-2,2.3
				c-0.5,0.4-1.2,0.8-1.8,0.8c-0.6,0-1.1-0.7-1.1-2.1c0-1.6,0.7-3.4,1.9-4.4c0.9-0.8,2.1-1.3,3.2-1.3c0.9,0,1.6,0.3,2,0.3
				c-0.3,1.1-0.9,3.7-1.2,5.7c-0.1,0.5-0.1,0.7,0.1,0.7s0.6-0.3,1.2-0.9L496.1,607.9z M493,606.4c0.4-0.5,0.8-1.3,1-2
				c0.2-0.6,0.3-1.3,0.4-1.7c-0.2-0.1-0.8-0.3-1.3-0.3c-2,0-2.9,2.6-2.9,4.8c0,0.7,0.2,1.2,0.5,1.2
				C491.2,608.4,491.9,607.9,493,606.4z"/>
			<path class="st6" d="M501.2,607.8c-0.9,1.1-2,1.8-2.5,1.8c-0.4,0-0.7-0.3-0.3-2c0.6-2.9,1.3-6,1.8-8.6c0.1-0.7,0.1-0.7-0.5-0.8
				c-0.2,0-0.5-0.1-0.6-0.1l0.1-0.4c0.7-0.1,1.6-0.3,2.1-0.4c0.3-0.1,0.4-0.1,0.5-0.1s0.2,0.2,0.1,0.5c-0.8,3.3-1.6,7.1-2.2,10
				c-0.1,0.5-0.1,0.6,0.1,0.6s0.6-0.2,1.2-0.9L501.2,607.8z"/>
			<path class="st6" d="M506.4,607.8c-0.9,1.1-2,1.8-2.5,1.8c-0.4,0-0.7-0.3-0.3-2c0.6-2.9,1.3-6,1.8-8.6c0.1-0.7,0.1-0.7-0.5-0.8
				c-0.2,0-0.5-0.1-0.6-0.1l0.1-0.4c0.7-0.1,1.6-0.3,2.1-0.4c0.3-0.1,0.4-0.1,0.5-0.1s0.2,0.2,0.1,0.5c-0.8,3.3-1.6,7.1-2.2,10
				c-0.1,0.5-0.1,0.6,0.1,0.6s0.6-0.2,1.2-0.9L506.4,607.8z"/>
			<path class="st6" d="M508.8,609.6c-0.5,0-0.9-0.4-0.9-0.9c0-0.6,0.5-1.1,1.1-1.1c0.5,0,0.9,0.4,0.9,1
				C509.9,609.2,509.4,609.6,508.8,609.6z"/>
			<path class="st6" d="M517.5,607.7c-1,1.2-2.3,1.9-3.4,1.9c-1.1,0-1.9-0.9-1.9-2.5c0-1.4,0.6-3,1.7-4.1c0.8-0.7,1.9-1.3,2.7-1.3
				c0.7,0,1.3,0.4,1.3,0.8c0,0.3-0.2,0.8-0.6,0.9c-0.2,0.1-0.3,0.1-0.4-0.1c-0.4-0.5-0.8-0.7-1.3-0.7c-1.3,0-2.1,2.1-2.1,4.1
				c0,1.2,0.5,1.9,1.3,1.9c0.9,0,1.9-0.8,2.4-1.3L517.5,607.7z"/>
			<path class="st6" d="M524.3,602.6c0,0.3-0.2,0.7-0.5,0.8c-0.2,0.1-0.3,0-0.4-0.1c-0.5-0.5-0.9-0.8-1.3-0.8c-0.4,0-0.9,0.4-0.9,1
				s0.5,1,1.1,1.4c1,0.8,1.5,1.2,1.5,2c0,1.4-1.8,2.6-3.1,2.6c-0.8,0-1.6-0.6-1.6-1.2c0-0.4,0.4-0.8,0.7-0.9c0.1,0,0.2,0.1,0.3,0.2
				c0.4,0.6,0.9,1,1.5,1c0.7,0,1.1-0.5,1.1-1.1c0-0.4-0.2-0.8-1-1.5c-0.8-0.6-1.5-1.1-1.5-2c0-0.5,0.2-1.1,0.9-1.6
				c0.5-0.5,1.3-0.8,1.9-0.8C523.7,601.7,524.3,602.2,524.3,602.6z"/>
			<path class="st6" d="M525.8,603.4c0.6-0.9,1.5-1.6,2.1-1.6c0.4,0,0.7,0.5,0.7,1.9c0.1,1.7,0.1,3.3,0.2,4.4
				c0.8-0.9,2.7-3.2,2.7-4.4c0-0.3-0.2-0.6-0.3-0.8c-0.1-0.1-0.1-0.2,0-0.4c0.1-0.3,0.6-0.7,1-0.7s0.6,0.4,0.6,1
				c0,0.5-0.2,1.3-1,2.4c-1,1.4-2.7,3.3-3.7,4.5h-0.5c-0.1-1.7-0.2-4.1-0.3-5.6c-0.1-0.9-0.2-1.1-0.3-1.1s-0.4,0.2-1,0.8
				L525.8,603.4z"/>
		</g>
	</g>
</g>
<g>
	<g>
		<path class="st8" d="M727.7,380.7l-6.3,3.3v-0.9l5.3-2.7l-5.3-2.7v-0.9l6.3,3.3V380.7z"/>
		<path class="st8" d="M738,378.6c0,0.2-0.2,0.6-0.4,0.7c-0.1,0.1-0.2,0-0.3-0.1c-0.4-0.4-0.7-0.6-1.1-0.6c-0.4,0-0.8,0.3-0.8,0.8
			s0.4,0.8,0.9,1.2c0.8,0.7,1.2,1,1.2,1.6c0,1.1-1.5,2.2-2.6,2.2c-0.7,0-1.3-0.5-1.3-1c0-0.3,0.3-0.7,0.6-0.7c0.1,0,0.2,0,0.2,0.1
			c0.4,0.5,0.8,0.8,1.2,0.8c0.6,0,0.9-0.4,0.9-0.9c0-0.3-0.2-0.7-0.8-1.2c-0.7-0.5-1.2-0.9-1.2-1.6c0-0.4,0.2-0.9,0.7-1.4
			c0.4-0.4,1.1-0.7,1.6-0.7C737.5,377.8,738,378.2,738,378.6z"/>
		<path class="st8" d="M742.1,382.9c-0.7,0.9-1.6,1.4-2,1.4s-0.5-0.4-0.3-1.5c0.2-0.9,0.6-2.4,0.9-3.6c0.1-0.3,0-0.4,0-0.4
			c-0.1,0-0.6,0.3-0.9,0.6l-0.2-0.4c0.7-0.7,1.6-1.3,2.1-1.3c0.4,0,0.4,0.5,0.1,1.5c-0.3,1-0.6,2.4-0.9,3.4c-0.1,0.4-0.1,0.5,0,0.5
			s0.5-0.2,1-0.7L742.1,382.9z M742.5,375.6c0,0.4-0.3,0.8-0.7,0.8s-0.6-0.3-0.6-0.6c0-0.4,0.3-0.8,0.8-0.8
			C742.3,375,742.5,375.3,742.5,375.6z"/>
		<path class="st8" d="M747.8,378.5c-0.3,0-1,0.1-1.4,0.1c-0.6,2.9-0.8,3.8-0.9,4.2c-0.1,0.4,0,0.6,0.1,0.6c0.3,0,0.7-0.4,1.3-0.9
			l0.2,0.4c-0.4,0.7-1.5,1.5-2.1,1.5c-0.5,0-0.7-0.4-0.4-2l0.8-3.7h-1.1v-0.1l0.4-0.4h0.8l0.3-1.5c0.2-0.1,0.8-0.5,1.1-0.8l0.1,0.1
			c-0.2,0.6-0.4,1.5-0.5,2.2h1.6L747.8,378.5z"/>
		<path class="st8" d="M750.6,384.3c-0.7,0-1.6-0.4-1.6-2.1c0-1.3,0.6-2.9,1.7-3.7c0.6-0.4,1.3-0.7,1.9-0.7c0.8,0,1.2,0.5,1.2,1.1
			c0,1.4-2.1,2.1-3.6,2.3c0,0.2,0,0.4,0,0.6c0,0.8,0.2,1.6,1.1,1.6c0.6,0,1.4-0.4,2.1-1.1l0.2,0.4
			C752.4,384,751.3,384.3,750.6,384.3z M750.2,380.8c2-0.4,2.5-1,2.5-1.7c0-0.5-0.3-0.7-0.7-0.7
			C751.6,378.4,750.6,378.8,750.2,380.8z"/>
		<path class="st8" d="M756.5,384.3c-0.4,0-0.7-0.3-0.7-0.8s0.4-0.9,0.9-0.9c0.4,0,0.7,0.3,0.7,0.8
			C757.4,384,756.9,384.3,756.5,384.3z M757.1,380c-0.4,0-0.7-0.3-0.7-0.8s0.4-0.9,0.9-0.9c0.4,0,0.7,0.3,0.7,0.8
			C758,379.7,757.5,380,757.1,380z"/>
		<path class="st8" d="M762.1,382.5c-0.2,0.2-0.4,0.4-0.4,0.5c0,0.2,0.3,0.5,1.1,0.9c1.5,0.7,2,1.2,2,1.8c0,1.2-2,2.2-3.4,2.2
			s-2.6-0.7-2.6-1.6c0-0.6,0.8-1.2,2.4-2.1c-0.4-0.2-0.5-0.5-0.5-0.7s0.3-0.6,1-1L762.1,382.5z M763.7,386.1c0-0.3-0.1-0.6-0.7-1
			c-0.5-0.3-1.2-0.7-1.5-0.8c-1.1,0.6-1.6,1.1-1.6,1.6c0,0.7,0.9,1.2,2,1.2C763.1,387.2,763.7,386.7,763.7,386.1z M760.3,380.9
			c0-1.1,0.6-2.1,1.4-2.5c0.5-0.3,1.1-0.5,1.5-0.5s0.9,0.1,1.2,0.4c0.8,0,1.3-0.2,1.6-0.3l0.1,0.3c-0.4,0.5-0.9,0.6-1.3,0.7
			c0,0.2,0.1,0.4,0.1,0.6c0,1-0.5,1.8-1,2.2c-0.6,0.5-1.4,0.8-2.1,0.8C760.9,382.5,760.3,381.8,760.3,380.9z M763.9,379.7
			c0-0.9-0.4-1.4-1-1.4c-0.8,0-1.5,1.1-1.5,2.3c0,0.8,0.4,1.3,0.9,1.3C763.2,382,763.9,381,763.9,379.7z"/>
		<path class="st8" d="M772.3,380c0,1.5-0.7,3-2,3.7c-0.5,0.3-1.1,0.6-1.7,0.6c-1.3,0-1.9-1.1-1.9-2.2c0-1.9,1-3.3,2.3-3.9
			c0.4-0.2,1-0.4,1.4-0.4C771.6,377.8,772.3,378.6,772.3,380z M767.9,382c0,1.1,0.4,1.8,1.2,1.8c1.3,0,2-2.1,2-3.7
			c0-1.2-0.5-1.7-1.2-1.7C768.5,378.4,767.9,380.5,767.9,382z"/>
		<path class="st8" d="M779.6,380c0,1.5-0.7,3-2,3.7c-0.5,0.3-1.1,0.6-1.7,0.6c-1.3,0-1.9-1.1-1.9-2.2c0-1.9,1-3.3,2.3-3.9
			c0.4-0.2,1-0.4,1.4-0.4C778.9,377.8,779.6,378.6,779.6,380z M775.2,382c0,1.1,0.4,1.8,1.2,1.8c1.3,0,2-2.1,2-3.7
			c0-1.2-0.5-1.7-1.2-1.7C775.8,378.4,775.2,380.5,775.2,382z"/>
		<path class="st8" d="M783.3,382.5c-0.2,0.2-0.4,0.4-0.4,0.5c0,0.2,0.3,0.5,1.1,0.9c1.5,0.7,2,1.2,2,1.8c0,1.2-2,2.2-3.4,2.2
			s-2.6-0.7-2.6-1.6c0-0.6,0.8-1.2,2.4-2.1c-0.4-0.2-0.5-0.5-0.5-0.7s0.3-0.6,1-1L783.3,382.5z M785,386.1c0-0.3-0.1-0.6-0.7-1
			c-0.5-0.3-1.2-0.7-1.5-0.8c-1.1,0.6-1.6,1.1-1.6,1.6c0,0.7,0.9,1.2,2,1.2C784.3,387.2,785,386.7,785,386.1z M781.6,380.9
			c0-1.1,0.6-2.1,1.4-2.5c0.5-0.3,1.1-0.5,1.5-0.5s0.9,0.1,1.2,0.4c0.8,0,1.3-0.2,1.6-0.3l0.1,0.3c-0.4,0.5-0.9,0.6-1.3,0.7
			c0,0.2,0.1,0.4,0.1,0.6c0,1-0.5,1.8-1,2.2c-0.6,0.5-1.4,0.8-2.1,0.8C782.1,382.5,781.6,381.8,781.6,380.9z M785.1,379.7
			c0-0.9-0.3-1.4-1-1.4c-0.8,0-1.5,1.1-1.5,2.3c0,0.8,0.4,1.3,0.9,1.3C784.4,382,785.1,381,785.1,379.7z"/>
		<path class="st8" d="M790.6,382.9c-0.7,0.9-1.6,1.4-2,1.4s-0.6-0.3-0.3-1.6c0.5-2.4,1.1-4.9,1.5-7.1c0.1-0.6,0.1-0.6-0.4-0.7
			c-0.2,0-0.4,0-0.5,0l0.1-0.4c0.6-0.1,1.3-0.2,1.7-0.4c0.3-0.1,0.3-0.1,0.4-0.1c0.1,0,0.1,0.1,0.1,0.4c-0.6,2.7-1.3,5.9-1.8,8.2
			c-0.1,0.4-0.1,0.5,0,0.5s0.5-0.2,1-0.7L790.6,382.9z"/>
		<path class="st8" d="M793.9,384.3c-0.7,0-1.6-0.4-1.6-2.1c0-1.3,0.6-2.9,1.7-3.7c0.6-0.4,1.3-0.7,1.9-0.7c0.8,0,1.2,0.5,1.2,1.1
			c0,1.4-2.1,2.1-3.6,2.3c0,0.2,0,0.4,0,0.6c0,0.8,0.2,1.6,1.1,1.6c0.6,0,1.4-0.4,2.1-1.1l0.2,0.4
			C795.7,384,794.6,384.3,793.9,384.3z M793.6,380.8c2-0.4,2.5-1,2.5-1.7c0-0.5-0.3-0.7-0.7-0.7C795,378.4,794,378.8,793.6,380.8z"
			/>
		<path class="st8" d="M799,384.3c-0.4,0-0.7-0.3-0.7-0.8s0.4-0.9,0.9-0.9c0.4,0,0.7,0.3,0.7,0.8C799.8,384,799.4,384.3,799,384.3z"
			/>
		<path class="st8" d="M806.1,382.8c-0.9,1-1.9,1.5-2.8,1.5c-0.9,0-1.6-0.7-1.6-2.1c0-1.2,0.5-2.5,1.4-3.4c0.7-0.6,1.6-1.1,2.2-1.1
			c0.6,0,1.1,0.3,1.1,0.6c0,0.3-0.2,0.6-0.5,0.7c-0.1,0.1-0.2,0-0.3-0.1c-0.3-0.4-0.6-0.6-1.1-0.6c-1.1,0-1.7,1.8-1.7,3.4
			c0,1,0.4,1.5,1,1.5c0.7,0,1.6-0.6,2-1.1L806.1,382.8z"/>
		<path class="st8" d="M813.4,380c0,1.5-0.7,3-2,3.7c-0.5,0.3-1.1,0.6-1.7,0.6c-1.3,0-1.9-1.1-1.9-2.2c0-1.9,1-3.3,2.3-3.9
			c0.4-0.2,1-0.4,1.4-0.4C812.7,377.8,813.4,378.6,813.4,380z M809,382c0,1.1,0.4,1.8,1.2,1.8c1.3,0,2-2.1,2-3.7
			c0-1.2-0.5-1.7-1.2-1.7C809.6,378.4,809,380.5,809,382z"/>
		<path class="st8" d="M824.2,377.8c0.4,0,0.9,0.2,0.5,2c-0.2,0.9-0.5,2.1-0.7,2.9c-0.1,0.4-0.1,0.5,0,0.5s0.5-0.2,1.1-0.8l0.2,0.4
			c-0.7,1-1.7,1.4-2.1,1.4c-0.3,0-0.5-0.3-0.3-1.5c0.2-1,0.5-2.1,0.7-3.1c0.2-0.8,0.1-1-0.2-1c-0.4,0-1.6,0.8-2.6,2.3
			c-0.3,0.4-0.4,0.7-0.5,1.2s-0.3,1.2-0.4,1.8c-0.4,0-0.7,0.2-1,0.3l-0.1-0.1c0.4-1.4,0.7-2.8,1-4.2c0.2-0.9,0.2-1.3-0.2-1.3
			c-0.5,0-1.6,0.8-2.5,2.3c-0.2,0.4-0.4,0.7-0.5,1.2s-0.3,1.2-0.4,1.8c-0.4,0.1-0.7,0.2-1,0.3l-0.1-0.1c0.4-1.4,0.8-3.2,1.1-4.8
			c0.1-0.5,0.1-0.6-0.1-0.6c-0.2,0-0.5,0.3-0.9,0.6l-0.2-0.4c0.6-0.8,1.4-1.3,1.8-1.3c0.4,0,0.5,0.6,0.3,1.6l-0.2,1
			c1.3-1.8,2.6-2.6,3.3-2.6c0.5,0,0.8,0.4,0.4,2.2l-0.1,0.5C822,378.7,823.4,377.8,824.2,377.8z"/>
		<path class="st8" d="M727.7,397.5l-6.3,3.3v-0.9l5.3-2.7l-5.3-2.7v-0.9l6.3,3.3V397.5z"/>
		<path class="st8" d="M738.5,399.6c-0.9,1-1.9,1.5-2.8,1.5c-0.9,0-1.6-0.7-1.6-2.1c0-1.2,0.5-2.5,1.4-3.4c0.7-0.6,1.6-1.1,2.2-1.1
			c0.6,0,1.1,0.3,1.1,0.6c0,0.3-0.2,0.6-0.5,0.7c-0.1,0.1-0.2,0-0.3-0.1c-0.3-0.4-0.6-0.6-1.1-0.6c-1.1,0-1.7,1.8-1.7,3.4
			c0,1,0.4,1.5,1,1.5c0.7,0,1.6-0.6,2-1.1L738.5,399.6z"/>
		<path class="st8" d="M745.7,396.8c0,1.5-0.7,3-2,3.7c-0.5,0.3-1.1,0.6-1.7,0.6c-1.3,0-1.9-1.1-1.9-2.2c0-1.9,1-3.3,2.3-3.9
			c0.4-0.2,1-0.4,1.4-0.4C745,394.6,745.7,395.4,745.7,396.8z M741.4,398.8c0,1.1,0.4,1.8,1.2,1.8c1.3,0,2-2.1,2-3.7
			c0-1.2-0.5-1.7-1.2-1.7C742,395.2,741.4,397.3,741.4,398.8z"/>
		<path class="st8" d="M753.9,399.7c-0.7,1-1.6,1.4-2,1.4s-0.5-0.3-0.3-1.5c0.1-0.5,0.2-0.8,0.3-1.1c-0.6,0.8-1.2,1.5-1.9,2.1
			c-0.4,0.3-0.9,0.6-1.4,0.6c-0.4,0-1-0.3-0.6-2c0.2-0.9,0.5-1.9,0.7-2.9c0.1-0.4,0.1-0.5,0-0.5c-0.2,0-0.6,0.3-0.9,0.6l-0.2-0.4
			c0.7-0.7,1.6-1.3,2-1.3s0.4,0.4,0.2,1.5c-0.2,0.9-0.5,1.9-0.7,2.8c-0.2,1-0.1,1.2,0.2,1.2c0.5,0,1.3-0.7,2-1.6
			c0.4-0.5,0.8-1.2,1-2c0.1-0.3,0.2-0.9,0.3-1.5c0.3-0.1,0.7-0.2,1-0.4h0.2c-0.4,1.6-0.9,3.8-1.1,5c0,0.3,0,0.5,0.1,0.5
			s0.5-0.2,1-0.7L753.9,399.7z"/>
		<path class="st8" d="M762.1,399.7c-0.7,1-1.6,1.4-2,1.4s-0.6-0.3-0.3-1.5c0.3-1,0.5-2,0.7-2.9s0.2-1.2-0.2-1.2
			c-0.5,0-1.5,0.8-2.5,2.2c-0.3,0.4-0.4,0.7-0.5,1.2s-0.3,1.3-0.4,1.9c-0.4,0.1-0.7,0.2-1,0.3l-0.1-0.1c0.4-1.5,0.8-3.2,1.1-4.8
			c0.1-0.4,0-0.6-0.1-0.6c-0.2,0-0.5,0.3-0.9,0.6l-0.2-0.4c0.6-0.8,1.4-1.3,1.8-1.3c0.4,0,0.5,0.5,0.2,1.7l-0.2,0.8
			c1.2-1.6,2.5-2.5,3.3-2.5c0.5,0,0.9,0.3,0.4,2.2c-0.2,0.8-0.4,1.8-0.7,2.7c-0.1,0.4-0.1,0.5,0,0.5s0.5-0.2,1-0.8L762.1,399.7z"/>
		<path class="st8" d="M767.7,395.3c-0.3,0-1,0.1-1.4,0.1c-0.6,2.9-0.8,3.8-0.9,4.2c-0.1,0.4,0,0.6,0.1,0.6c0.3,0,0.7-0.4,1.3-0.9
			l0.2,0.4c-0.4,0.7-1.5,1.5-2.1,1.5c-0.5,0-0.7-0.4-0.4-2l0.8-3.7h-1.1v-0.1l0.4-0.4h0.8l0.3-1.5c0.2-0.1,0.8-0.5,1.1-0.8l0.1,0.1
			c-0.2,0.6-0.4,1.5-0.5,2.2h1.6L767.7,395.3z"/>
		<path class="st8" d="M768.9,396c0.7-0.8,1.4-1.3,1.8-1.3c0.5,0,0.4,0.7,0.2,1.9l-0.1,0.4c0.8-1.3,1.7-2.3,2.3-2.3
			c0.3,0,0.6,0.3,0.6,0.6c0,0.3-0.3,0.7-0.5,0.9c-0.1,0.1-0.2,0.1-0.3,0c-0.2-0.2-0.3-0.4-0.5-0.4c-0.3,0-1,1-1.3,1.6
			c-0.5,0.9-0.7,2.2-1,3.5c-0.3,0.1-0.7,0.2-1,0.3L769,401c0.3-1.3,0.8-3.4,1-4.4c0.2-0.8,0.1-0.9,0-0.9s-0.5,0.2-0.9,0.6L768.9,396
			z"/>
		<path class="st8" d="M774.5,396c0.4-0.6,1.2-1.4,1.7-1.4s0.7,0.9,0.8,2.1s0.2,2.4,0.2,3.3c0.6-0.9,2-2.9,2-4
			c0-0.3-0.1-0.5-0.2-0.7c-0.1-0.2-0.1-0.3,0.1-0.4c0.1-0.2,0.4-0.4,0.6-0.4c0.3,0,0.5,0.3,0.5,0.8c0,0.4-0.1,1-0.5,1.6
			c-1.1,2.1-3.5,5.4-5.1,7.1l-1.5,0.4l-0.1-0.3c1.4-0.9,2.5-2,3.2-3c0-1.1-0.2-3.1-0.3-4.4c-0.1-0.9-0.2-1.2-0.4-1.2
			s-0.5,0.3-0.9,0.7L774.5,396z"/>
		<path class="st8" d="M782.7,401.1c-0.4,0-0.7-0.3-0.7-0.8s0.4-0.9,0.9-0.9c0.4,0,0.7,0.3,0.7,0.8
			C783.6,400.8,783.2,401.1,782.7,401.1z M783.3,396.8c-0.4,0-0.7-0.3-0.7-0.8s0.4-0.9,0.9-0.9c0.4,0,0.7,0.3,0.7,0.8
			C784.2,396.5,783.8,396.8,783.3,396.8z"/>
		<path class="st8" d="M792.8,399.7c-0.7,1-1.6,1.4-2,1.4s-0.5-0.3-0.3-1.5c0.1-0.5,0.2-0.8,0.3-1.1c-0.6,0.8-1.2,1.5-1.9,2.1
			c-0.4,0.3-0.9,0.6-1.4,0.6c-0.4,0-1-0.3-0.6-2c0.2-0.9,0.5-1.9,0.7-2.9c0.1-0.4,0.1-0.5,0-0.5c-0.2,0-0.6,0.3-0.9,0.6l-0.2-0.4
			c0.7-0.7,1.6-1.3,2-1.3s0.4,0.4,0.2,1.5c-0.2,0.9-0.5,1.9-0.7,2.8c-0.2,1-0.1,1.2,0.2,1.2c0.5,0,1.3-0.7,2-1.6
			c0.4-0.5,0.8-1.2,1-2c0.1-0.3,0.2-0.9,0.3-1.5c0.3-0.1,0.7-0.2,1-0.4h0.2c-0.4,1.6-0.9,3.8-1.1,5c0,0.3,0,0.5,0.1,0.5
			s0.5-0.2,1-0.7L792.8,399.7z"/>
		<path class="st8" d="M794.9,401.1c-0.4,0-0.7-0.3-0.7-0.8s0.4-0.9,0.9-0.9c0.4,0,0.7,0.3,0.7,0.8
			C795.8,400.8,795.3,401.1,794.9,401.1z"/>
		<path class="st8" d="M801.5,395.4c0,0.2-0.2,0.6-0.4,0.7c-0.1,0.1-0.2,0-0.3-0.1c-0.4-0.4-0.7-0.6-1.1-0.6c-0.4,0-0.8,0.3-0.8,0.8
			s0.4,0.8,0.9,1.2c0.8,0.7,1.2,1,1.2,1.6c0,1.1-1.5,2.2-2.6,2.2c-0.7,0-1.3-0.5-1.3-1c0-0.3,0.3-0.7,0.6-0.7c0.1,0,0.2,0,0.2,0.1
			c0.3,0.5,0.8,0.8,1.2,0.8c0.6,0,0.9-0.4,0.9-0.9c0-0.3-0.2-0.7-0.8-1.2c-0.7-0.5-1.2-0.9-1.2-1.6c0-0.4,0.2-0.9,0.7-1.4
			c0.4-0.4,1.1-0.7,1.6-0.7C801,394.6,801.5,395,801.5,395.4z"/>
		<path class="st8" d="M803.3,401.1c-0.4,0-0.7-0.3-0.7-0.8s0.4-0.9,0.9-0.9c0.4,0,0.7,0.3,0.7,0.8
			C804.2,400.8,803.7,401.1,803.3,401.1z"/>
		<path class="st8" d="M727.7,414.3l-6.3,3.3v-0.9l5.3-2.7l-5.3-2.7v-0.9l6.3,3.3V414.3z"/>
		<path class="st8" d="M737.9,412.1c-0.3,0-1,0.1-1.4,0.1c-0.6,2.9-0.8,3.8-0.9,4.2c-0.1,0.4,0,0.6,0.1,0.6c0.3,0,0.7-0.4,1.3-0.9
			l0.2,0.4c-0.4,0.7-1.5,1.5-2.1,1.5c-0.5,0-0.7-0.4-0.4-2l0.8-3.7h-1.1v-0.1l0.4-0.4h0.8l0.3-1.5c0.2-0.1,0.8-0.5,1.1-0.8l0.1,0.1
			c-0.2,0.6-0.4,1.5-0.5,2.2h1.6L737.9,412.1z"/>
		<path class="st8" d="M738.8,412.8c0.4-0.6,1.2-1.4,1.7-1.4s0.7,0.9,0.8,2.1s0.2,2.4,0.2,3.3c0.6-0.9,2-2.9,2-3.9
			c0-0.3-0.1-0.5-0.2-0.7c-0.1-0.2-0.1-0.3,0.1-0.4c0.1-0.2,0.4-0.4,0.6-0.4c0.3,0,0.5,0.3,0.5,0.8c0,0.4-0.1,1-0.5,1.6
			c-1.1,2.1-3.5,5.4-5.1,7.1l-1.5,0.4l-0.1-0.3c1.4-0.9,2.5-2,3.2-3c0-1.1-0.2-3.1-0.3-4.4c-0.1-0.9-0.2-1.2-0.4-1.2
			s-0.5,0.3-0.9,0.7L738.8,412.8z"/>
		<path class="st8" d="M748.4,411.6c0.4-0.1,0.9-0.2,1.3-0.2c1.5,0,2,0.7,2,1.9c0,1-0.4,2-1.2,2.9c-0.7,0.8-1.7,1.4-2.6,1.6
			c-0.2,0-0.5,0-0.8-0.1l-0.4,2c-0.2,0.8-0.1,0.9,0.6,1h0.4l-0.1,0.4l-3.3,0.2l0.1-0.4c1-0.2,1.1-0.3,1.2-1.1
			c0.5-2.5,1.1-4.9,1.6-7.3c-0.4,0.2-0.8,0.3-1.1,0.5l-0.1-0.4c0.4-0.3,0.9-0.5,1.4-0.7l0.2-0.6c0.3-0.3,0.7-0.6,1-0.8l0.1,0.1
			L748.4,411.6z M747.3,416.8c0.2,0.2,0.5,0.5,0.9,0.5c1,0,2.4-1.9,2.4-3.7c0-1.2-0.7-1.6-1.5-1.6c-0.2,0-0.5,0-0.8,0.1
			C748,413.6,747.6,415.4,747.3,416.8z"/>
		<path class="st8" d="M755.1,417.9c-0.7,0-1.6-0.4-1.6-2.1c0-1.3,0.6-2.9,1.7-3.7c0.6-0.4,1.3-0.7,1.9-0.7c0.8,0,1.2,0.5,1.2,1.1
			c0,1.4-2.1,2.1-3.6,2.3c0,0.2,0,0.4,0,0.6c0,0.8,0.2,1.6,1.1,1.6c0.6,0,1.4-0.4,2.1-1.1l0.2,0.4
			C756.9,417.6,755.8,417.9,755.1,417.9z M754.7,414.4c2-0.4,2.5-1,2.5-1.7c0-0.5-0.3-0.7-0.7-0.7
			C756.1,412,755.2,412.4,754.7,414.4z"/>
		<path class="st8" d="M761,417.9c-0.4,0-0.7-0.3-0.7-0.8s0.4-0.9,0.9-0.9c0.4,0,0.7,0.3,0.7,0.8C761.9,417.6,761.5,417.9,761,417.9
			z M761.6,413.6c-0.4,0-0.7-0.3-0.7-0.8s0.4-0.9,0.9-0.9c0.4,0,0.7,0.3,0.7,0.8C762.5,413.3,762.1,413.6,761.6,413.6z"/>
		<path class="st8" d="M767.3,416.5c-0.7,0.9-1.6,1.4-2,1.4s-0.5-0.4-0.3-1.5c0.2-0.9,0.6-2.4,0.9-3.6c0.1-0.3,0-0.4,0-0.4
			c-0.1,0-0.6,0.3-0.9,0.6l-0.2-0.4c0.7-0.7,1.6-1.3,2.1-1.3c0.4,0,0.4,0.5,0.1,1.5c-0.3,1-0.6,2.4-0.9,3.4c-0.1,0.4-0.1,0.5,0,0.5
			s0.5-0.2,1-0.7L767.3,416.5z M767.7,409.2c0,0.4-0.3,0.8-0.7,0.8s-0.6-0.3-0.6-0.6c0-0.4,0.3-0.8,0.8-0.8
			C767.5,408.6,767.7,408.9,767.7,409.2z"/>
		<path class="st8" d="M775.6,416.5c-0.7,1-1.6,1.4-2,1.4s-0.6-0.3-0.3-1.5c0.3-1,0.5-2,0.7-2.9s0.2-1.2-0.2-1.2
			c-0.5,0-1.5,0.8-2.5,2.2c-0.3,0.4-0.4,0.7-0.5,1.2s-0.3,1.3-0.4,1.9c-0.4,0.1-0.7,0.2-1,0.3l-0.1-0.1c0.4-1.5,0.8-3.2,1.1-4.8
			c0.1-0.4,0-0.6-0.1-0.6c-0.2,0-0.5,0.3-0.9,0.6l-0.2-0.4c0.6-0.8,1.4-1.3,1.8-1.3c0.4,0,0.5,0.5,0.2,1.7l-0.2,0.8
			c1.2-1.6,2.5-2.5,3.3-2.5c0.5,0,0.9,0.3,0.4,2.2c-0.2,0.8-0.4,1.8-0.7,2.7c-0.1,0.4-0.1,0.5,0,0.5s0.5-0.2,1-0.8L775.6,416.5z"/>
		<path class="st8" d="M781.2,412.1c-0.3,0-1,0.1-1.4,0.1c-0.6,2.9-0.8,3.8-0.9,4.2c-0.1,0.4,0,0.6,0.1,0.6c0.3,0,0.7-0.4,1.3-0.9
			l0.2,0.4c-0.4,0.7-1.5,1.5-2.1,1.5c-0.5,0-0.7-0.4-0.4-2l0.8-3.7h-1.1v-0.1l0.4-0.4h0.8l0.3-1.5c0.2-0.1,0.8-0.5,1.1-0.8l0.1,0.1
			c-0.2,0.6-0.4,1.5-0.5,2.2h1.6L781.2,412.1z"/>
		<path class="st8" d="M784,417.9c-0.7,0-1.6-0.4-1.6-2.1c0-1.3,0.6-2.9,1.7-3.7c0.6-0.4,1.3-0.7,1.9-0.7c0.8,0,1.2,0.5,1.2,1.1
			c0,1.4-2.1,2.1-3.6,2.3c0,0.2,0,0.4,0,0.6c0,0.8,0.2,1.6,1.1,1.6c0.6,0,1.4-0.4,2.1-1.1l0.2,0.4
			C785.8,417.6,784.7,417.9,784,417.9z M783.6,414.4c2-0.4,2.5-1,2.5-1.7c0-0.5-0.3-0.7-0.7-0.7C785,412,784,412.4,783.6,414.4z"/>
		<path class="st8" d="M788.8,412.8c0.7-0.8,1.4-1.3,1.8-1.3c0.5,0,0.4,0.7,0.2,1.9l-0.1,0.4c0.8-1.3,1.7-2.3,2.3-2.3
			c0.3,0,0.6,0.3,0.6,0.6c0,0.3-0.3,0.7-0.5,0.9c-0.1,0.1-0.2,0.1-0.3,0c-0.2-0.2-0.3-0.4-0.5-0.4c-0.3,0-1,1-1.3,1.6
			c-0.5,0.9-0.7,2.2-1,3.5c-0.3,0.1-0.7,0.2-1,0.3l-0.1-0.1c0.3-1.3,0.8-3.4,1-4.4c0.2-0.8,0.1-0.9,0-0.9s-0.5,0.2-0.9,0.6
			L788.8,412.8z"/>
		<path class="st8" d="M801,416.5c-0.7,1-1.6,1.4-2,1.4s-0.6-0.3-0.3-1.5c0.3-1,0.5-2,0.7-2.9s0.2-1.2-0.2-1.2
			c-0.5,0-1.5,0.8-2.5,2.2c-0.3,0.4-0.4,0.7-0.5,1.2s-0.3,1.3-0.4,1.9c-0.4,0.1-0.7,0.2-1,0.3l-0.1-0.1c0.4-1.5,0.8-3.2,1.1-4.8
			c0.1-0.4,0-0.6-0.1-0.6c-0.2,0-0.5,0.3-0.9,0.6l-0.2-0.4c0.6-0.8,1.4-1.3,1.8-1.3c0.4,0,0.5,0.5,0.2,1.7l-0.2,0.8
			c1.2-1.6,2.5-2.5,3.3-2.5c0.5,0,0.9,0.3,0.4,2.2c-0.2,0.8-0.4,1.8-0.7,2.7c-0.1,0.4-0.1,0.5,0,0.5s0.5-0.2,1-0.8L801,416.5z"/>
		<path class="st8" d="M804.4,417.9c-0.7,0-1.6-0.4-1.6-2.1c0-1.3,0.6-2.9,1.7-3.7c0.6-0.4,1.3-0.7,1.9-0.7c0.8,0,1.2,0.5,1.2,1.1
			c0,1.4-2.1,2.1-3.6,2.3c0,0.2,0,0.4,0,0.6c0,0.8,0.2,1.6,1.1,1.6c0.6,0,1.4-0.4,2.1-1.1l0.2,0.4
			C806.3,417.6,805.1,417.9,804.4,417.9z M804.1,414.4c2-0.4,2.5-1,2.5-1.7c0-0.5-0.3-0.7-0.7-0.7
			C805.5,412,804.5,412.4,804.1,414.4z"/>
		<path class="st8" d="M813,412.1c-0.3,0-1,0.1-1.4,0.1c-0.6,2.9-0.8,3.8-0.9,4.2c-0.1,0.4,0,0.6,0.1,0.6c0.3,0,0.7-0.4,1.3-0.9
			l0.2,0.4c-0.4,0.7-1.5,1.5-2.1,1.5c-0.5,0-0.7-0.4-0.4-2l0.8-3.7h-1.1v-0.1l0.4-0.4h0.8l0.3-1.5c0.2-0.1,0.8-0.5,1.1-0.8l0.1,0.1
			c-0.2,0.6-0.4,1.5-0.5,2.2h1.6L813,412.1z"/>
		<path class="st8" d="M821.9,412.2c0,0.2-0.2,0.6-0.4,0.7c-0.1,0.1-0.2,0-0.3-0.1c-0.4-0.4-0.7-0.6-1.1-0.6c-0.4,0-0.8,0.3-0.8,0.8
			s0.4,0.8,0.9,1.2c0.8,0.7,1.2,1,1.2,1.6c0,1.1-1.5,2.2-2.6,2.2c-0.7,0-1.3-0.5-1.3-1c0-0.3,0.3-0.7,0.6-0.7c0.1,0,0.2,0,0.2,0.1
			c0.3,0.5,0.8,0.8,1.2,0.8c0.6,0,0.9-0.4,0.9-0.9c0-0.3-0.2-0.7-0.8-1.2c-0.7-0.5-1.2-0.9-1.2-1.6c0-0.4,0.2-0.9,0.7-1.4
			c0.4-0.4,1.1-0.7,1.6-0.7C821.4,411.4,821.9,411.8,821.9,412.2z"/>
		<path class="st8" d="M825.1,417.9c-0.7,0-1.6-0.4-1.6-2.1c0-1.3,0.6-2.9,1.7-3.7c0.6-0.4,1.3-0.7,1.9-0.7c0.8,0,1.2,0.5,1.2,1.1
			c0,1.4-2.1,2.1-3.6,2.3c0,0.2,0,0.4,0,0.6c0,0.8,0.2,1.6,1.1,1.6c0.6,0,1.4-0.4,2.1-1.1l0.2,0.4
			C826.9,417.6,825.8,417.9,825.1,417.9z M824.7,414.4c2-0.4,2.5-1,2.5-1.7c0-0.5-0.3-0.7-0.7-0.7
			C826.1,412,825.1,412.4,824.7,414.4z"/>
		<path class="st8" d="M829.9,412.8c0.7-0.8,1.4-1.3,1.8-1.3c0.5,0,0.4,0.7,0.2,1.9l-0.1,0.4c0.8-1.3,1.7-2.3,2.3-2.3
			c0.3,0,0.6,0.3,0.6,0.6c0,0.3-0.3,0.7-0.5,0.9c-0.1,0.1-0.2,0.1-0.3,0c-0.2-0.2-0.3-0.4-0.5-0.4c-0.3,0-1,1-1.3,1.6
			c-0.5,0.9-0.7,2.2-1,3.5c-0.3,0.1-0.7,0.2-1,0.3l-0.1-0.1c0.3-1.3,0.8-3.4,1-4.4c0.2-0.8,0.1-0.9,0-0.9s-0.5,0.2-0.9,0.6
			L829.9,412.8z"/>
		<path class="st8" d="M835.4,412.8c0.5-0.7,1.3-1.4,1.7-1.4s0.5,0.4,0.6,1.6c0.1,1.4,0.1,2.7,0.1,3.6c0.6-0.8,2.3-2.6,2.3-3.6
			c0-0.2-0.1-0.5-0.2-0.7c-0.1-0.1-0.1-0.2,0-0.3c0.1-0.2,0.5-0.6,0.8-0.6s0.5,0.3,0.5,0.8c0,0.4-0.2,1.1-0.8,2
			c-0.8,1.1-2.2,2.7-3,3.7H837c-0.1-1.4-0.1-3.4-0.2-4.6c-0.1-0.7-0.1-0.9-0.3-0.9c-0.1,0-0.4,0.1-0.8,0.7L835.4,412.8z"/>
		<path class="st8" d="M845.1,416.5c-0.7,0.9-1.6,1.4-2,1.4s-0.5-0.4-0.3-1.5c0.2-0.9,0.6-2.4,0.9-3.6c0.1-0.3,0-0.4,0-0.4
			c-0.1,0-0.6,0.3-0.9,0.6l-0.2-0.4c0.7-0.7,1.6-1.3,2.1-1.3c0.4,0,0.4,0.5,0.1,1.5c-0.3,1-0.6,2.4-0.9,3.4c-0.1,0.4-0.1,0.5,0,0.5
			s0.5-0.2,1-0.7L845.1,416.5z M845.5,409.2c0,0.4-0.3,0.8-0.7,0.8s-0.6-0.3-0.6-0.6c0-0.4,0.3-0.8,0.8-0.8
			C845.3,408.6,845.5,408.9,845.5,409.2z"/>
		<path class="st8" d="M851.4,416.4c-0.9,1-1.9,1.5-2.8,1.5c-0.9,0-1.6-0.7-1.6-2.1c0-1.2,0.5-2.5,1.4-3.4c0.7-0.6,1.6-1.1,2.2-1.1
			c0.6,0,1.1,0.3,1.1,0.6c0,0.3-0.2,0.6-0.5,0.7c-0.1,0.1-0.2,0-0.3-0.1c-0.3-0.4-0.6-0.6-1.1-0.6c-1.1,0-1.7,1.8-1.7,3.4
			c0,1,0.4,1.5,1,1.5c0.7,0,1.6-0.6,2-1.1L851.4,416.4z"/>
		<path class="st8" d="M854.8,417.9c-0.7,0-1.6-0.4-1.6-2.1c0-1.3,0.6-2.9,1.7-3.7c0.6-0.4,1.3-0.7,1.9-0.7c0.8,0,1.2,0.5,1.2,1.1
			c0,1.4-2.1,2.1-3.6,2.3c0,0.2,0,0.4,0,0.6c0,0.8,0.2,1.6,1.1,1.6c0.6,0,1.4-0.4,2.1-1.1l0.2,0.4
			C856.6,417.6,855.5,417.9,854.8,417.9z M854.4,414.4c2-0.4,2.5-1,2.5-1.7c0-0.5-0.3-0.7-0.7-0.7
			C855.8,412,854.8,412.4,854.4,414.4z"/>
		<path class="st8" d="M727.7,431.1l-6.3,3.3v-0.9l5.3-2.7l-5.3-2.7v-0.9l6.3,3.3V431.1z"/>
		<path class="st8" d="M734.2,429.6c0.7-0.8,1.4-1.3,1.8-1.3c0.5,0,0.4,0.7,0.2,1.9l-0.1,0.4c0.8-1.3,1.7-2.3,2.3-2.3
			c0.3,0,0.6,0.3,0.6,0.6c0,0.3-0.3,0.7-0.5,0.9c-0.1,0.1-0.2,0.1-0.3,0c-0.2-0.2-0.3-0.4-0.5-0.4c-0.3,0-1,1-1.3,1.6
			c-0.5,0.9-0.7,2.2-1,3.5c-0.3,0.1-0.7,0.2-1,0.3l-0.1-0.1c0.3-1.3,0.8-3.4,1-4.4c0.2-0.8,0.1-0.9,0-0.9s-0.5,0.2-0.9,0.6
			L734.2,429.6z"/>
		<path class="st8" d="M746,433.3c-0.7,0.9-1.6,1.4-1.9,1.4s-0.6-0.3-0.3-1.6l0.2-1c-0.5,0.9-1.3,1.6-1.7,1.9
			c-0.4,0.4-1,0.7-1.4,0.7c-0.5,0-0.9-0.6-0.9-1.7c0-1.3,0.6-2.8,1.6-3.6c0.7-0.7,1.7-1.1,2.7-1.1c0.7,0,1.4,0.2,1.6,0.2
			c-0.3,0.9-0.8,3.1-1,4.7c-0.1,0.4,0,0.5,0.1,0.5c0.2,0,0.5-0.2,1-0.7L746,433.3z M743.5,432.1c0.3-0.4,0.7-1.1,0.8-1.7
			c0.1-0.5,0.3-1,0.3-1.4c-0.2-0.1-0.7-0.2-1.1-0.2c-1.7,0-2.4,2.1-2.4,4c0,0.6,0.2,1,0.4,1C742,433.8,742.6,433.3,743.5,432.1z"/>
		<path class="st8" d="M754.1,433.3c-0.7,1-1.6,1.4-2,1.4s-0.6-0.3-0.3-1.5c0.3-1,0.5-2,0.7-2.9s0.2-1.2-0.2-1.2
			c-0.5,0-1.5,0.8-2.5,2.2c-0.3,0.4-0.4,0.7-0.5,1.2s-0.3,1.3-0.4,1.9c-0.4,0.1-0.7,0.2-1,0.3l-0.1-0.1c0.4-1.5,0.8-3.2,1.1-4.8
			c0.1-0.4,0-0.6-0.1-0.6c-0.2,0-0.5,0.3-0.9,0.6l-0.2-0.4c0.6-0.8,1.4-1.3,1.8-1.3c0.4,0,0.5,0.5,0.2,1.7l-0.2,0.8
			c1.2-1.6,2.5-2.5,3.3-2.5c0.5,0,0.9,0.3,0.4,2.2c-0.2,0.8-0.4,1.8-0.7,2.7c-0.1,0.4-0.1,0.5,0,0.5s0.5-0.2,1-0.8L754.1,433.3z"/>
		<path class="st8" d="M761.9,433.4c-0.7,1-1.3,1.3-1.7,1.3c-0.3,0-0.6-0.3-1.1-1.3c-0.3-0.7-0.6-1.4-0.9-2.1c-0.6,0.7-0.9,1-1,1.5
			c-0.2,0.6-0.2,1.1-0.4,1.7c-0.4,0.1-0.7,0.2-1,0.3l-0.1-0.1c0.6-2.7,1.5-6.7,1.8-8.7c0.1-0.5,0.1-0.6-1-0.6l0.1-0.4
			c1.1-0.2,1.9-0.5,2.1-0.5c0.1,0,0.2,0.1,0.1,0.4c-0.4,1.8-1,4.5-1.5,6.6c0.8-0.9,2.8-3.3,3.8-3.3c0.4,0,0.6,0.2,0.6,0.5
			c0,0.2-0.2,0.6-0.4,0.8c-0.2,0.1-0.2,0.1-0.4,0.1c-0.1-0.1-0.4-0.3-0.7-0.3s-1.1,0.8-1.6,1.3c0.2,0.6,0.7,1.6,1.1,2.3
			c0.3,0.6,0.5,0.9,0.7,0.9s0.5-0.2,0.9-0.7L761.9,433.4z"/>
		<path class="st8" d="M764.5,434.7c-0.4,0-0.7-0.3-0.7-0.8s0.4-0.9,0.9-0.9c0.4,0,0.7,0.3,0.7,0.8
			C765.4,434.4,765,434.7,764.5,434.7z M765.2,430.4c-0.4,0-0.7-0.3-0.7-0.8s0.4-0.9,0.9-0.9c0.4,0,0.7,0.3,0.7,0.8
			C766,430.1,765.6,430.4,765.2,430.4z"/>
		<path class="st8" d="M771.3,432.9c-0.2,0.8-0.2,1.1,0.7,1.2c0.1,0,0.5,0,0.7,0.1l-0.1,0.4h-4.3l0.1-0.4c0.1,0,0.5,0,0.6,0
			c0.9-0.1,1-0.2,1.2-1.3l1-5.2c0.2-0.8,0.1-0.9-0.7-0.9c-0.1,0-0.4,0-0.5,0c0-0.1,0.1-0.3,0.1-0.4c0.9-0.1,1.8-0.4,2.7-0.7
			L771.3,432.9z"/>
	</g>
</g>
<line class="st9" x1="690.3" y1="525.4" x2="675.3" y2="525.4"/>
<g>
	<text transform="matrix(1 0 0 1 719.82 363.2729)" class="st3 st4 st5">each file includes the below element</text>
</g>
<g>
	<g>
		<g>
			<path class="st8" d="M727.7,625.1l-6.3,3.3v-0.9l5.3-2.7l-5.3-2.7V621l6.3,3.3V625.1z"/>
			<path class="st8" d="M738,623c0,0.2-0.2,0.6-0.4,0.7c-0.1,0.1-0.2,0-0.3-0.1c-0.4-0.4-0.7-0.6-1.1-0.6c-0.4,0-0.8,0.3-0.8,0.8
				s0.4,0.8,0.9,1.2c0.8,0.7,1.2,1,1.2,1.6c0,1.1-1.5,2.2-2.6,2.2c-0.7,0-1.3-0.5-1.3-1c0-0.3,0.3-0.7,0.6-0.7c0.1,0,0.2,0,0.2,0.1
				c0.4,0.5,0.8,0.8,1.2,0.8c0.6,0,0.9-0.4,0.9-0.9c0-0.3-0.2-0.7-0.8-1.2c-0.7-0.5-1.2-0.9-1.2-1.6c0-0.4,0.2-0.9,0.7-1.4
				c0.4-0.4,1.1-0.7,1.6-0.7C737.5,622.2,738,622.6,738,623z"/>
			<path class="st8" d="M742.1,627.3c-0.7,0.9-1.6,1.4-2,1.4s-0.5-0.4-0.3-1.5c0.2-0.9,0.6-2.4,0.9-3.6c0.1-0.3,0-0.4,0-0.4
				c-0.1,0-0.6,0.3-0.9,0.6l-0.2-0.4c0.7-0.7,1.6-1.3,2.1-1.3c0.4,0,0.4,0.5,0.1,1.5c-0.3,1-0.6,2.4-0.9,3.4c-0.1,0.4-0.1,0.5,0,0.5
				s0.5-0.2,1-0.7L742.1,627.3z M742.5,620c0,0.4-0.3,0.8-0.7,0.8s-0.6-0.3-0.6-0.6c0-0.4,0.3-0.8,0.8-0.8
				C742.3,619.3,742.5,619.6,742.5,620z"/>
			<path class="st8" d="M747.8,622.9c-0.3,0-1,0.1-1.4,0.1c-0.6,2.9-0.8,3.8-0.9,4.2c-0.1,0.4,0,0.6,0.1,0.6c0.3,0,0.7-0.4,1.3-0.9
				l0.2,0.4c-0.4,0.7-1.5,1.5-2.1,1.5c-0.5,0-0.7-0.4-0.4-2l0.8-3.7h-1.1V623l0.4-0.4h0.8l0.3-1.5c0.2-0.1,0.8-0.5,1.1-0.8l0.1,0.1
				c-0.2,0.6-0.4,1.5-0.5,2.2h1.6L747.8,622.9z"/>
			<path class="st8" d="M750.6,628.7c-0.7,0-1.6-0.4-1.6-2.1c0-1.3,0.6-2.9,1.7-3.7c0.6-0.4,1.3-0.7,1.9-0.7c0.8,0,1.2,0.5,1.2,1.1
				c0,1.4-2.1,2.1-3.6,2.3c0,0.2,0,0.4,0,0.6c0,0.8,0.2,1.6,1.1,1.6c0.6,0,1.4-0.4,2.1-1.1l0.2,0.4
				C752.4,628.4,751.3,628.7,750.6,628.7z M750.2,625.2c2-0.4,2.5-1,2.5-1.7c0-0.5-0.3-0.7-0.7-0.7S750.6,623.1,750.2,625.2z"/>
			<path class="st8" d="M756.5,628.7c-0.4,0-0.7-0.3-0.7-0.8s0.4-0.9,0.9-0.9c0.4,0,0.7,0.3,0.7,0.8
				C757.4,628.4,756.9,628.7,756.5,628.7z M757.1,624.4c-0.4,0-0.7-0.3-0.7-0.8s0.4-0.9,0.9-0.9c0.4,0,0.7,0.3,0.7,0.8
				C758,624.1,757.5,624.4,757.1,624.4z"/>
			<path class="st8" d="M762.1,626.8c-0.2,0.2-0.4,0.4-0.4,0.5c0,0.2,0.3,0.5,1.1,0.9c1.5,0.7,2,1.2,2,1.8c0,1.2-2,2.2-3.4,2.2
				s-2.6-0.7-2.6-1.6c0-0.6,0.8-1.2,2.4-2.1c-0.4-0.2-0.5-0.5-0.5-0.7s0.3-0.6,1-1L762.1,626.8z M763.7,630.5c0-0.3-0.1-0.6-0.7-1
				c-0.5-0.3-1.2-0.7-1.5-0.8c-1.1,0.6-1.6,1.1-1.6,1.6c0,0.7,0.9,1.2,2,1.2C763.1,631.6,763.7,631.1,763.7,630.5z M760.3,625.2
				c0-1.1,0.6-2.1,1.4-2.5c0.5-0.3,1.1-0.5,1.5-0.5s0.9,0.1,1.2,0.4c0.8,0,1.3-0.2,1.6-0.3l0.1,0.3c-0.4,0.5-0.9,0.6-1.3,0.7
				c0,0.2,0.1,0.4,0.1,0.6c0,1-0.5,1.8-1,2.2c-0.6,0.5-1.4,0.8-2.1,0.8C760.9,626.9,760.3,626.1,760.3,625.2z M763.9,624.1
				c0-0.9-0.4-1.4-1-1.4c-0.8,0-1.5,1.1-1.5,2.3c0,0.8,0.4,1.3,0.9,1.3C763.2,626.4,763.9,625.4,763.9,624.1z"/>
			<path class="st8" d="M772.3,624.4c0,1.5-0.7,3-2,3.7c-0.5,0.3-1.1,0.6-1.7,0.6c-1.3,0-1.9-1.1-1.9-2.2c0-1.9,1-3.3,2.3-3.9
				c0.4-0.2,1-0.4,1.4-0.4C771.6,622.2,772.3,623,772.3,624.4z M767.9,626.4c0,1.1,0.4,1.8,1.2,1.8c1.3,0,2-2.1,2-3.7
				c0-1.2-0.5-1.7-1.2-1.7C768.5,622.8,767.9,624.9,767.9,626.4z"/>
			<path class="st8" d="M779.6,624.4c0,1.5-0.7,3-2,3.7c-0.5,0.3-1.1,0.6-1.7,0.6c-1.3,0-1.9-1.1-1.9-2.2c0-1.9,1-3.3,2.3-3.9
				c0.4-0.2,1-0.4,1.4-0.4C778.9,622.2,779.6,623,779.6,624.4z M775.2,626.4c0,1.1,0.4,1.8,1.2,1.8c1.3,0,2-2.1,2-3.7
				c0-1.2-0.5-1.7-1.2-1.7C775.8,622.8,775.2,624.9,775.2,626.4z"/>
			<path class="st8" d="M783.3,626.8c-0.2,0.2-0.4,0.4-0.4,0.5c0,0.2,0.3,0.5,1.1,0.9c1.5,0.7,2,1.2,2,1.8c0,1.2-2,2.2-3.4,2.2
				s-2.6-0.7-2.6-1.6c0-0.6,0.8-1.2,2.4-2.1c-0.4-0.2-0.5-0.5-0.5-0.7s0.3-0.6,1-1L783.3,626.8z M785,630.5c0-0.3-0.1-0.6-0.7-1
				c-0.5-0.3-1.2-0.7-1.5-0.8c-1.1,0.6-1.6,1.1-1.6,1.6c0,0.7,0.9,1.2,2,1.2C784.3,631.6,785,631.1,785,630.5z M781.6,625.2
				c0-1.1,0.6-2.1,1.4-2.5c0.5-0.3,1.1-0.5,1.5-0.5s0.9,0.1,1.2,0.4c0.8,0,1.3-0.2,1.6-0.3l0.1,0.3c-0.4,0.5-0.9,0.6-1.3,0.7
				c0,0.2,0.1,0.4,0.1,0.6c0,1-0.5,1.8-1,2.2c-0.6,0.5-1.4,0.8-2.1,0.8C782.1,626.9,781.6,626.1,781.6,625.2z M785.1,624.1
				c0-0.9-0.3-1.4-1-1.4c-0.8,0-1.5,1.1-1.5,2.3c0,0.8,0.4,1.3,0.9,1.3C784.4,626.4,785.1,625.4,785.1,624.1z"/>
			<path class="st8" d="M790.6,627.3c-0.7,0.9-1.6,1.4-2,1.4s-0.6-0.3-0.3-1.6c0.5-2.4,1.1-4.9,1.5-7.1c0.1-0.6,0.1-0.6-0.4-0.7
				c-0.2,0-0.4,0-0.5,0l0.1-0.4c0.6-0.1,1.3-0.2,1.7-0.4c0.3-0.1,0.3-0.1,0.4-0.1c0.1,0,0.1,0.1,0.1,0.4c-0.6,2.7-1.3,5.9-1.8,8.2
				c-0.1,0.4-0.1,0.5,0,0.5s0.5-0.2,1-0.7L790.6,627.3z"/>
			<path class="st8" d="M793.9,628.7c-0.7,0-1.6-0.4-1.6-2.1c0-1.3,0.6-2.9,1.7-3.7c0.6-0.4,1.3-0.7,1.9-0.7c0.8,0,1.2,0.5,1.2,1.1
				c0,1.4-2.1,2.1-3.6,2.3c0,0.2,0,0.4,0,0.6c0,0.8,0.2,1.6,1.1,1.6c0.6,0,1.4-0.4,2.1-1.1l0.2,0.4
				C795.7,628.4,794.6,628.7,793.9,628.7z M793.6,625.2c2-0.4,2.5-1,2.5-1.7c0-0.5-0.3-0.7-0.7-0.7C795,622.8,794,623.1,793.6,625.2
				z"/>
			<path class="st8" d="M799,628.7c-0.4,0-0.7-0.3-0.7-0.8s0.4-0.9,0.9-0.9c0.4,0,0.7,0.3,0.7,0.8
				C799.8,628.4,799.4,628.7,799,628.7z"/>
			<path class="st8" d="M806.1,627.2c-0.9,1-1.9,1.5-2.8,1.5c-0.9,0-1.6-0.7-1.6-2.1c0-1.2,0.5-2.5,1.4-3.4c0.7-0.6,1.6-1.1,2.2-1.1
				c0.6,0,1.1,0.3,1.1,0.6s-0.2,0.6-0.5,0.7c-0.1,0.1-0.2,0-0.3-0.1c-0.3-0.4-0.6-0.6-1.1-0.6c-1.1,0-1.7,1.8-1.7,3.4
				c0,1,0.4,1.5,1,1.5c0.7,0,1.6-0.6,2-1.1L806.1,627.2z"/>
			<path class="st8" d="M813.4,624.4c0,1.5-0.7,3-2,3.7c-0.5,0.3-1.1,0.6-1.7,0.6c-1.3,0-1.9-1.1-1.9-2.2c0-1.9,1-3.3,2.3-3.9
				c0.4-0.2,1-0.4,1.4-0.4C812.7,622.2,813.4,623,813.4,624.4z M809,626.4c0,1.1,0.4,1.8,1.2,1.8c1.3,0,2-2.1,2-3.7
				c0-1.2-0.5-1.7-1.2-1.7C809.6,622.8,809,624.9,809,626.4z"/>
			<path class="st8" d="M824.2,622.2c0.4,0,0.9,0.2,0.5,2c-0.2,0.9-0.5,2.1-0.7,2.9c-0.1,0.4-0.1,0.5,0,0.5s0.5-0.2,1.1-0.8l0.2,0.4
				c-0.7,1-1.7,1.4-2.1,1.4c-0.3,0-0.5-0.3-0.3-1.5c0.2-1,0.5-2.1,0.7-3.1c0.2-0.8,0.1-1-0.2-1c-0.4,0-1.6,0.8-2.6,2.3
				c-0.3,0.4-0.4,0.7-0.5,1.2s-0.3,1.2-0.4,1.8c-0.4,0-0.7,0.2-1,0.3l-0.1-0.1c0.4-1.4,0.7-2.8,1-4.2c0.2-0.9,0.2-1.3-0.2-1.3
				c-0.5,0-1.6,0.8-2.5,2.3c-0.2,0.4-0.4,0.7-0.5,1.2s-0.3,1.2-0.4,1.8c-0.4,0.1-0.7,0.2-1,0.3l-0.1-0.1c0.4-1.4,0.8-3.2,1.1-4.8
				c0.1-0.5,0.1-0.6-0.1-0.6c-0.2,0-0.5,0.3-0.9,0.6l-0.2-0.4c0.6-0.8,1.4-1.3,1.8-1.3c0.4,0,0.5,0.6,0.3,1.6l-0.2,1
				c1.3-1.8,2.6-2.6,3.3-2.6c0.5,0,0.8,0.4,0.4,2.2l-0.1,0.5C822,623.1,823.4,622.2,824.2,622.2z"/>
			<path class="st8" d="M727.7,641.9l-6.3,3.3v-0.9l5.3-2.7l-5.3-2.7V638l6.3,3.3V641.9z"/>
			<path class="st8" d="M738.5,644c-0.9,1-1.9,1.5-2.8,1.5c-0.9,0-1.6-0.7-1.6-2.1c0-1.2,0.5-2.5,1.4-3.4c0.7-0.6,1.6-1.1,2.2-1.1
				c0.6,0,1.1,0.3,1.1,0.6s-0.2,0.6-0.5,0.7c-0.1,0.1-0.2,0-0.3-0.1c-0.3-0.4-0.6-0.6-1.1-0.6c-1.1,0-1.7,1.8-1.7,3.4
				c0,1,0.4,1.5,1,1.5c0.7,0,1.6-0.6,2-1.1L738.5,644z"/>
			<path class="st8" d="M745.7,641.2c0,1.5-0.7,3-2,3.7c-0.5,0.3-1.1,0.6-1.7,0.6c-1.3,0-1.9-1.1-1.9-2.2c0-1.9,1-3.3,2.3-3.9
				c0.4-0.2,1-0.4,1.4-0.4C745,639,745.7,639.8,745.7,641.2z M741.4,643.2c0,1.1,0.4,1.8,1.2,1.8c1.3,0,2-2.1,2-3.7
				c0-1.2-0.5-1.7-1.2-1.7C742,639.6,741.4,641.7,741.4,643.2z"/>
			<path class="st8" d="M753.9,644.1c-0.7,1-1.6,1.4-2,1.4s-0.5-0.3-0.3-1.5c0.1-0.5,0.2-0.8,0.3-1.1c-0.6,0.8-1.2,1.5-1.9,2.1
				c-0.4,0.3-0.9,0.6-1.4,0.6c-0.4,0-1-0.3-0.6-2c0.2-0.9,0.5-1.9,0.7-2.9c0.1-0.4,0.1-0.5,0-0.5c-0.2,0-0.6,0.3-0.9,0.6l-0.2-0.4
				c0.7-0.7,1.6-1.3,2-1.3s0.4,0.4,0.2,1.5c-0.2,0.9-0.5,1.9-0.7,2.8c-0.2,1-0.1,1.2,0.2,1.2c0.5,0,1.3-0.7,2-1.6
				c0.4-0.5,0.8-1.2,1-2c0.1-0.3,0.2-0.9,0.3-1.5c0.3-0.1,0.7-0.2,1-0.4h0.2c-0.4,1.6-0.9,3.8-1.1,5c0,0.3,0,0.5,0.1,0.5
				s0.5-0.2,1-0.7L753.9,644.1z"/>
			<path class="st8" d="M762.1,644.1c-0.7,1-1.6,1.4-2,1.4s-0.6-0.3-0.3-1.5c0.3-1,0.5-2,0.7-2.9s0.2-1.2-0.2-1.2
				c-0.5,0-1.5,0.8-2.5,2.2c-0.3,0.4-0.4,0.7-0.5,1.2s-0.3,1.3-0.4,1.9c-0.4,0.1-0.7,0.2-1,0.3l-0.1-0.1c0.4-1.5,0.8-3.2,1.1-4.8
				c0.1-0.4,0-0.6-0.1-0.6c-0.2,0-0.5,0.3-0.9,0.6l-0.2-0.4c0.6-0.8,1.4-1.3,1.8-1.3c0.4,0,0.5,0.5,0.2,1.7l-0.2,0.8
				c1.2-1.6,2.5-2.5,3.3-2.5c0.5,0,0.9,0.3,0.4,2.2c-0.2,0.8-0.4,1.8-0.7,2.7c-0.1,0.4-0.1,0.5,0,0.5s0.5-0.2,1-0.8L762.1,644.1z"/>
			<path class="st8" d="M767.7,639.7c-0.3,0-1,0.1-1.4,0.1c-0.6,2.9-0.8,3.8-0.9,4.2c-0.1,0.4,0,0.6,0.1,0.6c0.3,0,0.7-0.4,1.3-0.9
				l0.2,0.4c-0.4,0.7-1.5,1.5-2.1,1.5c-0.5,0-0.7-0.4-0.4-2l0.8-3.7h-1.1v-0.1l0.4-0.4h0.8l0.3-1.5c0.2-0.1,0.8-0.5,1.1-0.8l0.1,0.1
				c-0.2,0.6-0.4,1.5-0.5,2.2h1.6L767.7,639.7z"/>
			<path class="st8" d="M768.9,640.4c0.7-0.8,1.4-1.3,1.8-1.3c0.5,0,0.4,0.7,0.2,1.9l-0.1,0.4c0.8-1.3,1.7-2.3,2.3-2.3
				c0.3,0,0.6,0.3,0.6,0.6s-0.3,0.7-0.5,0.9c-0.1,0.1-0.2,0.1-0.3,0c-0.2-0.2-0.3-0.4-0.5-0.4c-0.3,0-1,1-1.3,1.6
				c-0.5,0.9-0.7,2.2-1,3.5c-0.3,0.1-0.7,0.2-1,0.3l-0.1-0.1c0.3-1.3,0.8-3.4,1-4.4c0.2-0.8,0.1-0.9,0-0.9s-0.5,0.2-0.9,0.6
				L768.9,640.4z"/>
			<path class="st8" d="M774.5,640.4c0.4-0.6,1.2-1.4,1.7-1.4s0.7,0.9,0.8,2.1c0.1,1.2,0.2,2.4,0.2,3.3c0.6-0.9,2-2.9,2-4
				c0-0.3-0.1-0.5-0.2-0.7c-0.1-0.2-0.1-0.3,0.1-0.4c0.1-0.2,0.4-0.4,0.6-0.4c0.3,0,0.5,0.3,0.5,0.8c0,0.4-0.1,1-0.5,1.6
				c-1.1,2.1-3.5,5.4-5.1,7.1l-1.5,0.4l-0.1-0.3c1.4-0.9,2.5-2,3.2-3c0-1.1-0.2-3.1-0.3-4.4c-0.1-0.9-0.2-1.2-0.4-1.2
				s-0.5,0.3-0.9,0.7L774.5,640.4z"/>
			<path class="st8" d="M782.7,645.5c-0.4,0-0.7-0.3-0.7-0.8s0.4-0.9,0.9-0.9c0.4,0,0.7,0.3,0.7,0.8
				C783.6,645.2,783.2,645.5,782.7,645.5z M783.3,641.2c-0.4,0-0.7-0.3-0.7-0.8s0.4-0.9,0.9-0.9c0.4,0,0.7,0.3,0.7,0.8
				C784.2,640.9,783.8,641.2,783.3,641.2z"/>
			<path class="st8" d="M792.8,644.1c-0.7,1-1.6,1.4-2,1.4s-0.5-0.3-0.3-1.5c0.1-0.5,0.2-0.8,0.3-1.1c-0.6,0.8-1.2,1.5-1.9,2.1
				c-0.4,0.3-0.9,0.6-1.4,0.6c-0.4,0-1-0.3-0.6-2c0.2-0.9,0.5-1.9,0.7-2.9c0.1-0.4,0.1-0.5,0-0.5c-0.2,0-0.6,0.3-0.9,0.6l-0.2-0.4
				c0.7-0.7,1.6-1.3,2-1.3s0.4,0.4,0.2,1.5c-0.2,0.9-0.5,1.9-0.7,2.8c-0.2,1-0.1,1.2,0.2,1.2c0.5,0,1.3-0.7,2-1.6
				c0.4-0.5,0.8-1.2,1-2c0.1-0.3,0.2-0.9,0.3-1.5c0.3-0.1,0.7-0.2,1-0.4h0.2c-0.4,1.6-0.9,3.8-1.1,5c0,0.3,0,0.5,0.1,0.5
				s0.5-0.2,1-0.7L792.8,644.1z"/>
			<path class="st8" d="M794.9,645.5c-0.4,0-0.7-0.3-0.7-0.8s0.4-0.9,0.9-0.9c0.4,0,0.7,0.3,0.7,0.8
				C795.8,645.2,795.3,645.5,794.9,645.5z"/>
			<path class="st8" d="M801.5,639.8c0,0.2-0.2,0.6-0.4,0.7c-0.1,0.1-0.2,0-0.3-0.1c-0.4-0.4-0.7-0.6-1.1-0.6
				c-0.4,0-0.8,0.3-0.8,0.8s0.4,0.8,0.9,1.2c0.8,0.7,1.2,1,1.2,1.6c0,1.1-1.5,2.2-2.6,2.2c-0.7,0-1.3-0.5-1.3-1
				c0-0.3,0.3-0.7,0.6-0.7c0.1,0,0.2,0,0.2,0.1c0.3,0.5,0.8,0.8,1.2,0.8c0.6,0,0.9-0.4,0.9-0.9c0-0.3-0.2-0.7-0.8-1.2
				c-0.7-0.5-1.2-0.9-1.2-1.6c0-0.4,0.2-0.9,0.7-1.4c0.4-0.4,1.1-0.7,1.6-0.7C801,639,801.5,639.4,801.5,639.8z"/>
			<path class="st8" d="M803.3,645.5c-0.4,0-0.7-0.3-0.7-0.8s0.4-0.9,0.9-0.9c0.4,0,0.7,0.3,0.7,0.8
				C804.2,645.2,803.7,645.5,803.3,645.5z"/>
			<path class="st8" d="M727.7,658.7l-6.3,3.3v-1l5.3-2.7l-5.3-2.7v-0.9l6.3,3.3V658.7z"/>
			<path class="st8" d="M737.9,656.5c-0.3,0-1,0.1-1.4,0.1c-0.6,2.9-0.8,3.8-0.9,4.2c-0.1,0.4,0,0.6,0.1,0.6c0.3,0,0.7-0.4,1.3-0.9
				l0.2,0.4c-0.4,0.7-1.5,1.5-2.1,1.5c-0.5,0-0.7-0.4-0.4-2l0.8-3.7h-1.1v-0.1l0.4-0.4h0.8l0.3-1.5c0.2-0.1,0.8-0.5,1.1-0.8l0.1,0.1
				c-0.2,0.6-0.4,1.5-0.5,2.2h1.6L737.9,656.5z"/>
			<path class="st8" d="M738.8,657.2c0.4-0.6,1.2-1.4,1.7-1.4s0.7,0.9,0.8,2.1c0.1,1.2,0.2,2.4,0.2,3.3c0.6-0.9,2-2.9,2-3.9
				c0-0.3-0.1-0.5-0.2-0.7c-0.1-0.2-0.1-0.3,0.1-0.4c0.1-0.2,0.4-0.4,0.6-0.4c0.3,0,0.5,0.3,0.5,0.8c0,0.4-0.1,1-0.5,1.6
				c-1.1,2.1-3.5,5.4-5.1,7.1l-1.5,0.4l-0.1-0.3c1.4-0.9,2.5-2,3.2-3c0-1.1-0.2-3.1-0.3-4.4c-0.1-0.9-0.2-1.2-0.4-1.2
				s-0.5,0.3-0.9,0.7L738.8,657.2z"/>
			<path class="st8" d="M748.4,656c0.4-0.1,0.9-0.2,1.3-0.2c1.5,0,2,0.7,2,1.9c0,1-0.4,2-1.2,2.9c-0.7,0.8-1.7,1.4-2.6,1.6
				c-0.2,0-0.5,0-0.8-0.1l-0.4,2c-0.2,0.8-0.1,0.9,0.6,1h0.4l-0.1,0.4l-3.3,0.2l0.1-0.4c1-0.2,1.1-0.3,1.2-1.1
				c0.5-2.5,1.1-4.9,1.6-7.3c-0.4,0.2-0.8,0.3-1.1,0.5L746,657c0.4-0.3,0.9-0.5,1.4-0.7l0.2-0.6c0.3-0.3,0.7-0.6,1-0.8l0.1,0.1
				L748.4,656z M747.3,661.2c0.2,0.2,0.5,0.5,0.9,0.5c1,0,2.4-1.9,2.4-3.7c0-1.2-0.7-1.6-1.5-1.6c-0.2,0-0.5,0-0.8,0.1
				C748,657.9,747.6,659.8,747.3,661.2z"/>
			<path class="st8" d="M755.1,662.3c-0.7,0-1.6-0.4-1.6-2.1c0-1.3,0.6-2.9,1.7-3.7c0.6-0.4,1.3-0.7,1.9-0.7c0.8,0,1.2,0.5,1.2,1.1
				c0,1.4-2.1,2.1-3.6,2.3c0,0.2,0,0.4,0,0.6c0,0.8,0.2,1.6,1.1,1.6c0.6,0,1.4-0.4,2.1-1.1l0.2,0.4
				C756.9,662,755.8,662.3,755.1,662.3z M754.7,658.8c2-0.4,2.5-1,2.5-1.7c0-0.5-0.3-0.7-0.7-0.7
				C756.1,656.4,755.2,656.7,754.7,658.8z"/>
			<path class="st8" d="M761,662.3c-0.4,0-0.7-0.3-0.7-0.8s0.4-0.9,0.9-0.9c0.4,0,0.7,0.3,0.7,0.8C761.9,662,761.5,662.3,761,662.3z
				 M761.6,658c-0.4,0-0.7-0.3-0.7-0.8s0.4-0.9,0.9-0.9c0.4,0,0.7,0.3,0.7,0.8C762.5,657.7,762.1,658,761.6,658z"/>
			<path class="st8" d="M767.3,660.9c-0.7,0.9-1.6,1.4-2,1.4s-0.5-0.4-0.3-1.5c0.2-0.9,0.6-2.4,0.9-3.6c0.1-0.3,0-0.4,0-0.4
				c-0.1,0-0.6,0.3-0.9,0.6l-0.2-0.4c0.7-0.7,1.6-1.3,2.1-1.3c0.4,0,0.4,0.5,0.1,1.5c-0.3,1-0.6,2.4-0.9,3.4c-0.1,0.4-0.1,0.5,0,0.5
				s0.5-0.2,1-0.7L767.3,660.9z M767.7,653.6c0,0.4-0.3,0.8-0.7,0.8s-0.6-0.3-0.6-0.6c0-0.4,0.3-0.8,0.8-0.8
				C767.5,652.9,767.7,653.2,767.7,653.6z"/>
			<path class="st8" d="M775.6,660.9c-0.7,1-1.6,1.4-2,1.4s-0.6-0.3-0.3-1.5c0.3-1,0.5-2,0.7-2.9s0.2-1.2-0.2-1.2
				c-0.5,0-1.5,0.8-2.5,2.2c-0.3,0.4-0.4,0.7-0.5,1.2s-0.3,1.3-0.4,1.9c-0.4,0.1-0.7,0.2-1,0.3l-0.1-0.1c0.4-1.5,0.8-3.2,1.1-4.8
				c0.1-0.4,0-0.6-0.1-0.6c-0.2,0-0.5,0.3-0.9,0.6l-0.2-0.4c0.6-0.8,1.4-1.3,1.8-1.3c0.4,0,0.5,0.5,0.2,1.7l-0.2,0.8
				c1.2-1.6,2.5-2.5,3.3-2.5c0.5,0,0.9,0.3,0.4,2.2c-0.2,0.8-0.4,1.8-0.7,2.7c-0.1,0.4-0.1,0.5,0,0.5s0.5-0.2,1-0.8L775.6,660.9z"/>
			<path class="st8" d="M781.2,656.5c-0.3,0-1,0.1-1.4,0.1c-0.6,2.9-0.8,3.8-0.9,4.2c-0.1,0.4,0,0.6,0.1,0.6c0.3,0,0.7-0.4,1.3-0.9
				l0.2,0.4c-0.4,0.7-1.5,1.5-2.1,1.5c-0.5,0-0.7-0.4-0.4-2l0.8-3.7h-1.1v-0.1l0.4-0.4h0.8l0.3-1.5c0.2-0.1,0.8-0.5,1.1-0.8l0.1,0.1
				c-0.2,0.6-0.4,1.5-0.5,2.2h1.6L781.2,656.5z"/>
			<path class="st8" d="M784,662.3c-0.7,0-1.6-0.4-1.6-2.1c0-1.3,0.6-2.9,1.7-3.7c0.6-0.4,1.3-0.7,1.9-0.7c0.8,0,1.2,0.5,1.2,1.1
				c0,1.4-2.1,2.1-3.6,2.3c0,0.2,0,0.4,0,0.6c0,0.8,0.2,1.6,1.1,1.6c0.6,0,1.4-0.4,2.1-1.1l0.2,0.4C785.8,662,784.7,662.3,784,662.3
				z M783.6,658.8c2-0.4,2.5-1,2.5-1.7c0-0.5-0.3-0.7-0.7-0.7C785,656.4,784,656.7,783.6,658.8z"/>
			<path class="st8" d="M788.8,657.2c0.7-0.8,1.4-1.3,1.8-1.3c0.5,0,0.4,0.7,0.2,1.9l-0.1,0.4c0.8-1.3,1.7-2.3,2.3-2.3
				c0.3,0,0.6,0.3,0.6,0.6s-0.3,0.7-0.5,0.9c-0.1,0.1-0.2,0.1-0.3,0c-0.2-0.2-0.3-0.4-0.5-0.4c-0.3,0-1,1-1.3,1.6
				c-0.5,0.9-0.7,2.2-1,3.5c-0.3,0.1-0.7,0.2-1,0.3l-0.1-0.1c0.3-1.3,0.8-3.4,1-4.4c0.2-0.8,0.1-0.9,0-0.9s-0.5,0.2-0.9,0.6
				L788.8,657.2z"/>
			<path class="st8" d="M801,660.9c-0.7,1-1.6,1.4-2,1.4s-0.6-0.3-0.3-1.5c0.3-1,0.5-2,0.7-2.9s0.2-1.2-0.2-1.2
				c-0.5,0-1.5,0.8-2.5,2.2c-0.3,0.4-0.4,0.7-0.5,1.2s-0.3,1.3-0.4,1.9c-0.4,0.1-0.7,0.2-1,0.3l-0.1-0.1c0.4-1.5,0.8-3.2,1.1-4.8
				c0.1-0.4,0-0.6-0.1-0.6c-0.2,0-0.5,0.3-0.9,0.6l-0.2-0.4c0.6-0.8,1.4-1.3,1.8-1.3c0.4,0,0.5,0.5,0.2,1.7l-0.2,0.8
				c1.2-1.6,2.5-2.5,3.3-2.5c0.5,0,0.9,0.3,0.4,2.2c-0.2,0.8-0.4,1.8-0.7,2.7c-0.1,0.4-0.1,0.5,0,0.5s0.5-0.2,1-0.8L801,660.9z"/>
			<path class="st8" d="M804.4,662.3c-0.7,0-1.6-0.4-1.6-2.1c0-1.3,0.6-2.9,1.7-3.7c0.6-0.4,1.3-0.7,1.9-0.7c0.8,0,1.2,0.5,1.2,1.1
				c0,1.4-2.1,2.1-3.6,2.3c0,0.2,0,0.4,0,0.6c0,0.8,0.2,1.6,1.1,1.6c0.6,0,1.4-0.4,2.1-1.1l0.2,0.4
				C806.3,662,805.1,662.3,804.4,662.3z M804.1,658.8c2-0.4,2.5-1,2.5-1.7c0-0.5-0.3-0.7-0.7-0.7
				C805.5,656.4,804.5,656.7,804.1,658.8z"/>
			<path class="st8" d="M813,656.5c-0.3,0-1,0.1-1.4,0.1c-0.6,2.9-0.8,3.8-0.9,4.2c-0.1,0.4,0,0.6,0.1,0.6c0.3,0,0.7-0.4,1.3-0.9
				l0.2,0.4c-0.4,0.7-1.5,1.5-2.1,1.5c-0.5,0-0.7-0.4-0.4-2l0.8-3.7h-1.1v-0.1l0.4-0.4h0.8l0.3-1.5c0.2-0.1,0.8-0.5,1.1-0.8l0.1,0.1
				c-0.2,0.6-0.4,1.5-0.5,2.2h1.6L813,656.5z"/>
			<path class="st8" d="M821.9,656.6c0,0.2-0.2,0.6-0.4,0.7c-0.1,0.1-0.2,0-0.3-0.1c-0.4-0.4-0.7-0.6-1.1-0.6
				c-0.4,0-0.8,0.3-0.8,0.8s0.4,0.8,0.9,1.2c0.8,0.7,1.2,1,1.2,1.6c0,1.1-1.5,2.2-2.6,2.2c-0.7,0-1.3-0.5-1.3-1
				c0-0.3,0.3-0.7,0.6-0.7c0.1,0,0.2,0,0.2,0.1c0.3,0.5,0.8,0.8,1.2,0.8c0.6,0,0.9-0.4,0.9-0.9c0-0.3-0.2-0.7-0.8-1.2
				c-0.7-0.5-1.2-0.9-1.2-1.6c0-0.4,0.2-0.9,0.7-1.4c0.4-0.4,1.1-0.7,1.6-0.7C821.4,655.8,821.9,656.2,821.9,656.6z"/>
			<path class="st8" d="M825.1,662.3c-0.7,0-1.6-0.4-1.6-2.1c0-1.3,0.6-2.9,1.7-3.7c0.6-0.4,1.3-0.7,1.9-0.7c0.8,0,1.2,0.5,1.2,1.1
				c0,1.4-2.1,2.1-3.6,2.3c0,0.2,0,0.4,0,0.6c0,0.8,0.2,1.6,1.1,1.6c0.6,0,1.4-0.4,2.1-1.1l0.2,0.4
				C826.9,662,825.8,662.3,825.1,662.3z M824.7,658.8c2-0.4,2.5-1,2.5-1.7c0-0.5-0.3-0.7-0.7-0.7
				C826.1,656.4,825.1,656.7,824.7,658.8z"/>
			<path class="st8" d="M829.9,657.2c0.7-0.8,1.4-1.3,1.8-1.3c0.5,0,0.4,0.7,0.2,1.9l-0.1,0.4c0.8-1.3,1.7-2.3,2.3-2.3
				c0.3,0,0.6,0.3,0.6,0.6s-0.3,0.7-0.5,0.9c-0.1,0.1-0.2,0.1-0.3,0c-0.2-0.2-0.3-0.4-0.5-0.4c-0.3,0-1,1-1.3,1.6
				c-0.5,0.9-0.7,2.2-1,3.5c-0.3,0.1-0.7,0.2-1,0.3l-0.1-0.1c0.3-1.3,0.8-3.4,1-4.4c0.2-0.8,0.1-0.9,0-0.9s-0.5,0.2-0.9,0.6
				L829.9,657.2z"/>
			<path class="st8" d="M835.4,657.2c0.5-0.7,1.3-1.4,1.7-1.4s0.5,0.4,0.6,1.6c0.1,1.4,0.1,2.7,0.1,3.6c0.6-0.8,2.3-2.6,2.3-3.6
				c0-0.2-0.1-0.5-0.2-0.7c-0.1-0.1-0.1-0.2,0-0.3c0.1-0.2,0.5-0.6,0.8-0.6s0.5,0.3,0.5,0.8c0,0.4-0.2,1.1-0.8,2
				c-0.8,1.1-2.2,2.7-3,3.7H837c-0.1-1.4-0.1-3.4-0.2-4.6c-0.1-0.7-0.1-0.9-0.3-0.9c-0.1,0-0.4,0.1-0.8,0.7L835.4,657.2z"/>
			<path class="st8" d="M845.1,660.9c-0.7,0.9-1.6,1.4-2,1.4s-0.5-0.4-0.3-1.5c0.2-0.9,0.6-2.4,0.9-3.6c0.1-0.3,0-0.4,0-0.4
				c-0.1,0-0.6,0.3-0.9,0.6l-0.2-0.4c0.7-0.7,1.6-1.3,2.1-1.3c0.4,0,0.4,0.5,0.1,1.5c-0.3,1-0.6,2.4-0.9,3.4c-0.1,0.4-0.1,0.5,0,0.5
				s0.5-0.2,1-0.7L845.1,660.9z M845.5,653.6c0,0.4-0.3,0.8-0.7,0.8s-0.6-0.3-0.6-0.6c0-0.4,0.3-0.8,0.8-0.8
				C845.3,652.9,845.5,653.2,845.5,653.6z"/>
			<path class="st8" d="M851.4,660.8c-0.9,1-1.9,1.5-2.8,1.5c-0.9,0-1.6-0.7-1.6-2.1c0-1.2,0.5-2.5,1.4-3.4c0.7-0.6,1.6-1.1,2.2-1.1
				c0.6,0,1.1,0.3,1.1,0.6s-0.2,0.6-0.5,0.7c-0.1,0.1-0.2,0-0.3-0.1c-0.3-0.4-0.6-0.6-1.1-0.6c-1.1,0-1.7,1.8-1.7,3.4
				c0,1,0.4,1.5,1,1.5c0.7,0,1.6-0.6,2-1.1L851.4,660.8z"/>
			<path class="st8" d="M854.8,662.3c-0.7,0-1.6-0.4-1.6-2.1c0-1.3,0.6-2.9,1.7-3.7c0.6-0.4,1.3-0.7,1.9-0.7c0.8,0,1.2,0.5,1.2,1.1
				c0,1.4-2.1,2.1-3.6,2.3c0,0.2,0,0.4,0,0.6c0,0.8,0.2,1.6,1.1,1.6c0.6,0,1.4-0.4,2.1-1.1l0.2,0.4
				C856.6,662,855.5,662.3,854.8,662.3z M854.4,658.8c2-0.4,2.5-1,2.5-1.7c0-0.5-0.3-0.7-0.7-0.7
				C855.8,656.4,854.8,656.7,854.4,658.8z"/>
			<path class="st8" d="M727.7,675.5l-6.3,3.3v-0.9l5.3-2.7l-5.3-2.7v-0.9l6.3,3.3V675.5z"/>
			<path class="st8" d="M734.2,674c0.7-0.8,1.4-1.3,1.8-1.3c0.5,0,0.4,0.7,0.2,1.9l-0.1,0.4c0.8-1.3,1.7-2.3,2.3-2.3
				c0.3,0,0.6,0.3,0.6,0.6s-0.3,0.7-0.5,0.9c-0.1,0.1-0.2,0.1-0.3,0c-0.2-0.2-0.3-0.4-0.5-0.4c-0.3,0-1,1-1.3,1.6
				c-0.5,0.9-0.7,2.2-1,3.5c-0.3,0.1-0.7,0.2-1,0.3l-0.1-0.1c0.3-1.3,0.8-3.4,1-4.4c0.2-0.8,0.1-0.9,0-0.9s-0.5,0.2-0.9,0.6
				L734.2,674z"/>
			<path class="st8" d="M746,677.7c-0.7,0.9-1.6,1.4-1.9,1.4s-0.6-0.3-0.3-1.6l0.2-1c-0.5,0.9-1.3,1.6-1.7,1.9
				c-0.4,0.4-1,0.7-1.4,0.7c-0.5,0-0.9-0.6-0.9-1.7c0-1.3,0.6-2.8,1.6-3.6c0.7-0.7,1.7-1.1,2.7-1.1c0.7,0,1.4,0.2,1.6,0.2
				c-0.3,0.9-0.8,3.1-1,4.7c-0.1,0.4,0,0.5,0.1,0.5c0.2,0,0.5-0.2,1-0.7L746,677.7z M743.5,676.5c0.3-0.4,0.7-1.1,0.8-1.7
				c0.1-0.5,0.3-1,0.3-1.4c-0.2-0.1-0.7-0.2-1.1-0.2c-1.7,0-2.4,2.1-2.4,4c0,0.6,0.2,1,0.4,1C742,678.1,742.6,677.7,743.5,676.5z"/>
			<path class="st8" d="M754.1,677.7c-0.7,1-1.6,1.4-2,1.4s-0.6-0.3-0.3-1.5c0.3-1,0.5-2,0.7-2.9s0.2-1.2-0.2-1.2
				c-0.5,0-1.5,0.8-2.5,2.2c-0.3,0.4-0.4,0.7-0.5,1.2s-0.3,1.3-0.4,1.9c-0.4,0.1-0.7,0.2-1,0.3l-0.1-0.1c0.4-1.5,0.8-3.2,1.1-4.8
				c0.1-0.4,0-0.6-0.1-0.6c-0.2,0-0.5,0.3-0.9,0.6l-0.2-0.4c0.6-0.8,1.4-1.3,1.8-1.3c0.4,0,0.5,0.5,0.2,1.7l-0.2,0.8
				c1.2-1.6,2.5-2.5,3.3-2.5c0.5,0,0.9,0.3,0.4,2.2c-0.2,0.8-0.4,1.8-0.7,2.7c-0.1,0.4-0.1,0.5,0,0.5s0.5-0.2,1-0.8L754.1,677.7z"/>
			<path class="st8" d="M761.9,677.8c-0.7,1-1.3,1.3-1.7,1.3c-0.3,0-0.6-0.3-1.1-1.3c-0.3-0.7-0.6-1.4-0.9-2.1c-0.6,0.7-0.9,1-1,1.5
				c-0.2,0.6-0.2,1.1-0.4,1.7c-0.4,0.1-0.7,0.2-1,0.3l-0.1-0.1c0.6-2.7,1.5-6.7,1.8-8.7c0.1-0.5,0.1-0.6-1-0.6l0.1-0.4
				c1.1-0.2,1.9-0.5,2.1-0.5c0.1,0,0.2,0.1,0.1,0.4c-0.4,1.8-1,4.5-1.5,6.6c0.8-0.9,2.8-3.3,3.8-3.3c0.4,0,0.6,0.2,0.6,0.5
				c0,0.2-0.2,0.6-0.4,0.8c-0.2,0.1-0.2,0.1-0.4,0.1c-0.1-0.1-0.4-0.3-0.7-0.3s-1.1,0.8-1.6,1.3c0.2,0.6,0.7,1.6,1.1,2.3
				c0.3,0.6,0.5,0.9,0.7,0.9s0.5-0.2,0.9-0.7L761.9,677.8z"/>
			<path class="st8" d="M766,677.7c-0.7,0.9-1.6,1.4-2,1.4s-0.5-0.4-0.3-1.5c0.2-0.9,0.6-2.4,0.9-3.6c0.1-0.3,0-0.4,0-0.4
				c-0.1,0-0.6,0.3-0.9,0.6l-0.2-0.4c0.7-0.7,1.6-1.3,2.1-1.3c0.4,0,0.4,0.5,0.1,1.5c-0.3,1-0.6,2.4-0.9,3.4c-0.1,0.4-0.1,0.5,0,0.5
				s0.5-0.2,1-0.7L766,677.7z M766.4,670.4c0,0.4-0.3,0.8-0.7,0.8s-0.6-0.3-0.6-0.6c0-0.4,0.3-0.8,0.8-0.8
				C766.2,669.7,766.4,670,766.4,670.4z"/>
			<path class="st8" d="M774.3,677.7c-0.7,1-1.6,1.4-2,1.4s-0.6-0.3-0.3-1.5c0.3-1,0.5-2,0.7-2.9s0.2-1.2-0.2-1.2
				c-0.5,0-1.5,0.8-2.5,2.2c-0.3,0.4-0.4,0.7-0.5,1.2s-0.3,1.3-0.4,1.9c-0.4,0.1-0.7,0.2-1,0.3L768,679c0.4-1.5,0.8-3.2,1.1-4.8
				c0.1-0.4,0-0.6-0.1-0.6c-0.2,0-0.5,0.3-0.9,0.6l-0.2-0.4c0.6-0.8,1.4-1.3,1.8-1.3c0.4,0,0.5,0.5,0.2,1.7l-0.2,0.8
				c1.2-1.6,2.5-2.5,3.3-2.5c0.5,0,0.9,0.3,0.4,2.2c-0.2,0.8-0.4,1.8-0.7,2.7c-0.1,0.4-0.1,0.5,0,0.5s0.5-0.2,1-0.8L774.3,677.7z"/>
			<path class="st8" d="M778,677.2c-0.2,0.2-0.4,0.4-0.4,0.5c0,0.2,0.3,0.5,1.1,0.9c1.5,0.7,2,1.2,2,1.8c0,1.2-2,2.2-3.4,2.2
				s-2.6-0.7-2.6-1.6c0-0.6,0.8-1.2,2.4-2.1c-0.4-0.2-0.5-0.5-0.5-0.7s0.3-0.6,1-1L778,677.2z M779.7,680.9c0-0.3-0.1-0.6-0.7-1
				c-0.5-0.3-1.2-0.7-1.5-0.8c-1.1,0.6-1.6,1.1-1.6,1.6c0,0.7,0.9,1.2,2,1.2C779,682,779.7,681.5,779.7,680.9z M776.3,675.6
				c0-1.1,0.6-2.1,1.4-2.5c0.5-0.3,1.1-0.5,1.5-0.5s0.9,0.1,1.2,0.4c0.8,0,1.3-0.2,1.6-0.3l0.1,0.3c-0.4,0.5-0.9,0.6-1.3,0.7
				c0,0.2,0.1,0.4,0.1,0.6c0,1-0.5,1.8-1,2.2c-0.6,0.5-1.4,0.8-2.1,0.8C776.8,677.3,776.3,676.5,776.3,675.6z M779.8,674.5
				c0-0.9-0.3-1.4-1-1.4c-0.8,0-1.5,1.1-1.5,2.3c0,0.8,0.4,1.3,0.9,1.3C779.2,676.8,779.8,675.8,779.8,674.5z"/>
			<path class="st8" d="M784.3,670.8c0.5-0.5,1.2-0.8,1.9-0.8c1.4,0,2.2,1,2.2,2.2c0,1.4-0.9,2.4-2.5,3.8l-2.2,1.9h2.5
				c0.8,0,1-0.1,1.7-1.1l0.3,0.2c-0.3,0.6-0.7,1.4-0.9,1.9h-5.2c0-0.1,0-0.2,0-0.3c3.2-2.8,5-4.4,5-6.2c0-0.8-0.4-1.5-1.5-1.5
				c-0.9,0-1.6,0.7-2,1.3l-0.3-0.3L784.3,670.8z"/>
			<path class="st8" d="M792.3,679.1c-1.6,0-2.1-1.3-2.1-2.9c0-2.5,1.3-6.2,3.8-6.2c1.7,0,2.1,1.5,2.1,2.9
				C796.1,675.3,794.8,679.1,792.3,679.1z M793.9,670.5c-1.7,0-2.6,4.1-2.6,6c0,1.1,0.2,2.1,1.1,2.1c1.7,0,2.5-4.2,2.5-6
				C794.9,671.5,794.8,670.5,793.9,670.5z"/>
			<path class="st8" d="M800.6,677.2c-0.2,0.8-0.2,1.1,0.7,1.2c0.1,0,0.5,0,0.7,0.1l-0.1,0.4h-4.3l0.1-0.4c0.1,0,0.5,0,0.6,0
				c0.9-0.1,1-0.2,1.2-1.3l1-5.2c0.2-0.8,0.1-0.9-0.7-0.9c-0.1,0-0.4,0-0.5,0c0-0.1,0.1-0.3,0.1-0.4c0.9-0.1,1.8-0.4,2.7-0.7
				L800.6,677.2z"/>
			<path class="st8" d="M810.8,673c0,2.8-2,4.9-4.2,5.7c-0.4,0.2-1.4,0.4-1.7,0.4l-0.1-0.4c1.9-0.4,3.7-1.7,4.6-3.9
				c-0.3,0.2-0.8,0.4-1.1,0.5s-0.6,0.2-0.8,0.2c-1.1,0-2.1-0.9-2.1-2.3c0-1.8,1.4-3.2,3-3.2C810.1,670,810.8,671.4,810.8,673z
				 M806.5,672.9c0,1.1,0.6,1.9,1.6,1.9c0.4,0,1.1-0.2,1.4-0.4c0.1-0.4,0.2-0.9,0.2-1.6c0-0.7-0.2-2.2-1.5-2.2
				C807.2,670.5,806.5,671.6,806.5,672.9z"/>
			<path class="st8" d="M813.4,679.1c-0.4,0-0.7-0.3-0.7-0.8s0.4-0.9,0.9-0.9c0.4,0,0.7,0.3,0.7,0.8
				C814.3,678.8,813.9,679.1,813.4,679.1z M814,674.8c-0.4,0-0.7-0.3-0.7-0.8s0.4-0.9,0.9-0.9c0.4,0,0.7,0.3,0.7,0.8
				C814.9,674.5,814.5,674.8,814,674.8z"/>
			<path class="st8" d="M820.2,677.2c-0.2,0.8-0.2,1.1,0.7,1.2c0.1,0,0.5,0,0.7,0.1l-0.1,0.4h-4.3l0.1-0.4c0.1,0,0.5,0,0.6,0
				c0.9-0.1,1-0.2,1.2-1.3l1-5.2c0.2-0.8,0.1-0.9-0.7-0.9c-0.1,0-0.4,0-0.5,0c0-0.1,0.1-0.3,0.1-0.4c0.9-0.1,1.8-0.4,2.7-0.7
				L820.2,677.2z"/>
			<path class="st8" d="M727.7,692.3l-6.3,3.3v-0.9l5.3-2.7l-5.3-2.7v-0.9l6.3,3.3V692.3z"/>
			<path class="st8" d="M734.2,690.8c0.7-0.8,1.4-1.3,1.8-1.3c0.5,0,0.4,0.7,0.2,1.9l-0.1,0.4c0.8-1.3,1.7-2.3,2.3-2.3
				c0.3,0,0.6,0.3,0.6,0.6s-0.3,0.7-0.5,0.9c-0.1,0.1-0.2,0.1-0.3,0c-0.2-0.2-0.3-0.4-0.5-0.4c-0.3,0-1,1-1.3,1.6
				c-0.5,0.9-0.7,2.2-1,3.5c-0.3,0.1-0.7,0.2-1,0.3l-0.1-0.1c0.3-1.3,0.8-3.4,1-4.4c0.2-0.8,0.1-0.9,0-0.9s-0.5,0.2-0.9,0.6
				L734.2,690.8z"/>
			<path class="st8" d="M746,694.5c-0.7,0.9-1.6,1.4-1.9,1.4s-0.6-0.3-0.3-1.6l0.2-1c-0.5,0.9-1.3,1.6-1.7,1.9
				c-0.4,0.4-1,0.7-1.4,0.7c-0.5,0-0.9-0.6-0.9-1.7c0-1.3,0.6-2.8,1.6-3.6c0.7-0.7,1.7-1.1,2.7-1.1c0.7,0,1.4,0.2,1.6,0.2
				c-0.3,0.9-0.8,3.1-1,4.7c-0.1,0.4,0,0.5,0.1,0.5c0.2,0,0.5-0.2,1-0.7L746,694.5z M743.5,693.3c0.3-0.4,0.7-1.1,0.8-1.7
				c0.1-0.5,0.3-1,0.3-1.4c-0.2-0.1-0.7-0.2-1.1-0.2c-1.7,0-2.4,2.1-2.4,4c0,0.6,0.2,1,0.4,1C742,694.9,742.6,694.5,743.5,693.3z"/>
			<path class="st8" d="M754.1,694.5c-0.7,1-1.6,1.4-2,1.4s-0.6-0.3-0.3-1.5c0.3-1,0.5-2,0.7-2.9s0.2-1.2-0.2-1.2
				c-0.5,0-1.5,0.8-2.5,2.2c-0.3,0.4-0.4,0.7-0.5,1.2s-0.3,1.3-0.4,1.9c-0.4,0.1-0.7,0.2-1,0.3l-0.1-0.1c0.4-1.5,0.8-3.2,1.1-4.8
				c0.1-0.4,0-0.6-0.1-0.6c-0.2,0-0.5,0.3-0.9,0.6l-0.2-0.4c0.6-0.8,1.4-1.3,1.8-1.3c0.4,0,0.5,0.5,0.2,1.7l-0.2,0.8
				c1.2-1.6,2.5-2.5,3.3-2.5c0.5,0,0.9,0.3,0.4,2.2c-0.2,0.8-0.4,1.8-0.7,2.7c-0.1,0.4-0.1,0.5,0,0.5s0.5-0.2,1-0.8L754.1,694.5z"/>
			<path class="st8" d="M761.9,694.6c-0.7,1-1.3,1.3-1.7,1.3c-0.3,0-0.6-0.3-1.1-1.3c-0.3-0.7-0.6-1.4-0.9-2.1c-0.6,0.7-0.9,1-1,1.5
				c-0.2,0.6-0.2,1.1-0.4,1.7c-0.4,0.1-0.7,0.2-1,0.3l-0.1-0.1c0.6-2.7,1.5-6.7,1.8-8.7c0.1-0.5,0.1-0.6-1-0.6l0.1-0.4
				c1.1-0.2,1.9-0.5,2.1-0.5c0.1,0,0.2,0.1,0.1,0.4c-0.4,1.8-1,4.5-1.5,6.6c0.8-0.9,2.8-3.3,3.8-3.3c0.4,0,0.6,0.2,0.6,0.5
				c0,0.2-0.2,0.6-0.4,0.8c-0.2,0.1-0.2,0.1-0.4,0.1c-0.1-0.1-0.4-0.3-0.7-0.3s-1.1,0.8-1.6,1.3c0.2,0.6,0.7,1.6,1.1,2.3
				c0.3,0.6,0.5,0.9,0.7,0.9s0.5-0.2,0.9-0.7L761.9,694.6z"/>
			<path class="st8" d="M766,694.5c-0.7,0.9-1.6,1.4-2,1.4s-0.5-0.4-0.3-1.5c0.2-0.9,0.6-2.4,0.9-3.6c0.1-0.3,0-0.4,0-0.4
				c-0.1,0-0.6,0.3-0.9,0.6l-0.2-0.4c0.7-0.7,1.6-1.3,2.1-1.3c0.4,0,0.4,0.5,0.1,1.5c-0.3,1-0.6,2.4-0.9,3.4c-0.1,0.4-0.1,0.5,0,0.5
				s0.5-0.2,1-0.7L766,694.5z M766.4,687.2c0,0.4-0.3,0.8-0.7,0.8s-0.6-0.3-0.6-0.6c0-0.4,0.3-0.8,0.8-0.8
				C766.2,686.5,766.4,686.8,766.4,687.2z"/>
			<path class="st8" d="M774.3,694.5c-0.7,1-1.6,1.4-2,1.4s-0.6-0.3-0.3-1.5c0.3-1,0.5-2,0.7-2.9s0.2-1.2-0.2-1.2
				c-0.5,0-1.5,0.8-2.5,2.2c-0.3,0.4-0.4,0.7-0.5,1.2s-0.3,1.3-0.4,1.9c-0.4,0.1-0.7,0.2-1,0.3l-0.1-0.1c0.4-1.5,0.8-3.2,1.1-4.8
				c0.1-0.4,0-0.6-0.1-0.6c-0.2,0-0.5,0.3-0.9,0.6l-0.2-0.4c0.6-0.8,1.4-1.3,1.8-1.3c0.4,0,0.5,0.5,0.2,1.7l-0.2,0.8
				c1.2-1.6,2.5-2.5,3.3-2.5c0.5,0,0.9,0.3,0.4,2.2c-0.2,0.8-0.4,1.8-0.7,2.7c-0.1,0.4-0.1,0.5,0,0.5s0.5-0.2,1-0.8L774.3,694.5z"/>
			<path class="st8" d="M778,694c-0.2,0.2-0.4,0.4-0.4,0.5c0,0.2,0.3,0.5,1.1,0.9c1.5,0.7,2,1.2,2,1.8c0,1.2-2,2.2-3.4,2.2
				s-2.6-0.7-2.6-1.6c0-0.6,0.8-1.2,2.4-2.1c-0.4-0.2-0.5-0.5-0.5-0.7s0.3-0.6,1-1L778,694z M779.7,697.7c0-0.3-0.1-0.6-0.7-1
				c-0.5-0.3-1.2-0.7-1.5-0.8c-1.1,0.6-1.6,1.1-1.6,1.6c0,0.7,0.9,1.2,2,1.2C779,698.8,779.7,698.3,779.7,697.7z M776.3,692.4
				c0-1.1,0.6-2.1,1.4-2.5c0.5-0.3,1.1-0.5,1.5-0.5s0.9,0.1,1.2,0.4c0.8,0,1.3-0.2,1.6-0.3l0.1,0.3c-0.4,0.5-0.9,0.6-1.3,0.7
				c0,0.2,0.1,0.4,0.1,0.6c0,1-0.5,1.8-1,2.2c-0.6,0.5-1.4,0.8-2.1,0.8C776.8,694.1,776.3,693.3,776.3,692.4z M779.8,691.3
				c0-0.9-0.3-1.4-1-1.4c-0.8,0-1.5,1.1-1.5,2.3c0,0.8,0.4,1.3,0.9,1.3C779.2,693.6,779.8,692.6,779.8,691.3z"/>
			<path class="st8" d="M784.3,687.6c0.5-0.5,1.2-0.8,1.9-0.8c1.4,0,2.2,1,2.2,2.2c0,1.4-0.9,2.4-2.5,3.8l-2.2,1.9h2.5
				c0.8,0,1-0.1,1.7-1.1l0.3,0.2c-0.3,0.6-0.7,1.4-0.9,1.9h-5.2c0-0.1,0-0.2,0-0.3c3.2-2.8,5-4.4,5-6.2c0-0.8-0.4-1.5-1.5-1.5
				c-0.9,0-1.6,0.7-2,1.3l-0.3-0.3L784.3,687.6z"/>
			<path class="st8" d="M792.3,695.9c-1.6,0-2.1-1.3-2.1-2.9c0-2.5,1.3-6.2,3.8-6.2c1.7,0,2.1,1.5,2.1,2.9
				C796.1,692.1,794.8,695.9,792.3,695.9z M793.9,687.3c-1.7,0-2.6,4.1-2.6,6c0,1.1,0.2,2.1,1.1,2.1c1.7,0,2.5-4.2,2.5-6
				C794.9,688.3,794.8,687.3,793.9,687.3z"/>
			<path class="st8" d="M800.6,694c-0.2,0.8-0.2,1.1,0.7,1.2c0.1,0,0.5,0,0.7,0.1l-0.1,0.4h-4.3l0.1-0.4c0.1,0,0.5,0,0.6,0
				c0.9-0.1,1-0.2,1.2-1.3l1-5.2c0.2-0.8,0.1-0.9-0.7-0.9c-0.1,0-0.4,0-0.5,0c0-0.1,0.1-0.3,0.1-0.4c0.9-0.1,1.8-0.4,2.7-0.7
				L800.6,694z"/>
			<path class="st8" d="M810.7,688.8c0,0.5-0.3,1-0.6,1.3c-0.2,0.2-0.6,0.4-1.3,0.9c0.9,0.6,1.6,1.3,1.6,2.3c0,1.4-1.4,2.6-3,2.6
				c-1.4,0-2.5-0.8-2.5-2.1c0-0.8,0.4-1.2,1.1-1.8c0.4-0.2,0.8-0.5,1.2-0.8c-0.6-0.5-1.2-1.1-1.2-2c0-1.3,1.2-2.4,2.7-2.4
				C809.7,686.8,810.7,687.5,810.7,688.8z M809.2,693.6c0-0.9-0.7-1.4-1.7-2.1c-1,0.6-1.6,1.2-1.6,2.2s0.6,1.7,1.5,1.7
				C808.4,695.4,809.2,694.7,809.2,693.6z M807,688.9c0,0.9,0.7,1.4,1.4,1.9c0.9-0.6,1.3-1.2,1.3-2c0-0.9-0.5-1.4-1.2-1.4
				C807.5,687.3,807,688,807,688.9z"/>
			<path class="st8" d="M813.4,695.9c-0.4,0-0.7-0.3-0.7-0.8s0.4-0.9,0.9-0.9c0.4,0,0.7,0.3,0.7,0.8
				C814.3,695.6,813.9,695.9,813.4,695.9z M814,691.6c-0.4,0-0.7-0.3-0.7-0.8s0.4-0.9,0.9-0.9c0.4,0,0.7,0.3,0.7,0.8
				C814.9,691.3,814.5,691.6,814,691.6z"/>
			<path class="st8" d="M820.2,694c-0.2,0.8-0.2,1.1,0.7,1.2c0.1,0,0.5,0,0.7,0.1l-0.1,0.4h-4.3l0.1-0.4c0.1,0,0.5,0,0.6,0
				c0.9-0.1,1-0.2,1.2-1.3l1-5.2c0.2-0.8,0.1-0.9-0.7-0.9c-0.1,0-0.4,0-0.5,0c0-0.1,0.1-0.3,0.1-0.4c0.9-0.1,1.8-0.4,2.7-0.7
				L820.2,694z"/>
			<path class="st8" d="M738.4,711.8c0,0.2-0.1,0.5-0.3,0.6s-0.4,0.3-0.6,0.3c-0.2,0-0.5-0.1-0.6-0.3s-0.3-0.4-0.3-0.6
				s0.1-0.5,0.3-0.6s0.4-0.3,0.6-0.3c0.2,0,0.5,0.1,0.6,0.3S738.4,711.6,738.4,711.8z M742.1,711.8c0,0.2-0.1,0.5-0.3,0.6
				s-0.4,0.3-0.6,0.3c-0.2,0-0.5-0.1-0.6-0.3s-0.3-0.4-0.3-0.6s0.1-0.5,0.3-0.6s0.4-0.3,0.6-0.3c0.2,0,0.5,0.1,0.6,0.3
				S742.1,711.6,742.1,711.8z M745.9,711.8c0,0.2-0.1,0.4-0.3,0.6s-0.4,0.3-0.6,0.3s-0.5-0.1-0.6-0.3s-0.3-0.4-0.3-0.6
				s0.1-0.5,0.3-0.6s0.4-0.3,0.6-0.3s0.5,0.1,0.6,0.3S745.9,711.6,745.9,711.8z"/>
			<path class="st8" d="M750.4,711.8c0,0.2-0.1,0.5-0.3,0.6s-0.4,0.3-0.6,0.3c-0.2,0-0.5-0.1-0.6-0.3s-0.3-0.4-0.3-0.6
				s0.1-0.5,0.3-0.6s0.4-0.3,0.6-0.3c0.2,0,0.5,0.1,0.6,0.3S750.4,711.6,750.4,711.8z M754.1,711.8c0,0.2-0.1,0.5-0.3,0.6
				s-0.4,0.3-0.6,0.3c-0.2,0-0.5-0.1-0.6-0.3s-0.3-0.4-0.3-0.6s0.1-0.5,0.3-0.6s0.4-0.3,0.6-0.3c0.2,0,0.5,0.1,0.6,0.3
				S754.1,711.6,754.1,711.8z M757.9,711.8c0,0.2-0.1,0.4-0.3,0.6s-0.4,0.3-0.6,0.3s-0.5-0.1-0.6-0.3s-0.3-0.4-0.3-0.6
				s0.1-0.5,0.3-0.6s0.4-0.3,0.6-0.3s0.5,0.1,0.6,0.3S757.9,711.6,757.9,711.8z"/>
			<path class="st8" d="M727.7,725.9l-6.3,3.3v-0.9l5.3-2.7l-5.3-2.7V722l6.3,3.3V725.9z"/>
			<path class="st8" d="M734.2,724.4c0.7-0.8,1.4-1.3,1.8-1.3c0.5,0,0.4,0.7,0.2,1.9l-0.1,0.4c0.8-1.3,1.7-2.3,2.3-2.3
				c0.3,0,0.6,0.3,0.6,0.6s-0.3,0.7-0.5,0.9c-0.1,0.1-0.2,0.1-0.3,0c-0.2-0.2-0.3-0.4-0.5-0.4c-0.3,0-1,1-1.3,1.6
				c-0.5,0.9-0.7,2.2-1,3.5c-0.3,0.1-0.7,0.2-1,0.3l-0.1-0.1c0.3-1.3,0.8-3.4,1-4.4c0.2-0.8,0.1-0.9,0-0.9s-0.5,0.2-0.9,0.6
				L734.2,724.4z"/>
			<path class="st8" d="M746,728.1c-0.7,0.9-1.6,1.4-1.9,1.4s-0.6-0.3-0.3-1.6l0.2-1c-0.5,0.9-1.3,1.6-1.7,1.9
				c-0.4,0.4-1,0.7-1.4,0.7c-0.5,0-0.9-0.6-0.9-1.7c0-1.3,0.6-2.8,1.6-3.6c0.7-0.7,1.7-1.1,2.7-1.1c0.7,0,1.4,0.2,1.6,0.2
				c-0.3,0.9-0.8,3.1-1,4.7c-0.1,0.4,0,0.5,0.1,0.5c0.2,0,0.5-0.2,1-0.7L746,728.1z M743.5,726.9c0.3-0.4,0.7-1.1,0.8-1.7
				c0.1-0.5,0.3-1,0.3-1.4c-0.2-0.1-0.7-0.2-1.1-0.2c-1.7,0-2.4,2.1-2.4,4c0,0.6,0.2,1,0.4,1C742,728.5,742.6,728.1,743.5,726.9z"/>
			<path class="st8" d="M754.1,728.1c-0.7,1-1.6,1.4-2,1.4s-0.6-0.3-0.3-1.5c0.3-1,0.5-2,0.7-2.9s0.2-1.2-0.2-1.2
				c-0.5,0-1.5,0.8-2.5,2.2c-0.3,0.4-0.4,0.7-0.5,1.2s-0.3,1.3-0.4,1.9c-0.4,0.1-0.7,0.2-1,0.3l-0.1-0.1c0.4-1.5,0.8-3.2,1.1-4.8
				c0.1-0.4,0-0.6-0.1-0.6c-0.2,0-0.5,0.3-0.9,0.6l-0.2-0.4c0.6-0.8,1.4-1.3,1.8-1.3c0.4,0,0.5,0.5,0.2,1.7l-0.2,0.8
				c1.2-1.6,2.5-2.5,3.3-2.5c0.5,0,0.9,0.3,0.4,2.2c-0.2,0.8-0.4,1.8-0.7,2.7c-0.1,0.4-0.1,0.5,0,0.5s0.5-0.2,1-0.8L754.1,728.1z"/>
			<path class="st8" d="M761.9,728.2c-0.7,1-1.3,1.3-1.7,1.3c-0.3,0-0.6-0.3-1.1-1.3c-0.3-0.7-0.6-1.4-0.9-2.1c-0.6,0.7-0.9,1-1,1.5
				c-0.2,0.6-0.2,1.1-0.4,1.7c-0.4,0.1-0.7,0.2-1,0.3l-0.1-0.1c0.6-2.7,1.5-6.7,1.8-8.7c0.1-0.5,0.1-0.6-1-0.6l0.1-0.4
				c1.1-0.2,1.9-0.5,2.1-0.5c0.1,0,0.2,0.1,0.1,0.4c-0.4,1.8-1,4.5-1.5,6.6c0.8-0.9,2.8-3.3,3.8-3.3c0.4,0,0.6,0.2,0.6,0.5
				c0,0.2-0.2,0.6-0.4,0.8c-0.2,0.1-0.2,0.1-0.4,0.1c-0.1-0.1-0.4-0.3-0.7-0.3s-1.1,0.8-1.6,1.3c0.2,0.6,0.7,1.6,1.1,2.3
				c0.3,0.6,0.5,0.9,0.7,0.9s0.5-0.2,0.9-0.7L761.9,728.2z"/>
			<path class="st8" d="M766,728.1c-0.7,0.9-1.6,1.4-2,1.4s-0.5-0.4-0.3-1.5c0.2-0.9,0.6-2.4,0.9-3.6c0.1-0.3,0-0.4,0-0.4
				c-0.1,0-0.6,0.3-0.9,0.6l-0.2-0.4c0.7-0.7,1.6-1.3,2.1-1.3c0.4,0,0.4,0.5,0.1,1.5c-0.3,1-0.6,2.4-0.9,3.4c-0.1,0.4-0.1,0.5,0,0.5
				s0.5-0.2,1-0.7L766,728.1z M766.4,720.8c0,0.4-0.3,0.8-0.7,0.8s-0.6-0.3-0.6-0.6c0-0.4,0.3-0.8,0.8-0.8
				C766.2,720.1,766.4,720.4,766.4,720.8z"/>
			<path class="st8" d="M774.3,728.1c-0.7,1-1.6,1.4-2,1.4s-0.6-0.3-0.3-1.5c0.3-1,0.5-2,0.7-2.9s0.2-1.2-0.2-1.2
				c-0.5,0-1.5,0.8-2.5,2.2c-0.3,0.4-0.4,0.7-0.5,1.2s-0.3,1.3-0.4,1.9c-0.4,0.1-0.7,0.2-1,0.3l-0.1-0.1c0.4-1.5,0.8-3.2,1.1-4.8
				c0.1-0.4,0-0.6-0.1-0.6c-0.2,0-0.5,0.3-0.9,0.6l-0.2-0.4c0.6-0.8,1.4-1.3,1.8-1.3c0.4,0,0.5,0.5,0.2,1.7l-0.2,0.8
				c1.2-1.6,2.5-2.5,3.3-2.5c0.5,0,0.9,0.3,0.4,2.2c-0.2,0.8-0.4,1.8-0.7,2.7c-0.1,0.4-0.1,0.5,0,0.5s0.5-0.2,1-0.8L774.3,728.1z"/>
			<path class="st8" d="M778,727.6c-0.2,0.2-0.4,0.4-0.4,0.5c0,0.2,0.3,0.5,1.1,0.9c1.5,0.7,2,1.2,2,1.8c0,1.2-2,2.2-3.4,2.2
				s-2.6-0.7-2.6-1.6c0-0.6,0.8-1.2,2.4-2.1c-0.4-0.2-0.5-0.5-0.5-0.7s0.3-0.6,1-1L778,727.6z M779.7,731.3c0-0.3-0.1-0.6-0.7-1
				c-0.5-0.3-1.2-0.7-1.5-0.8c-1.1,0.6-1.6,1.1-1.6,1.6c0,0.7,0.9,1.2,2,1.2C779,732.4,779.7,731.9,779.7,731.3z M776.3,726
				c0-1.1,0.6-2.1,1.4-2.5c0.5-0.3,1.1-0.5,1.5-0.5s0.9,0.1,1.2,0.4c0.8,0,1.3-0.2,1.6-0.3l0.1,0.3c-0.4,0.5-0.9,0.6-1.3,0.7
				c0,0.2,0.1,0.4,0.1,0.6c0,1-0.5,1.8-1,2.2c-0.6,0.5-1.4,0.8-2.1,0.8C776.8,727.7,776.3,726.9,776.3,726z M779.8,724.9
				c0-0.9-0.3-1.4-1-1.4c-0.8,0-1.5,1.1-1.5,2.3c0,0.8,0.4,1.3,0.9,1.3C779.2,727.2,779.8,726.2,779.8,724.9z"/>
			<path class="st8" d="M784.3,721.2c0.5-0.5,1.2-0.8,1.9-0.8c1.4,0,2.2,1,2.2,2.2c0,1.4-0.9,2.4-2.5,3.8l-2.2,1.9h2.5
				c0.8,0,1-0.1,1.7-1.1l0.3,0.2c-0.3,0.6-0.7,1.4-0.9,1.9h-5.2c0-0.1,0-0.2,0-0.3c3.2-2.8,5-4.4,5-6.2c0-0.8-0.4-1.5-1.5-1.5
				c-0.9,0-1.6,0.7-2,1.3l-0.3-0.3L784.3,721.2z"/>
			<path class="st8" d="M792.3,729.5c-1.6,0-2.1-1.3-2.1-2.9c0-2.5,1.3-6.2,3.8-6.2c1.7,0,2.1,1.5,2.1,2.9
				C796.1,725.7,794.8,729.5,792.3,729.5z M793.9,720.9c-1.7,0-2.6,4.1-2.6,6c0,1.1,0.2,2.1,1.1,2.1c1.7,0,2.5-4.2,2.5-6
				C794.9,721.9,794.8,720.9,793.9,720.9z"/>
			<path class="st8" d="M800.6,727.6c-0.2,0.8-0.2,1.1,0.7,1.2c0.1,0,0.5,0,0.7,0.1l-0.1,0.4h-4.3l0.1-0.4c0.1,0,0.5,0,0.6,0
				c0.9-0.1,1-0.2,1.2-1.3l1-5.2c0.2-0.8,0.1-0.9-0.7-0.9c-0.1,0-0.4,0-0.5,0c0-0.1,0.1-0.3,0.1-0.4c0.9-0.1,1.8-0.4,2.7-0.7
				L800.6,727.6z"/>
			<path class="st8" d="M806.4,721.2c0.5-0.5,1.2-0.8,1.9-0.8c1.4,0,2.2,1,2.2,2.2c0,1.4-0.9,2.4-2.5,3.8l-2.2,1.9h2.5
				c0.8,0,1-0.1,1.7-1.1l0.3,0.2c-0.3,0.6-0.7,1.4-0.9,1.9h-5.2c0-0.1,0-0.2,0-0.3c3.2-2.8,5-4.4,5-6.2c0-0.8-0.4-1.5-1.5-1.5
				c-0.9,0-1.6,0.7-2,1.3l-0.3-0.3L806.4,721.2z"/>
			<path class="st8" d="M813.4,729.5c-0.4,0-0.7-0.3-0.7-0.8s0.4-0.9,0.9-0.9c0.4,0,0.7,0.3,0.7,0.8
				C814.3,729.2,813.9,729.5,813.4,729.5z M814,725.2c-0.4,0-0.7-0.3-0.7-0.8s0.4-0.9,0.9-0.9c0.4,0,0.7,0.3,0.7,0.8
				C814.9,724.9,814.5,725.2,814,725.2z"/>
			<path class="st8" d="M820.2,727.6c-0.2,0.8-0.2,1.1,0.7,1.2c0.1,0,0.5,0,0.7,0.1l-0.1,0.4h-4.3l0.1-0.4c0.1,0,0.5,0,0.6,0
				c0.9-0.1,1-0.2,1.2-1.3l1-5.2c0.2-0.8,0.1-0.9-0.7-0.9c-0.1,0-0.4,0-0.5,0c0-0.1,0.1-0.3,0.1-0.4c0.9-0.1,1.8-0.4,2.7-0.7
				L820.2,727.6z"/>
			<path class="st8" d="M727.7,742.7l-6.3,3.3v-1l5.3-2.7l-5.3-2.7v-0.9l6.3,3.3V742.7z"/>
			<path class="st8" d="M740.2,744.9c-0.7,0.9-1.6,1.4-1.9,1.4s-0.6-0.3-0.3-1.6l0.2-1c-0.5,0.9-1.3,1.6-1.7,1.9
				c-0.4,0.4-1,0.7-1.4,0.7c-0.5,0-0.9-0.6-0.9-1.7c0-1.3,0.6-2.8,1.6-3.6c0.7-0.7,1.7-1.1,2.7-1.1c0.7,0,1.4,0.2,1.6,0.2
				c-0.3,0.9-0.8,3.1-1,4.7c-0.1,0.4,0,0.5,0.1,0.5c0.2,0,0.5-0.2,1-0.7L740.2,744.9z M737.6,743.7c0.3-0.4,0.7-1.1,0.8-1.7
				c0.1-0.5,0.3-1,0.3-1.4c-0.2-0.1-0.7-0.2-1.1-0.2c-1.7,0-2.4,2.1-2.4,4c0,0.6,0.2,1,0.4,1C736.1,745.3,736.8,744.9,737.6,743.7z"
				/>
			<path class="st8" d="M741.6,741.2c0.5-0.7,1.3-1.4,1.7-1.4s0.5,0.4,0.6,1.6c0.1,1.4,0.1,2.7,0.1,3.6c0.6-0.8,2.3-2.6,2.3-3.6
				c0-0.2-0.1-0.5-0.2-0.7c-0.1-0.1-0.1-0.2,0-0.3c0.1-0.2,0.5-0.6,0.8-0.6s0.5,0.3,0.5,0.8c0,0.4-0.2,1.1-0.8,2
				c-0.8,1.1-2.2,2.7-3,3.7h-0.4c-0.1-1.4-0.1-3.4-0.2-4.6c-0.1-0.7-0.1-0.9-0.3-0.9c-0.1,0-0.4,0.1-0.8,0.7L741.6,741.2z"/>
			<path class="st8" d="M750.4,746.3c-0.7,0-1.6-0.4-1.6-2.1c0-1.3,0.6-2.9,1.7-3.7c0.6-0.4,1.3-0.7,1.9-0.7c0.8,0,1.2,0.5,1.2,1.1
				c0,1.4-2.1,2.1-3.6,2.3c0,0.2,0,0.4,0,0.6c0,0.8,0.2,1.6,1.1,1.6c0.6,0,1.4-0.4,2.1-1.1l0.2,0.4
				C752.2,746,751.1,746.3,750.4,746.3z M750,742.8c2-0.4,2.5-1,2.5-1.7c0-0.5-0.3-0.7-0.7-0.7C751.4,740.4,750.4,740.7,750,742.8z"
				/>
			<path class="st8" d="M755.2,741.2c0.7-0.8,1.4-1.3,1.8-1.3c0.5,0,0.4,0.7,0.2,1.9l-0.1,0.4c0.8-1.3,1.7-2.3,2.3-2.3
				c0.3,0,0.6,0.3,0.6,0.6s-0.3,0.7-0.5,0.9c-0.1,0.1-0.2,0.1-0.3,0c-0.2-0.2-0.3-0.4-0.5-0.4c-0.3,0-1,1-1.3,1.6
				c-0.5,0.9-0.7,2.2-1,3.5c-0.3,0.1-0.7,0.2-1,0.3l-0.1-0.1c0.3-1.3,0.8-3.4,1-4.4c0.2-0.8,0.1-0.9,0-0.9s-0.5,0.2-0.9,0.6
				L755.2,741.2z"/>
			<path class="st8" d="M767,744.9c-0.7,0.9-1.6,1.4-1.9,1.4s-0.6-0.3-0.3-1.6l0.2-1c-0.5,0.9-1.3,1.6-1.7,1.9
				c-0.4,0.4-1,0.7-1.4,0.7c-0.5,0-0.9-0.6-0.9-1.7c0-1.3,0.6-2.8,1.6-3.6c0.7-0.7,1.7-1.1,2.7-1.1c0.7,0,1.4,0.2,1.6,0.2
				c-0.3,0.9-0.8,3.1-1,4.7c-0.1,0.4,0,0.5,0.1,0.5c0.2,0,0.5-0.2,1-0.7L767,744.9z M764.5,743.7c0.3-0.4,0.7-1.1,0.8-1.7
				c0.1-0.5,0.3-1,0.3-1.4c-0.2-0.1-0.7-0.2-1.1-0.2c-1.7,0-2.4,2.1-2.4,4c0,0.6,0.2,1,0.4,1C763,745.3,763.6,744.9,764.5,743.7z"/>
			<path class="st8" d="M770.6,744.4c-0.2,0.2-0.4,0.4-0.4,0.5c0,0.2,0.3,0.5,1.1,0.9c1.5,0.7,2,1.2,2,1.8c0,1.2-2,2.2-3.4,2.2
				s-2.6-0.7-2.6-1.6c0-0.6,0.8-1.2,2.4-2.1c-0.4-0.2-0.5-0.5-0.5-0.7s0.3-0.6,1-1L770.6,744.4z M772.3,748.1c0-0.3-0.1-0.6-0.7-1
				c-0.5-0.3-1.2-0.7-1.5-0.8c-1.1,0.6-1.6,1.1-1.6,1.6c0,0.7,0.9,1.2,2,1.2C771.6,749.2,772.3,748.7,772.3,748.1z M768.9,742.8
				c0-1.1,0.6-2.1,1.4-2.5c0.5-0.3,1.1-0.5,1.5-0.5s0.9,0.1,1.2,0.4c0.8,0,1.3-0.2,1.6-0.3l0.1,0.3c-0.4,0.5-0.9,0.6-1.3,0.7
				c0,0.2,0.1,0.4,0.1,0.6c0,1-0.5,1.8-1,2.2c-0.6,0.5-1.4,0.8-2.1,0.8C769.4,744.5,768.9,743.7,768.9,742.8z M772.4,741.7
				c0-0.9-0.4-1.4-1-1.4c-0.8,0-1.5,1.1-1.5,2.3c0,0.8,0.4,1.3,0.9,1.3C771.7,744,772.4,743,772.4,741.7z"/>
			<path class="st8" d="M777,746.3c-0.7,0-1.6-0.4-1.6-2.1c0-1.3,0.6-2.9,1.7-3.7c0.6-0.4,1.3-0.7,1.9-0.7c0.8,0,1.2,0.5,1.2,1.1
				c0,1.4-2.1,2.1-3.6,2.3c0,0.2,0,0.4,0,0.6c0,0.8,0.2,1.6,1.1,1.6c0.6,0,1.4-0.4,2.1-1.1l0.2,0.4C778.8,746,777.7,746.3,777,746.3
				z M776.6,742.8c2-0.4,2.5-1,2.5-1.7c0-0.5-0.3-0.7-0.7-0.7C778,740.4,777.1,740.7,776.6,742.8z"/>
			<path class="st8" d="M785.8,741.2c0.7-0.8,1.4-1.3,1.8-1.3c0.5,0,0.4,0.7,0.2,1.9l-0.1,0.4c0.8-1.3,1.7-2.3,2.3-2.3
				c0.3,0,0.6,0.3,0.6,0.6s-0.3,0.7-0.5,0.9c-0.1,0.1-0.2,0.1-0.3,0c-0.2-0.2-0.3-0.4-0.5-0.4c-0.3,0-1,1-1.3,1.6
				c-0.5,0.9-0.7,2.2-1,3.5c-0.3,0.1-0.7,0.2-1,0.3l-0.1-0.1c0.3-1.3,0.8-3.4,1-4.4c0.2-0.8,0.1-0.9,0-0.9s-0.5,0.2-0.9,0.6
				L785.8,741.2z"/>
			<path class="st8" d="M797.6,744.9c-0.7,0.9-1.6,1.4-1.9,1.4c-0.4,0-0.6-0.3-0.3-1.6l0.2-1c-0.5,0.9-1.3,1.6-1.7,1.9
				c-0.4,0.4-1,0.7-1.4,0.7c-0.5,0-0.9-0.6-0.9-1.7c0-1.3,0.6-2.8,1.6-3.6c0.7-0.7,1.7-1.1,2.7-1.1c0.7,0,1.4,0.2,1.6,0.2
				c-0.3,0.9-0.8,3.1-1,4.7c-0.1,0.4,0,0.5,0.1,0.5c0.2,0,0.5-0.2,1-0.7L797.6,744.9z M795.1,743.7c0.3-0.4,0.7-1.1,0.8-1.7
				c0.1-0.5,0.3-1,0.3-1.4c-0.2-0.1-0.7-0.2-1.1-0.2c-1.7,0-2.4,2.1-2.4,4c0,0.6,0.2,1,0.4,1C793.6,745.3,794.2,744.9,795.1,743.7z"
				/>
			<path class="st8" d="M805.7,744.9c-0.7,1-1.6,1.4-2,1.4s-0.6-0.3-0.3-1.5c0.3-1,0.5-2,0.7-2.9s0.2-1.2-0.2-1.2
				c-0.5,0-1.5,0.8-2.5,2.2c-0.3,0.4-0.4,0.7-0.5,1.2s-0.3,1.3-0.4,1.9c-0.4,0.1-0.7,0.2-1,0.3l-0.1-0.1c0.4-1.5,0.8-3.2,1.1-4.8
				c0.1-0.4,0-0.6-0.1-0.6c-0.2,0-0.5,0.3-0.9,0.6l-0.2-0.4c0.6-0.8,1.4-1.3,1.8-1.3c0.4,0,0.5,0.5,0.2,1.7l-0.2,0.8
				c1.2-1.6,2.5-2.5,3.3-2.5c0.5,0,0.9,0.3,0.4,2.2c-0.2,0.8-0.4,1.8-0.7,2.7c-0.1,0.4-0.1,0.5,0,0.5s0.5-0.2,1-0.8L805.7,744.9z"/>
			<path class="st8" d="M813.5,745c-0.7,1-1.3,1.3-1.7,1.3c-0.3,0-0.6-0.3-1.1-1.3c-0.3-0.7-0.6-1.4-0.9-2.1c-0.6,0.7-0.9,1-1,1.5
				c-0.2,0.6-0.2,1.1-0.4,1.7c-0.4,0.1-0.7,0.2-1,0.3l-0.1-0.1c0.6-2.7,1.5-6.7,1.8-8.7c0.1-0.5,0.1-0.6-1-0.6l0.1-0.4
				c1.1-0.2,1.9-0.5,2.1-0.5c0.1,0,0.2,0.1,0.1,0.4c-0.4,1.8-1,4.5-1.5,6.6c0.8-0.9,2.8-3.3,3.8-3.3c0.4,0,0.6,0.2,0.6,0.5
				c0,0.2-0.2,0.6-0.4,0.8c-0.2,0.1-0.2,0.1-0.4,0.1c-0.1-0.1-0.4-0.3-0.7-0.3s-1.1,0.8-1.6,1.3c0.2,0.6,0.7,1.6,1.1,2.3
				c0.3,0.6,0.5,0.9,0.7,0.9s0.5-0.2,0.9-0.7L813.5,745z"/>
			<path class="st8" d="M817.6,744.9c-0.7,0.9-1.6,1.4-2,1.4s-0.5-0.4-0.3-1.5c0.2-0.9,0.6-2.4,0.9-3.6c0.1-0.3,0-0.4,0-0.4
				c-0.1,0-0.6,0.3-0.9,0.6l-0.2-0.4c0.7-0.7,1.6-1.3,2.1-1.3c0.4,0,0.4,0.5,0.1,1.5c-0.3,1-0.6,2.4-0.9,3.4c-0.1,0.4-0.1,0.5,0,0.5
				s0.5-0.2,1-0.7L817.6,744.9z M818,737.6c0,0.4-0.3,0.8-0.7,0.8s-0.6-0.3-0.6-0.6c0-0.4,0.3-0.8,0.8-0.8
				C817.8,736.9,818,737.2,818,737.6z"/>
			<path class="st8" d="M825.8,744.9c-0.7,1-1.6,1.4-2,1.4s-0.6-0.3-0.3-1.5c0.3-1,0.5-2,0.7-2.9s0.2-1.2-0.2-1.2
				c-0.5,0-1.5,0.8-2.5,2.2c-0.3,0.4-0.4,0.7-0.5,1.2s-0.3,1.3-0.4,1.9c-0.4,0.1-0.7,0.2-1,0.3l-0.1-0.1c0.4-1.5,0.8-3.2,1.1-4.8
				c0.1-0.4,0-0.6-0.1-0.6c-0.2,0-0.5,0.3-0.9,0.6l-0.2-0.4c0.6-0.8,1.4-1.3,1.8-1.3c0.4,0,0.5,0.5,0.2,1.7l-0.2,0.8
				c1.2-1.6,2.5-2.5,3.3-2.5c0.5,0,0.9,0.3,0.4,2.2c-0.2,0.8-0.4,1.8-0.7,2.7c-0.1,0.4-0.1,0.5,0,0.5s0.5-0.2,1-0.8L825.8,744.9z"/>
			<path class="st8" d="M829.6,744.4c-0.2,0.2-0.4,0.4-0.4,0.5c0,0.2,0.3,0.5,1.1,0.9c1.5,0.7,2,1.2,2,1.8c0,1.2-2,2.2-3.4,2.2
				s-2.6-0.7-2.6-1.6c0-0.6,0.8-1.2,2.4-2.1c-0.4-0.2-0.5-0.5-0.5-0.7s0.3-0.6,1-1L829.6,744.4z M831.3,748.1c0-0.3-0.1-0.6-0.7-1
				c-0.5-0.3-1.2-0.7-1.5-0.8c-1.1,0.6-1.6,1.1-1.6,1.6c0,0.7,0.9,1.2,2,1.2C830.6,749.2,831.3,748.7,831.3,748.1z M827.9,742.8
				c0-1.1,0.6-2.1,1.4-2.5c0.5-0.3,1.1-0.5,1.5-0.5s0.9,0.1,1.2,0.4c0.8,0,1.3-0.2,1.6-0.3l0.1,0.3c-0.4,0.5-0.9,0.6-1.3,0.7
				c0,0.2,0.1,0.4,0.1,0.6c0,1-0.5,1.8-1,2.2c-0.6,0.5-1.4,0.8-2.1,0.8C828.4,744.5,827.9,743.7,827.9,742.8z M831.4,741.7
				c0-0.9-0.3-1.4-1-1.4c-0.8,0-1.5,1.1-1.5,2.3c0,0.8,0.4,1.3,0.9,1.3C830.7,744,831.4,743,831.4,741.7z"/>
			<path class="st8" d="M835.5,746.3c-0.4,0-0.7-0.3-0.7-0.8s0.4-0.9,0.9-0.9c0.4,0,0.7,0.3,0.7,0.8
				C836.4,746,835.9,746.3,835.5,746.3z M836.1,742c-0.4,0-0.7-0.3-0.7-0.8s0.4-0.9,0.9-0.9c0.4,0,0.7,0.3,0.7,0.8
				C837,741.7,836.5,742,836.1,742z"/>
			<path class="st8" d="M842.2,744.4c-0.2,0.8-0.2,1.1,0.7,1.2c0.1,0,0.5,0,0.7,0.1l-0.1,0.4h-4.3l0.1-0.4c0.1,0,0.5,0,0.6,0
				c0.9-0.1,1-0.2,1.2-1.3l1-5.2c0.2-0.8,0.1-0.9-0.7-0.9c-0.1,0-0.4,0-0.5,0c0-0.1,0.1-0.3,0.1-0.4c0.9-0.1,1.8-0.4,2.7-0.7
				L842.2,744.4z"/>
		</g>
	</g>
</g>
<g>
	<text transform="matrix(1 0 0 1 719.82 607.6524)" class="st3 st4 st5">the file includes the below element</text>
</g>
<path class="st0" d="M695.5,600.1c0-4.1,0-4.1-3.5-4.1h-14.3c-1.8,0-3.3,1.5-3.3,3.3v15.2c0,4.1,0,4.1,3.5,4.1h14.3
	c1.8,0,3.3-1.5,3.3-3.3V600.1z"/>
<line class="st1" x1="679.4" y1="607.7" x2="690.5" y2="607.7"/>
<line class="st1" x1="679.4" y1="603.4" x2="690.5" y2="603.4"/>
<line class="st1" x1="679.4" y1="612" x2="690.5" y2="612"/>
<g>
	<text transform="matrix(1 0 0 1 449.8981 953.8004)" class="st6 st4 st14">vis.</text>
	<text transform="matrix(1 0 0 1 410.4981 976.6004)" class="st6 st4 st14">Site Ranking</text>
</g>
<g>
	<text transform="matrix(1 0 0 1 962.7629 953.8004)" class="st6 st4 st14">vis.</text>
	<text transform="matrix(1 0 0 1 924.563 976.6004)" class="st6 st4 st14">Site Country</text>
</g>
<g>
	<text transform="matrix(1 0 0 1 541.611 991.8419)" class="st8 st4 st5">&gt; model 1: ranking by average</text>
	<text transform="matrix(1 0 0 1 541.611 1008.6419)" class="st8 st4 st5">&gt; model 2: ranking by country</text>
</g>
<g>
	<text transform="matrix(1 0 0 1 541.613 970.9537)" class="st3 st4 st5">the visualization includes two models</text>
</g>
<g>
	<text transform="matrix(1 0 0 1 1051.191 991.8419)" class="st8 st4 st5">&gt; model 1: ranking by average</text>
	<text transform="matrix(1 0 0 1 1051.191 1008.6419)" class="st8 st4 st5">&gt; model 2: ranking by country</text>
</g>
<g>
	<text transform="matrix(1 0 0 1 1051.1915 970.9537)" class="st3 st4 st5">the visualization includes two models</text>
</g>
<path class="st9" d="M462.7,1018.1L462.7,1018.1c0,22.2,18,40.2,40.2,40.2h433.5c22.2,0,40.2-18,40.2-40.2l0,0"/>
<g>
	<g>
		<line class="st9" x1="464.6" y1="832.9" x2="464.6" y2="854.7"/>
		<g>
			<polygon class="st10" points="462.5,853.1 462.9,852.7 464.6,854.5 466.2,852.7 466.6,853.1 464.6,855.3 			"/>
		</g>
	</g>
</g>
<g>
	<g>
		<line class="st9" x1="977.3" y1="832.9" x2="977.3" y2="854.7"/>
		<g>
			<polygon class="st10" points="975.2,853.1 975.6,852.7 977.3,854.5 978.9,852.7 979.3,853.1 977.3,855.3 			"/>
		</g>
	</g>
</g>
<g>
	<g>
		<line class="st9" x1="464.6" y1="894.6" x2="464.6" y2="926.5"/>
		<g>
			<polygon class="st10" points="462.5,924.8 462.9,924.5 464.6,926.3 466.2,924.5 466.6,924.8 464.6,927 			"/>
		</g>
	</g>
</g>
<g>
	<g>
		<line class="st9" x1="977.4" y1="894.6" x2="977.4" y2="926.5"/>
		<g>
			<polygon class="st10" points="975.4,924.8 975.7,924.5 977.4,926.3 979.1,924.5 979.5,924.8 977.4,927 			"/>
		</g>
	</g>
</g>
<g>
	<text transform="matrix(1 0 0 1 387.8766 880.3033)" class="st8 st4 st7" style="text-decoration: underline;">Adobe Illustrator</text>
</g>
<g>
	<text transform="matrix(1 0 0 1 900.3659 880.3033)" class="st8 st4 st7" style="text-decoration: underline;">Adobe Illustrator</text>
</g>
<g>
	<text transform="matrix(1 0 0 1 922.1843 820.0347)" class="st8 st4 st7" style="text-decoration: underline;">Raw Graphs</text>
</g>
<g>
	<text transform="matrix(1 0 0 1 392.9503 820.6739)" class="st8 st4 st7" style="text-decoration: underline;">Data Illustrator</text>
</g>
<g>
	<g>
		<path class="st9" d="M463.9,792.2v-27h470.9c23.3,0,42.2,4,42.5,26.9"/>
		<g>
			<polygon class="st10" points="466,790.5 465.6,790.2 463.9,792 462.2,790.2 461.9,790.5 463.9,792.7 			"/>
		</g>
		<g>
			<polygon class="st10" points="975.2,790.6 975.5,790.2 977.3,792 978.9,790.1 979.2,790.4 977.3,792.7 			"/>
		</g>
	</g>
</g>
<g>
	<path class="st12" d="M483.3,999.6c-4.6-8.5-12.3-13.6-20.6-13.6c-8.3,0-16,5.1-20.6,13.6l-0.2,0.5l0.2,0.5
		c4.6,8.5,12.3,13.6,20.6,13.6c8.3,0,16-5.1,20.6-13.6l0.2-0.5L483.3,999.6z"/>
	<path class="st15" d="M472,1000.1c0-5.1-4.2-9.3-9.3-9.3c-5.1,0-9.3,4.2-9.3,9.3s4.2,9.3,9.3,9.3
		C467.8,1009.4,472,1005.2,472,1000.1z M456.4,1000.1c0-3.4,2.8-6.3,6.3-6.3s6.3,2.8,6.3,6.3s-2.8,6.3-6.3,6.3
		C459.2,1006.3,456.4,1003.5,456.4,1000.1z"/>
</g>
<g>
	<path class="st12" d="M998,999.6c-4.6-8.5-12.3-13.6-20.6-13.6s-16,5.1-20.6,13.6l-0.2,0.5l0.2,0.5c4.6,8.5,12.3,13.6,20.6,13.6
		s16-5.1,20.6-13.6l0.2-0.5L998,999.6z"/>
	<path class="st15" d="M986.7,1000.1c0-5.1-4.2-9.3-9.3-9.3s-9.3,4.2-9.3,9.3s4.2,9.3,9.3,9.3
		C982.5,1009.4,986.7,1005.2,986.7,1000.1z M971.2,1000.1c0-3.4,2.8-6.3,6.3-6.3s6.3,2.8,6.3,6.3s-2.8,6.3-6.3,6.3
		C974,1006.3,971.2,1003.5,971.2,1000.1z"/>
</g>
<g>
	<text transform="matrix(1 0 0 1 697.8024 1168.2262)" class="st8 st4 st16" style="text-decoration: underline;">D3,js</text>
</g>
<g>
	<text transform="matrix(1 0 0 1 667.6603 1110.8956)" class="st6 st4 st14">vis.combine</text>
</g>
<g>
	<g>
		<line class="st9" x1="716.5" y1="1058.3" x2="716.5" y2="1090.2"/>
		<g>
			<polygon class="st10" points="714.4,1088.5 714.8,1088.2 716.5,1090 718.2,1088.2 718.5,1088.5 716.5,1090.7 			"/>
		</g>
	</g>
</g>
<g>
	<text transform="matrix(1 0 0 1 610.8801 1232.0406)" class="st6 st4 st14">Interactive Visualization </text>
</g>
<g>
	<g>
		<line class="st9" x1="716.5" y1="1178.5" x2="716.5" y2="1210.3"/>
		<g>
			<polygon class="st10" points="714.4,1208.7 714.8,1208.3 716.5,1210.1 718.2,1208.3 718.5,1208.7 716.5,1210.9 			"/>
		</g>
	</g>
</g>
<g>
	<path class="st12" d="M738.1,1132.4c-4.6-8.5-12.3-13.6-20.6-13.6s-16,5.1-20.6,13.6l-0.2,0.5l0.2,0.5c4.6,8.5,12.3,13.6,20.6,13.6
		s16-5.1,20.6-13.6l0.2-0.5L738.1,1132.4z"/>
	<path class="st15" d="M726.8,1132.9c0-5.1-4.2-9.3-9.3-9.3s-9.3,4.2-9.3,9.3c0,5.1,4.2,9.3,9.3,9.3
		C722.6,1142.2,726.8,1138,726.8,1132.9z M711.2,1132.9c0-3.4,2.8-6.3,6.3-6.3s6.3,2.8,6.3,6.3c0,3.4-2.8,6.3-6.3,6.3
		C714,1139.2,711.2,1136.3,711.2,1132.9z"/>
</g>
<g>
	<text transform="matrix(1 0 0 1 718.7883 529.3834)" class="st3 st4 st5">to replace the missing data by </text>
	<text transform="matrix(1 0 0 1 932.0884 529.3834)" class="st8 st4 st5">number</text>
	<text transform="matrix(1 0 0 1 718.7883 546.1835)" class="st8 st4 st5"> 60</text>
	<text transform="matrix(1 0 0 1 740.7883 546.1835)" class="st3 st4 st5"> to  calculate  the average rankings</text>
</g>
<g id="图层_2_1_">
</g>
</svg>
