<?xml version="1.0" encoding="utf-8"?>
<!-- Generator: Adobe Illustrator 22.1.0, SVG Export Plug-In . SVG Version: 6.00 Build 0)  -->
<svg version="1.1" xmlns="http://www.w3.org/2000/svg" xmlns:xlink="http://www.w3.org/1999/xlink" x="0px" y="0px"
	 viewBox="0 0 1414.2 998.7" style="enable-background:new 0 0 1414.2 998.7;" xml:space="preserve">
<style type="text/css">
	.st0{fill:#B3DBE8;}
	.st1{fill:#FFFFFF;}
	.st2{fill:#4F4C51;}
	.st3{font-family:'Georgia-Italic';}
	.st4{font-size:18px;}
	.st5{fill:#E2CAE8;}
	.st6{font-size:16px;}
	.st7{fill:#6B98AA;}
	.st8{fill:none;stroke:#B2C5DE;stroke-width:3.0638;stroke-miterlimit:10;}
	.st9{font-size:17px;}
	.st10{font-family:'FZFSJW--GB1-0';}
	.st11{fill:none;stroke:#020202;stroke-width:0.5;stroke-miterlimit:10;}
	.st12{font-size:10px;}
</style>
<g id="图层_1">
	<g>
		<path class="st0" d="M1199.2,137.5c-4.6-8.5-12.3-13.6-20.6-13.6c-8.3,0-16,5.1-20.6,13.6l-0.2,0.5l0.2,0.5
			c4.6,8.5,12.3,13.6,20.6,13.6c8.3,0,16-5.1,20.6-13.6l0.2-0.5L1199.2,137.5z"/>
		<path class="st1" d="M1187.9,138c0-5.1-4.2-9.3-9.3-9.3c-5.1,0-9.3,4.2-9.3,9.3s4.2,9.3,9.3,9.3
			C1183.7,147.3,1187.9,143.1,1187.9,138z M1172.3,138c0-3.4,2.8-6.3,6.3-6.3s6.3,2.8,6.3,6.3c0,3.4-2.8,6.3-6.3,6.3
			C1175.1,144.2,1172.3,141.4,1172.3,138z"/>
	</g>
	<g>
		<text transform="matrix(1 0 0 1 119.233 689.3366)" class="st2 st3 st4">How about the historical registration of </text>
		<text transform="matrix(1 0 0 1 119.233 712.3366)" class="st2 st3 st4">Internet companies in China?</text>
	</g>
	<path class="st5" d="M902.2,676.5H500c-5,0-9,4-9,9l0,0c0,5,4,9,9,9h402.2c5,0,9-4,9-9l0,0C911.2,680.5,907.2,676.5,902.2,676.5z"
		/>
	<g>
		<text transform="matrix(1 0 0 1 529.7828 690.289)" class="st2 st3 st6">China Internet enterprise registration data</text>
	</g>
	<g>
		<text transform="matrix(1 0 0 1 119.234 63.687)" class="st2 st3 st4">How is the Internet companies developed </text>
		<text transform="matrix(1 0 0 1 119.234 86.687)" class="st2 st3 st4">globally for recent ten years?</text>
	</g>
	<g>
		<text transform="matrix(1 0 0 1 500.0616 94.9314)" class="st7 st3 st4" style="text-decoration: underline;">en.wikipedia.org</text>
	</g>
	<g>
		<text transform="matrix(1 0 0 1 500.0616 294.8691)" class="st7 st3 st4" style="text-decoration: underline;">google.com &amp; xueqiu.com</text>
	</g>
	<g>
		<text transform="matrix(1 0 0 1 500.0616 511.5103)" class="st7 st3 st4" style="text-decoration: underline;">Itjuzi.com</text>
	</g>
	<g>
		<text transform="matrix(1 0 0 1 500.0616 724.0224)" class="st7 st3 st4" style="text-decoration: underline;">Github</text>
	</g>
	<g>
		<text transform="matrix(1 0 0 1 500.0616 928.9409)" class="st7 st3 st4" style="text-decoration: underline;">en.wikipedia.org</text>
	</g>
	<g>
		<g>
			<g>
				<g>
					<line class="st8" x1="1.5" y1="34" x2="1.5" y2="165.5"/>
				</g>
			</g>
			<g>
				<g>
					<line class="st8" x1="1.5" y1="235.3" x2="1.5" y2="366.9"/>
				</g>
			</g>
			<g>
				<g>
					<line class="st8" x1="1.5" y1="453.6" x2="1.5" y2="585.1"/>
				</g>
			</g>
			<g>
				<g>
					<line class="st8" x1="1.5" y1="659.6" x2="1.5" y2="791.2"/>
				</g>
			</g>
			<g>
				<g>
					<line class="st8" x1="1.5" y1="867.1" x2="1.5" y2="998.7"/>
				</g>
			</g>
		</g>
		<g>
			<g>
				<g>
					<line class="st8" x1="1412.7" y1="34" x2="1412.7" y2="165.5"/>
				</g>
			</g>
			<g>
				<g>
					<line class="st8" x1="1412.7" y1="235.3" x2="1412.7" y2="366.9"/>
				</g>
			</g>
			<g>
				<g>
					<line class="st8" x1="1412.7" y1="453.6" x2="1412.7" y2="585.1"/>
				</g>
			</g>
			<g>
				<g>
					<line class="st8" x1="1412.7" y1="659.6" x2="1412.7" y2="791.2"/>
				</g>
			</g>
			<g>
				<g>
					<line class="st8" x1="1412.7" y1="867.1" x2="1412.7" y2="998.7"/>
				</g>
			</g>
		</g>
	</g>
	<path class="st5" d="M902.2,50.9H500c-5,0-9,4-9,9l0,0c0,5,4,9,9,9h402.2c5,0,9-4,9-9l0,0C911.2,54.9,907.2,50.9,902.2,50.9z"/>
	<g>
		<text transform="matrix(1 0 0 1 518.3433 64.6372)" class="st2 st3 st6">Alexa Ranking / List of most popular websites</text>
	</g>
	<g>
		<text transform="matrix(1 0 0 1 1061.0055 91.6962)" class="st2 st3 st9">vis.</text>
		<text transform="matrix(1 0 0 1 1021.6055 114.4962)" class="st2 st3 st9">Site Ranking</text>
	</g>
	<g>
		<text transform="matrix(1 0 0 1 1260.9508 91.6962)" class="st2 st3 st9">vis.</text>
		<text transform="matrix(1 0 0 1 1222.7509 114.4962)" class="st2 st3 st9">Site Country</text>
	</g>
	<g>
		<text transform="matrix(1 0 0 1 1260.672 327.3577)" class="st2 st3 st9">vis.</text>
		<text transform="matrix(1 0 0 1 1235.972 350.1576)" class="st2 st3 st9">Founders</text>
	</g>
	<g>
		<text transform="matrix(1 0 0 1 619.2745 327.3577)" class="st2 st3 st9">vis.</text>
		<text transform="matrix(1 0 0 1 554.9745 350.1576)" class="st2 st3 st9">Stock Market Type</text>
	</g>
	<g>
		<text transform="matrix(1 0 0 1 845.9571 327.3577)" class="st2 st3 st9">vis.</text>
		<text transform="matrix(1 0 0 1 785.3571 350.1576)" class="st2 st3 st9">Type and Address</text>
	</g>
	<g>
		<text transform="matrix(1 0 0 1 119.233 265.0476)" class="st2 st3 st4">What is the status of Chinese Internet </text>
		<text transform="matrix(1 0 0 1 119.233 288.0476)" class="st2 st3 st4">companies, which have been </text>
		<text transform="matrix(1 0 0 1 119.233 311.0476)" class="st2 st3 st4">listed on the stock market?</text>
	</g>
	<path class="st5" d="M902.2,252.2H500c-5,0-9,4-9,9l0,0c0,5,4,9,9,9h402.2c5,0,9-4,9-9l0,0C911.2,256.2,907.2,252.2,902.2,252.2z"
		/>
	<g>
		<text transform="matrix(1 0 0 1 530.5005 265.999)" class="st2 st3 st6">Chinese Internet Companies , Stock Market</text>
	</g>
	<path class="st5" d="M1335.3,252.2H933c-5,0-9,4-9,9l0,0c0,5,4,9,9,9h402.2c5,0,9-4,9-9l0,0
		C1344.3,256.2,1340.3,252.2,1335.3,252.2z"/>
	<g>
		<text transform="matrix(1 0 0 1 1033.9489 265.999)" class="st2 st10 st6">中国互联网企业，上市公司</text>
	</g>
	<line class="st11" x1="924" y1="252.2" x2="911.2" y2="270.2"/>
	<g>
		<text transform="matrix(1 0 0 1 847.9166 736.3207)" class="st2 st3 st9">vis.</text>
		<text transform="matrix(1 0 0 1 803.2166 759.1207)" class="st2 st3 st9">company map</text>
	</g>
	<g>
		<text transform="matrix(1 0 0 1 1057.0846 736.3207)" class="st2 st3 st9">vis.</text>
		<text transform="matrix(1 0 0 1 1031.3846 759.1207)" class="st2 st3 st9">wordpart</text>
	</g>
	<g>
		<text transform="matrix(1 0 0 1 1260.9498 736.3207)" class="st2 st3 st9">vis.</text>
		<text transform="matrix(1 0 0 1 1240.1498 759.1207)" class="st2 st3 st9"> wordall</text>
	</g>
	<g>
		<text transform="matrix(1 0 0 1 119.233 896.8532)" class="st2 st3 st4">How about the China&apos;s leading Internet </text>
		<text transform="matrix(1 0 0 1 119.233 919.8532)" class="st2 st3 st4">companies  of Tencent and</text>
		<text transform="matrix(1 0 0 1 119.233 942.8532)" class="st2 st3 st4">Alibaba Group?</text>
	</g>
	<path class="st5" d="M902.2,884H500c-5,0-9,4-9,9l0,0c0,5,4,9,9,9h402.2c5,0,9-4,9-9l0,0C911.2,888.1,907.2,884,902.2,884z"/>
	<g>
		<text transform="matrix(1 0 0 1 628.9244 897.8051)" class="st2 st3 st6">Tencent &amp; Alibaba</text>
	</g>
	<g>
		<text transform="matrix(1 0 0 1 1058.6193 905.7885)" class="st2 st3 st9">vis.</text>
		<text transform="matrix(1 0 0 1 1002.9192 928.5885)" class="st2 st3 st9">Tencent network</text>
	</g>
	<g>
		<text transform="matrix(1 0 0 1 1261.0509 905.7885)" class="st2 st3 st9">vis.</text>
		<text transform="matrix(1 0 0 1 1205.6509 928.5885)" class="st2 st3 st9">Alibaba network</text>
	</g>
	<g>
		<text transform="matrix(1 0 0 1 1059.0446 529.3513)" class="st2 st3 st9">vis.</text>
		<text transform="matrix(1 0 0 1 1013.0446 552.1514)" class="st2 st3 st9">Unicorn Value</text>
	</g>
	<g>
		<text transform="matrix(1 0 0 1 1260.9498 529.3513)" class="st2 st3 st9">vis.</text>
		<text transform="matrix(1 0 0 1 1222.1498 552.1514)" class="st2 st3 st9">Unicorn Size</text>
	</g>
	<g>
		<text transform="matrix(1 0 0 1 119.233 483.301)" class="st2 st3 st4">How about the situation of the Chinese </text>
		<text transform="matrix(1 0 0 1 119.233 506.301)" class="st2 st3 st4">Unicorn Internet Companies?</text>
	</g>
	<path class="st5" d="M902.2,470.5H500c-5,0-9,4-9,9l0,0c0,5,4,9,9,9h402.2c5,0,9-4,9-9l0,0C911.2,474.5,907.2,470.5,902.2,470.5z"
		/>
	<g>
		<text transform="matrix(1 0 0 1 550.8248 484.2529)" class="st2 st3 st6">Chinese Internet Companies , Unicorn</text>
	</g>
	<path class="st5" d="M1335.3,470.5H933c-5,0-9,4-9,9l0,0c0,5,4,9,9,9h402.2c5,0,9-4,9-9l0,0
		C1344.3,474.5,1340.3,470.5,1335.3,470.5z"/>
	<g>
		<text transform="matrix(1 0 0 1 1042.3492 484.2524)" class="st2 st10 st6">中国互联网公司，独角兽</text>
	</g>
	<line class="st11" x1="924" y1="470.5" x2="911.2" y2="488.5"/>
	<g>
		<text transform="matrix(1 0 0 1 1059.0787 327.3577)" class="st2 st3 st9">vis.</text>
		<text transform="matrix(1 0 0 1 1009.6787 350.1576)" class="st2 st3 st9">Stock Situation</text>
	</g>
	<g>
		<text transform="matrix(1 0 0 1 1119.1251 176.4097)" class="st0 st3 st12">with interactive version</text>
	</g>
	<g>
		<g>
			<path class="st0" d="M1198.9,379.4c-4.6-8.5-12.3-13.6-20.6-13.6c-8.3,0-16,5.1-20.6,13.6l-0.2,0.5l0.2,0.5
				c4.6,8.5,12.3,13.6,20.6,13.6c8.3,0,16-5.1,20.6-13.6l0.2-0.5L1198.9,379.4z"/>
			<path class="st1" d="M1187.6,379.9c0-5.1-4.2-9.3-9.3-9.3c-5.1,0-9.3,4.2-9.3,9.3c0,5.1,4.2,9.3,9.3,9.3
				C1183.4,389.2,1187.6,385,1187.6,379.9z M1172.1,379.9c0-3.4,2.8-6.3,6.3-6.3s6.3,2.8,6.3,6.3c0,3.4-2.8,6.3-6.3,6.3
				C1174.9,386.1,1172.1,383.3,1172.1,379.9z"/>
		</g>
		<g>
			<text transform="matrix(1 0 0 1 1119.1251 418.3152)" class="st0 st3 st12">with interactive version</text>
		</g>
	</g>
	<g>
		<g>
			<path class="st0" d="M1198.9,575.2c-4.6-8.5-12.3-13.6-20.6-13.6c-8.3,0-16,5.1-20.6,13.6l-0.2,0.5l0.2,0.5
				c4.6,8.5,12.3,13.6,20.6,13.6c8.3,0,16-5.1,20.6-13.6l0.2-0.5L1198.9,575.2z"/>
			<path class="st1" d="M1187.6,575.6c0-5.1-4.2-9.3-9.3-9.3c-5.1,0-9.3,4.2-9.3,9.3s4.2,9.3,9.3,9.3
				C1183.4,584.9,1187.6,580.8,1187.6,575.6z M1172.1,575.6c0-3.4,2.8-6.3,6.3-6.3s6.3,2.8,6.3,6.3c0,3.4-2.8,6.3-6.3,6.3
				C1174.9,581.9,1172.1,579.1,1172.1,575.6z"/>
		</g>
		<g>
			<text transform="matrix(1 0 0 1 1119.1251 614.0667)" class="st0 st3 st12">with interactive version</text>
		</g>
	</g>
	<g>
		<g>
			<path class="st0" d="M1198.9,782.2c-4.6-8.5-12.3-13.6-20.6-13.6c-8.3,0-16,5.1-20.6,13.6l-0.2,0.5l0.2,0.5
				c4.6,8.5,12.3,13.6,20.6,13.6c8.3,0,16-5.1,20.6-13.6l0.2-0.5L1198.9,782.2z"/>
			<path class="st1" d="M1187.6,782.6c0-5.1-4.2-9.3-9.3-9.3c-5.1,0-9.3,4.2-9.3,9.3s4.2,9.3,9.3,9.3
				C1183.4,791.9,1187.6,787.7,1187.6,782.6z M1172.1,782.6c0-3.4,2.8-6.3,6.3-6.3s6.3,2.8,6.3,6.3c0,3.4-2.8,6.3-6.3,6.3
				C1174.9,788.9,1172.1,786.1,1172.1,782.6z"/>
		</g>
		<g>
			<text transform="matrix(1 0 0 1 1119.1251 821.0359)" class="st0 st3 st12">with interactive version</text>
		</g>
	</g>
	<g>
		<text transform="matrix(1 0 0 1 47.7382 62.3451)" class="st2 st3 st4">01</text>
	</g>
	<g>
		<text transform="matrix(1 0 0 1 47.7382 266.1393)" class="st2 st3 st4">02</text>
	</g>
	<g>
		<text transform="matrix(1 0 0 1 47.7382 484.2526)" class="st2 st3 st4">03</text>
	</g>
	<g>
		<text transform="matrix(1 0 0 1 47.7382 688.0468)" class="st2 st3 st4">04</text>
	</g>
	<g>
		<text transform="matrix(1 0 0 1 47.7382 891.8409)" class="st2 st3 st4">05</text>
	</g>
	<g id="图层_2_1_">
	</g>
</g>
<g id="question01">
	<g>
		<path class="st5" d="M1094.4,137.5c-4.6-8.5-12.3-13.6-20.6-13.6c-8.3,0-16,5.1-20.6,13.6l-0.2,0.5l0.2,0.5
			c4.6,8.5,12.3,13.6,20.6,13.6c8.3,0,16-5.1,20.6-13.6l0.2-0.5L1094.4,137.5z"/>
		<path class="st1" d="M1083.1,138c0-5.1-4.2-9.3-9.3-9.3c-5.1,0-9.3,4.2-9.3,9.3s4.2,9.3,9.3,9.3S1083.1,143.1,1083.1,138z
			 M1067.5,138c0-3.4,2.8-6.3,6.3-6.3s6.3,2.8,6.3,6.3c0,3.4-2.8,6.3-6.3,6.3C1070.4,144.2,1067.5,141.4,1067.5,138z"/>
	</g>
</g>
<g id="question01_1_">
	<g>
		<path class="st5" d="M1296.2,137.5c-4.6-8.5-12.3-13.6-20.6-13.6c-8.3,0-16,5.1-20.6,13.6l-0.2,0.5l0.2,0.5
			c4.6,8.5,12.3,13.6,20.6,13.6c8.3,0,16-5.1,20.6-13.6l0.2-0.5L1296.2,137.5z"/>
		<path class="st1" d="M1284.9,138c0-5.1-4.2-9.3-9.3-9.3c-5.1,0-9.3,4.2-9.3,9.3s4.2,9.3,9.3,9.3
			C1280.7,147.3,1284.9,143.1,1284.9,138z M1269.3,138c0-3.4,2.8-6.3,6.3-6.3s6.3,2.8,6.3,6.3c0,3.4-2.8,6.3-6.3,6.3
			C1272.2,144.2,1269.3,141.4,1269.3,138z"/>
	</g>
</g>
<g id="question02_1_">
	<g id="question02">
		<path class="st5" d="M881.3,377.5C876.7,369,869,364,860.7,364s-16,5.1-20.6,13.6l-0.2,0.5l0.2,0.5c4.6,8.5,12.3,13.6,20.6,13.6
			s16-5.1,20.6-13.6l0.2-0.5L881.3,377.5z"/>
		<path class="st1" d="M870,378c0-5.1-4.2-9.3-9.3-9.3s-9.3,4.2-9.3,9.3c0,5.1,4.2,9.3,9.3,9.3S870,383.1,870,378z M854.5,378
			c0-3.4,2.8-6.3,6.3-6.3s6.3,2.8,6.3,6.3s-2.8,6.3-6.3,6.3C857.3,384.2,854.5,381.4,854.5,378z"/>
	</g>
</g>
<g id="question03_1_">
	<g id="question03">
		<path class="st5" d="M654.6,377.5C650,369,642.3,364,634,364s-16,5.1-20.6,13.6l-0.2,0.5l0.2,0.5c4.6,8.5,12.3,13.6,20.6,13.6
			s16-5.1,20.6-13.6l0.2-0.5L654.6,377.5z"/>
		<path class="st1" d="M643.3,378c0-5.1-4.2-9.3-9.3-9.3s-9.3,4.2-9.3,9.3c0,5.1,4.2,9.3,9.3,9.3S643.3,383.1,643.3,378z M627.7,378
			c0-3.4,2.8-6.3,6.3-6.3s6.3,2.8,6.3,6.3s-2.8,6.3-6.3,6.3C630.5,384.2,627.7,381.4,627.7,378z"/>
	</g>
</g>
<g id="question04">
	<g id="question04_1_">
		<path class="st5" d="M1094.4,379.4c-4.6-8.5-12.3-13.6-20.6-13.6c-8.3,0-16,5.1-20.6,13.6l-0.2,0.5l0.2,0.5
			c4.6,8.5,12.3,13.6,20.6,13.6c8.3,0,16-5.1,20.6-13.6l0.2-0.5L1094.4,379.4z"/>
		<path class="st1" d="M1083.1,379.9c0-5.1-4.2-9.3-9.3-9.3c-5.1,0-9.3,4.2-9.3,9.3c0,5.1,4.2,9.3,9.3,9.3
			C1078.9,389.2,1083.1,385,1083.1,379.9z M1067.5,379.9c0-3.4,2.8-6.3,6.3-6.3s6.3,2.8,6.3,6.3c0,3.4-2.8,6.3-6.3,6.3
			C1070.4,386.1,1067.5,383.3,1067.5,379.9z"/>
	</g>
</g>
<g id="question05">
	<g id="question05_1_">
		<path class="st5" d="M1295.9,379.4c-4.6-8.5-12.3-13.6-20.6-13.6c-8.3,0-16,5.1-20.6,13.6l-0.2,0.5l0.2,0.5
			c4.6,8.5,12.3,13.6,20.6,13.6c8.3,0,16-5.1,20.6-13.6l0.2-0.5L1295.9,379.4z"/>
		<path class="st1" d="M1284.6,379.9c0-5.1-4.2-9.3-9.3-9.3c-5.1,0-9.3,4.2-9.3,9.3c0,5.1,4.2,9.3,9.3,9.3
			C1280.4,389.2,1284.6,385,1284.6,379.9z M1269,379.9c0-3.4,2.8-6.3,6.3-6.3s6.3,2.8,6.3,6.3c0,3.4-2.8,6.3-6.3,6.3
			C1271.8,386.1,1269,383.3,1269,379.9z"/>
	</g>
</g>
<g id="question06">
	<g id="question06_1_">
		<path class="st5" d="M1092.4,575.2c-4.6-8.5-12.3-13.6-20.6-13.6c-8.3,0-16,5.1-20.6,13.6l-0.2,0.5l0.2,0.5
			c4.6,8.5,12.3,13.6,20.6,13.6c8.3,0,16-5.1,20.6-13.6l0.2-0.5L1092.4,575.2z"/>
		<path class="st1" d="M1081.1,575.6c0-5.1-4.2-9.3-9.3-9.3c-5.1,0-9.3,4.2-9.3,9.3s4.2,9.3,9.3,9.3
			C1077,584.9,1081.1,580.8,1081.1,575.6z M1065.6,575.6c0-3.4,2.8-6.3,6.3-6.3s6.3,2.8,6.3,6.3c0,3.4-2.8,6.3-6.3,6.3
			C1068.4,581.9,1065.6,579.1,1065.6,575.6z"/>
	</g>
</g>
<g id="question07">
	<g id="question07_1_">
		<path class="st5" d="M1296.2,575.2c-4.6-8.5-12.3-13.6-20.6-13.6c-8.3,0-16,5.1-20.6,13.6l-0.2,0.5l0.2,0.5
			c4.6,8.5,12.3,13.6,20.6,13.6c8.3,0,16-5.1,20.6-13.6l0.2-0.5L1296.2,575.2z"/>
		<path class="st1" d="M1284.9,575.6c0-5.1-4.2-9.3-9.3-9.3c-5.1,0-9.3,4.2-9.3,9.3s4.2,9.3,9.3,9.3
			C1280.7,584.9,1284.9,580.8,1284.9,575.6z M1269.3,575.6c0-3.4,2.8-6.3,6.3-6.3s6.3,2.8,6.3,6.3c0,3.4-2.8,6.3-6.3,6.3
			C1272.2,581.9,1269.3,579.1,1269.3,575.6z"/>
	</g>
</g>
<g id="question08">
	<g id="question08_1_">
		<path class="st5" d="M1296.3,782.2c-4.6-8.5-12.3-13.6-20.6-13.6c-8.3,0-16,5.1-20.6,13.6l-0.2,0.5l0.2,0.5
			c4.6,8.5,12.3,13.6,20.6,13.6c8.3,0,16-5.1,20.6-13.6l0.2-0.5L1296.3,782.2z"/>
		<path class="st1" d="M1285,782.6c0-5.1-4.2-9.3-9.3-9.3c-5.1,0-9.3,4.2-9.3,9.3s4.2,9.3,9.3,9.3
			C1280.8,791.9,1285,787.7,1285,782.6z M1269.5,782.6c0-3.4,2.8-6.3,6.3-6.3s6.3,2.8,6.3,6.3c0,3.4-2.8,6.3-6.3,6.3
			C1272.3,788.9,1269.5,786.1,1269.5,782.6z"/>
	</g>
</g>
<g id="question09_1_">
	<g id="question09">
		<path class="st5" d="M1092.4,782.2c-4.6-8.5-12.3-13.6-20.6-13.6c-8.3,0-16,5.1-20.6,13.6l-0.2,0.5l0.2,0.5
			c4.6,8.5,12.3,13.6,20.6,13.6c8.3,0,16-5.1,20.6-13.6l0.2-0.5L1092.4,782.2z"/>
		<path class="st1" d="M1081.1,782.6c0-5.1-4.2-9.3-9.3-9.3c-5.1,0-9.3,4.2-9.3,9.3s4.2,9.3,9.3,9.3
			C1077,791.9,1081.1,787.7,1081.1,782.6z M1065.6,782.6c0-3.4,2.8-6.3,6.3-6.3s6.3,2.8,6.3,6.3c0,3.4-2.8,6.3-6.3,6.3
			C1068.4,788.9,1065.6,786.1,1065.6,782.6z"/>
	</g>
</g>
<g id="question10_1_">
	<g id="question10">
		<path class="st5" d="M881.3,782.2c-4.6-8.5-12.3-13.6-20.6-13.6s-16,5.1-20.6,13.6l-0.2,0.5l0.2,0.5c4.6,8.5,12.3,13.6,20.6,13.6
			s16-5.1,20.6-13.6l0.2-0.5L881.3,782.2z"/>
		<path class="st1" d="M870,782.6c0-5.1-4.2-9.3-9.3-9.3s-9.3,4.2-9.3,9.3s4.2,9.3,9.3,9.3C865.8,791.9,870,787.7,870,782.6z
			 M854.5,782.6c0-3.4,2.8-6.3,6.3-6.3s6.3,2.8,6.3,6.3c0,3.4-2.8,6.3-6.3,6.3C857.3,788.9,854.5,786.1,854.5,782.6z"/>
	</g>
</g>
<g id="question11">
	<g id="question11_1_">
		<path class="st5" d="M1092,951.6c-4.6-8.5-12.3-13.6-20.6-13.6c-8.3,0-16,5.1-20.6,13.6l-0.2,0.5l0.2,0.5
			c4.6,8.5,12.3,13.6,20.6,13.6c8.3,0,16-5.1,20.6-13.6l0.2-0.5L1092,951.6z"/>
		<path class="st1" d="M1080.7,952.1c0-5.1-4.2-9.3-9.3-9.3c-5.1,0-9.3,4.2-9.3,9.3s4.2,9.3,9.3,9.3
			C1076.5,961.4,1080.7,957.2,1080.7,952.1z M1065.2,952.1c0-3.4,2.8-6.3,6.3-6.3s6.3,2.8,6.3,6.3s-2.8,6.3-6.3,6.3
			C1068,958.3,1065.2,955.5,1065.2,952.1z"/>
	</g>
</g>
<g id="question12_1_">
	<g id="question12">
		<path class="st5" d="M1296.3,951.6c-4.6-8.5-12.3-13.6-20.6-13.6c-8.3,0-16,5.1-20.6,13.6l-0.2,0.5l0.2,0.5
			c4.6,8.5,12.3,13.6,20.6,13.6c8.3,0,16-5.1,20.6-13.6l0.2-0.5L1296.3,951.6z"/>
		<path class="st1" d="M1285,952.1c0-5.1-4.2-9.3-9.3-9.3c-5.1,0-9.3,4.2-9.3,9.3s4.2,9.3,9.3,9.3
			C1280.8,961.4,1285,957.2,1285,952.1z M1269.5,952.1c0-3.4,2.8-6.3,6.3-6.3s6.3,2.8,6.3,6.3s-2.8,6.3-6.3,6.3
			C1272.3,958.3,1269.5,955.5,1269.5,952.1z"/>
	</g>
</g>
</svg>
